<svg xmlns="http://www.w3.org/2000/svg" width="720" height="480" viewBox="0 0 720 480" role="img" aria-labelledby="title desc">
  <title id="title">Cartoons</title>
  <desc id="desc">Editorial illustration for the Cartoons desk</desc>
  <rect width="720" height="480" fill="#f4f0e8" />
  <rect x="36" y="36" width="648" height="408" rx="8" fill="#fffdf9" stroke="#1f1f1b" stroke-width="2" />
  <g fill="#fffdf9" stroke="#1f1f1b" stroke-width="8">
    <rect x="82" y="88" width="250" height="132" rx="6" />
    <rect x="388" y="88" width="250" height="132" rx="6" />
    <rect x="82" y="248" width="250" height="112" rx="6" />
    <rect x="388" y="248" width="250" height="112" rx="6" />
  </g>
  <path d="M130 152c36-30 88-30 124 0" fill="none" stroke="#a63b2e" stroke-width="10" stroke-linecap="round" />
  <path d="M156 170h72" stroke="#1f1f1b" stroke-width="9" stroke-linecap="round" />
  <path d="M424 150h126c22 0 40 16 40 36s-18 36-40 36h-44l-32 30 8-30h-58c-22 0-40-16-40-36s18-36 40-36z" fill="#f7df6e" stroke="#1f1f1b" stroke-width="8" />
  <path d="M432 292l112-42 42 34-110 42z" fill="#a63b2e" opacity=".18" stroke="#a63b2e" stroke-width="8" stroke-linejoin="round" />
  <path d="M530 260l56 46" stroke="#1f1f1b" stroke-width="9" stroke-linecap="round" />
  <path d="M122 304h154M122 330h104" stroke="#1f1f1b" stroke-width="10" stroke-linecap="round" opacity=".82" />
  <text x="82" y="410" font-family="Georgia, serif" font-size="34" fill="#1f1f1b">Cartoons</text>
</svg>
