<svg xmlns="http://www.w3.org/2000/svg" viewBox="0 0 800 500" role="img" aria-labelledby="title desc">
  <title id="title">AI editorial illustration: Atla NoHo in the feed</title>
  <desc id="desc">A generated editorial illustration summarizing People post for the Atla source rail. This is not a social-media screenshot.</desc>
  
  <defs>
    <linearGradient id="bg" x1="0" y1="0" x2="1" y2="1"><stop offset="0" stop-color="#f7edf3"/><stop offset="1" stop-color="#ffffff"/></linearGradient>
    <linearGradient id="band" x1="0" y1="0" x2="1" y2="1"><stop offset="0" stop-color="#4e55bd"/><stop offset="1" stop-color="#d36f76"/></linearGradient>
    <filter id="soft" x="-20%" y="-20%" width="140%" height="140%"><feDropShadow dx="0" dy="12" stdDeviation="12" flood-color="#1c2330" flood-opacity=".18"/></filter>
  </defs>
  <rect width="800" height="500" rx="42" fill="url(#bg)"/>
  <circle cx="92" cy="88" r="62" fill="#f1ca70" opacity=".35"/>
  <circle cx="705" cy="78" r="38" fill="#d36f76" opacity=".18"/>
  <path d="M40 398 C190 348 260 432 420 382 S640 314 760 376" fill="none" stroke="#4e55bd" stroke-opacity=".16" stroke-width="18" stroke-linecap="round"/>
  <rect x="48" y="42" width="208" height="34" rx="17" fill="#ffffff" opacity=".76"/>
  <text x="68" y="65" text-anchor="start" font-family="Inter, Arial, sans-serif" font-size="18" font-weight="900" fill="#4e55bd">AI editorial illustration</text>
  <text x="52" y="434" text-anchor="start" font-family="Inter, Arial, sans-serif" font-size="30" font-weight="900" fill="#4e55bd">25</text>
  <text x="104" y="430" text-anchor="start" font-family="Inter, Arial, sans-serif" font-size="23" font-weight="900" fill="#4e55bd">PEOPLE POST</text>
  <text x="104" y="465" text-anchor="start" font-family="Georgia, Times New Roman, serif" font-size="30" font-weight="900" fill="#202637">Atla NoHo in the feed</text>
  <g filter="url(#soft)"><rect x="246" y="126" width="308" height="190" rx="24" fill="#4e55bd"/><rect x="286" y="156" width="228" height="130" rx="18" fill="#fff" opacity=".88"/><path d="M266 148v146M534 148v146" stroke="#f1ca70" stroke-width="14" stroke-dasharray="12 16"/><ellipse cx="400" cy="256" rx="78" ry="25" fill="#d36f76" opacity=".75"/><circle cx="400" cy="226" r="34" fill="#f1ca70"/></g>
</svg>
