<svg xmlns="http://www.w3.org/2000/svg" viewBox="0 0 800 500" role="img" aria-labelledby="title desc">
  <title id="title">AI editorial illustration: The announcement travels</title>
  <desc id="desc">A generated editorial illustration summarizing People talking for the Atla source rail. This is not a social-media screenshot.</desc>
  
  <defs>
    <linearGradient id="bg" x1="0" y1="0" x2="1" y2="1"><stop offset="0" stop-color="#f7edf4"/><stop offset="1" stop-color="#ffffff"/></linearGradient>
    <linearGradient id="band" x1="0" y1="0" x2="1" y2="1"><stop offset="0" stop-color="#4b55c7"/><stop offset="1" stop-color="#d16f75"/></linearGradient>
    <filter id="soft" x="-20%" y="-20%" width="140%" height="140%"><feDropShadow dx="0" dy="12" stdDeviation="12" flood-color="#1c2330" flood-opacity=".18"/></filter>
  </defs>
  <rect width="800" height="500" rx="42" fill="url(#bg)"/>
  <circle cx="108" cy="88" r="62" fill="#ffd06a" opacity=".35"/>
  <circle cx="705" cy="78" r="38" fill="#d16f75" opacity=".18"/>
  <path d="M40 398 C190 348 260 432 420 382 S640 314 760 376" fill="none" stroke="#4b55c7" stroke-opacity=".16" stroke-width="18" stroke-linecap="round"/>
  <rect x="48" y="42" width="208" height="34" rx="17" fill="#ffffff" opacity=".76"/>
  <text x="68" y="65" text-anchor="start" font-family="Inter, Arial, sans-serif" font-size="18" font-weight="900" fill="#4b55c7">AI editorial illustration</text>
  <text x="52" y="434" text-anchor="start" font-family="Inter, Arial, sans-serif" font-size="30" font-weight="900" fill="#4b55c7">02</text>
  <text x="104" y="430" text-anchor="start" font-family="Inter, Arial, sans-serif" font-size="23" font-weight="900" fill="#4b55c7">PEOPLE TALKING</text>
  <text x="104" y="465" text-anchor="start" font-family="Georgia, Times New Roman, serif" font-size="30" font-weight="900" fill="#202637">The announcement travels</text>
  <g filter="url(#soft)"><circle cx="395" cy="220" r="102" fill="none" stroke="#4b55c7" stroke-width="16" opacity=".24"/><circle cx="395" cy="220" r="68" fill="none" stroke="#d16f75" stroke-width="14" opacity=".38"/><circle cx="395" cy="220" r="34" fill="#ffd06a"/><path d="M495 156c62 16 93 52 112 112" fill="none" stroke="#4b55c7" stroke-width="12" stroke-linecap="round"/><circle cx="610" cy="282" r="18" fill="#d16f75"/></g>
</svg>
