<svg xmlns="http://www.w3.org/2000/svg" viewBox="0 0 800 500" role="img" aria-labelledby="title desc">
  <title id="title">AI editorial illustration: Cosme turned ten first</title>
  <desc id="desc">A generated editorial illustration summarizing Duck carnitas decade for the Atla source rail. This is not a social-media screenshot.</desc>
  
  <defs>
    <linearGradient id="bg" x1="0" y1="0" x2="1" y2="1"><stop offset="0" stop-color="#f4eff4"/><stop offset="1" stop-color="#ffffff"/></linearGradient>
    <linearGradient id="band" x1="0" y1="0" x2="1" y2="1"><stop offset="0" stop-color="#5d4a7f"/><stop offset="1" stop-color="#bd594c"/></linearGradient>
    <filter id="soft" x="-20%" y="-20%" width="140%" height="140%"><feDropShadow dx="0" dy="12" stdDeviation="12" flood-color="#1c2330" flood-opacity=".18"/></filter>
  </defs>
  <rect width="800" height="500" rx="42" fill="url(#bg)"/>
  <circle cx="124" cy="88" r="62" fill="#e8bf64" opacity=".35"/>
  <circle cx="705" cy="78" r="38" fill="#bd594c" opacity=".18"/>
  <path d="M40 398 C190 348 260 432 420 382 S640 314 760 376" fill="none" stroke="#5d4a7f" stroke-opacity=".16" stroke-width="18" stroke-linecap="round"/>
  <rect x="48" y="42" width="208" height="34" rx="17" fill="#ffffff" opacity=".76"/>
  <text x="68" y="65" text-anchor="start" font-family="Inter, Arial, sans-serif" font-size="18" font-weight="900" fill="#5d4a7f">AI editorial illustration</text>
  <text x="52" y="434" text-anchor="start" font-family="Inter, Arial, sans-serif" font-size="30" font-weight="900" fill="#5d4a7f">49</text>
  <text x="104" y="430" text-anchor="start" font-family="Inter, Arial, sans-serif" font-size="23" font-weight="900" fill="#5d4a7f">DUCK CARNITAS DECADE</text>
  <text x="104" y="465" text-anchor="start" font-family="Georgia, Times New Roman, serif" font-size="30" font-weight="900" fill="#202637">Cosme turned ten first</text>
  <g filter="url(#soft)"><ellipse cx="400" cy="276" rx="140" ry="54" fill="#fff"/><path d="M310 250c54-64 128-66 194 0" fill="none" stroke="#bd594c" stroke-width="24" stroke-linecap="round"/><text x="400" y="202" text-anchor="middle" font-family="Georgia" font-size="86" font-weight="900" fill="#5d4a7f">10</text><path d="M342 302h116" stroke="#e8bf64" stroke-width="12" stroke-linecap="round"/></g>
</svg>
