<svg xmlns="http://www.w3.org/2000/svg" viewBox="0 0 800 500" role="img" aria-labelledby="title desc">
  <title id="title">AI editorial illustration: The concept had another life</title>
  <desc id="desc">A generated editorial illustration summarizing Atla elsewhere for the Atla source rail. This is not a social-media screenshot.</desc>
  
  <defs>
    <linearGradient id="bg" x1="0" y1="0" x2="1" y2="1"><stop offset="0" stop-color="#f3f0ea"/><stop offset="1" stop-color="#ffffff"/></linearGradient>
    <linearGradient id="band" x1="0" y1="0" x2="1" y2="1"><stop offset="0" stop-color="#414f86"/><stop offset="1" stop-color="#c46a56"/></linearGradient>
    <filter id="soft" x="-20%" y="-20%" width="140%" height="140%"><feDropShadow dx="0" dy="12" stdDeviation="12" flood-color="#1c2330" flood-opacity=".18"/></filter>
  </defs>
  <rect width="800" height="500" rx="42" fill="url(#bg)"/>
  <circle cx="108" cy="88" r="62" fill="#efc66d" opacity=".35"/>
  <circle cx="705" cy="78" r="38" fill="#c46a56" opacity=".18"/>
  <path d="M40 398 C190 348 260 432 420 382 S640 314 760 376" fill="none" stroke="#414f86" stroke-opacity=".16" stroke-width="18" stroke-linecap="round"/>
  <rect x="48" y="42" width="208" height="34" rx="17" fill="#ffffff" opacity=".76"/>
  <text x="68" y="65" text-anchor="start" font-family="Inter, Arial, sans-serif" font-size="18" font-weight="900" fill="#414f86">AI editorial illustration</text>
  <text x="52" y="434" text-anchor="start" font-family="Inter, Arial, sans-serif" font-size="30" font-weight="900" fill="#414f86">52</text>
  <text x="104" y="430" text-anchor="start" font-family="Inter, Arial, sans-serif" font-size="23" font-weight="900" fill="#414f86">ATLA ELSEWHERE</text>
  <text x="104" y="465" text-anchor="start" font-family="Georgia, Times New Roman, serif" font-size="30" font-weight="900" fill="#202637">The concept had another life</text>
  <g filter="url(#soft)"><rect x="238" y="142" width="138" height="170" rx="22" fill="#fff"/><rect x="424" y="142" width="138" height="170" rx="22" fill="#fff"/><path d="M274 178h66v96h-66zM460 178h66v96h-66z" fill="#414f86" opacity=".72"/><path d="M376 228h48" stroke="#efc66d" stroke-width="14" stroke-linecap="round"/><circle cx="400" cy="228" r="16" fill="#c46a56"/></g>
</svg>
