<svg xmlns="http://www.w3.org/2000/svg" viewBox="0 0 800 500" role="img" aria-labelledby="title desc">
  <title id="title">AI editorial illustration: A smaller, laidback NoHo restaurant</title>
  <desc id="desc">A generated editorial illustration summarizing Before Atla for the Atla source rail. This is not a social-media screenshot.</desc>
  
  <defs>
    <linearGradient id="bg" x1="0" y1="0" x2="1" y2="1"><stop offset="0" stop-color="#f7eff3"/><stop offset="1" stop-color="#ffffff"/></linearGradient>
    <linearGradient id="band" x1="0" y1="0" x2="1" y2="1"><stop offset="0" stop-color="#5460b9"/><stop offset="1" stop-color="#d07172"/></linearGradient>
    <filter id="soft" x="-20%" y="-20%" width="140%" height="140%"><feDropShadow dx="0" dy="12" stdDeviation="12" flood-color="#1c2330" flood-opacity=".18"/></filter>
  </defs>
  <rect width="800" height="500" rx="42" fill="url(#bg)"/>
  <circle cx="116" cy="88" r="62" fill="#f0c872" opacity=".35"/>
  <circle cx="705" cy="78" r="38" fill="#d07172" opacity=".18"/>
  <path d="M40 398 C190 348 260 432 420 382 S640 314 760 376" fill="none" stroke="#5460b9" stroke-opacity=".16" stroke-width="18" stroke-linecap="round"/>
  <rect x="48" y="42" width="208" height="34" rx="17" fill="#ffffff" opacity=".76"/>
  <text x="68" y="65" text-anchor="start" font-family="Inter, Arial, sans-serif" font-size="18" font-weight="900" fill="#5460b9">AI editorial illustration</text>
  <text x="52" y="434" text-anchor="start" font-family="Inter, Arial, sans-serif" font-size="30" font-weight="900" fill="#5460b9">33</text>
  <text x="104" y="430" text-anchor="start" font-family="Inter, Arial, sans-serif" font-size="23" font-weight="900" fill="#5460b9">BEFORE ATLA</text>
  <text x="104" y="465" text-anchor="start" font-family="Georgia, Times New Roman, serif" font-size="30" font-weight="900" fill="#202637">A smaller, laidback NoHo restaurant</text>
  <g filter="url(#soft)"><rect x="284" y="126" width="232" height="190" rx="24" fill="#fff"/><circle cx="352" cy="210" r="42" fill="#f0c872"/><path d="M452 148v104a42 42 0 0 1-84 0V148" fill="none" stroke="#5460b9" stroke-width="14" stroke-linecap="round"/><path d="M410 306v42M370 348h80" stroke="#d07172" stroke-width="12" stroke-linecap="round"/><path d="M310 292h70" stroke="#f0c872" stroke-width="10" stroke-linecap="round"/></g>
</svg>
