<svg xmlns="http://www.w3.org/2000/svg" viewBox="0 0 800 500" role="img" aria-labelledby="title desc">
  <title id="title">AI editorial illustration: After-work dinner, weekend brunch</title>
  <desc id="desc">A generated editorial illustration summarizing Crowd note for the Atla source rail. This is not a social-media screenshot.</desc>
  
  <defs>
    <linearGradient id="bg" x1="0" y1="0" x2="1" y2="1"><stop offset="0" stop-color="#f8eef0"/><stop offset="1" stop-color="#ffffff"/></linearGradient>
    <linearGradient id="band" x1="0" y1="0" x2="1" y2="1"><stop offset="0" stop-color="#4157a6"/><stop offset="1" stop-color="#ce6b69"/></linearGradient>
    <filter id="soft" x="-20%" y="-20%" width="140%" height="140%"><feDropShadow dx="0" dy="12" stdDeviation="12" flood-color="#1c2330" flood-opacity=".18"/></filter>
  </defs>
  <rect width="800" height="500" rx="42" fill="url(#bg)"/>
  <circle cx="108" cy="88" r="62" fill="#f2cb72" opacity=".35"/>
  <circle cx="705" cy="78" r="38" fill="#ce6b69" opacity=".18"/>
  <path d="M40 398 C190 348 260 432 420 382 S640 314 760 376" fill="none" stroke="#4157a6" stroke-opacity=".16" stroke-width="18" stroke-linecap="round"/>
  <rect x="48" y="42" width="208" height="34" rx="17" fill="#ffffff" opacity=".76"/>
  <text x="68" y="65" text-anchor="start" font-family="Inter, Arial, sans-serif" font-size="18" font-weight="900" fill="#4157a6">AI editorial illustration</text>
  <text x="52" y="434" text-anchor="start" font-family="Inter, Arial, sans-serif" font-size="30" font-weight="900" fill="#4157a6">12</text>
  <text x="104" y="430" text-anchor="start" font-family="Inter, Arial, sans-serif" font-size="23" font-weight="900" fill="#4157a6">CROWD NOTE</text>
  <text x="104" y="465" text-anchor="start" font-family="Georgia, Times New Roman, serif" font-size="30" font-weight="900" fill="#202637">After-work dinner, weekend brunch</text>
  <g filter="url(#soft)"><ellipse cx="400" cy="296" rx="156" ry="30" fill="#f2cb72"/><circle cx="296" cy="170" r="28" fill="#4157a6"/><circle cx="382" cy="154" r="33" fill="#ce6b69"/><circle cx="476" cy="174" r="28" fill="#4157a6" opacity=".82"/><path d="M248 278c28-62 70-62 96 0M334 278c34-78 88-78 122 0M442 278c28-62 70-62 96 0" fill="#fff" stroke="#4157a6" stroke-width="8" opacity=".92"/></g>
</svg>
