<svg xmlns="http://www.w3.org/2000/svg" viewBox="0 0 800 500" role="img" aria-labelledby="title desc">
  <title id="title">AI editorial illustration: Lafayette + Great Jones</title>
  <desc id="desc">A generated editorial illustration summarizing The corner for the Atla source rail. This is not a social-media screenshot.</desc>
  
  <defs>
    <linearGradient id="bg" x1="0" y1="0" x2="1" y2="1"><stop offset="0" stop-color="#eef5f1"/><stop offset="1" stop-color="#ffffff"/></linearGradient>
    <linearGradient id="band" x1="0" y1="0" x2="1" y2="1"><stop offset="0" stop-color="#2f665f"/><stop offset="1" stop-color="#ba5847"/></linearGradient>
    <filter id="soft" x="-20%" y="-20%" width="140%" height="140%"><feDropShadow dx="0" dy="12" stdDeviation="12" flood-color="#1c2330" flood-opacity=".18"/></filter>
  </defs>
  <rect width="800" height="500" rx="42" fill="url(#bg)"/>
  <circle cx="124" cy="88" r="62" fill="#e9c06d" opacity=".35"/>
  <circle cx="705" cy="78" r="38" fill="#ba5847" opacity=".18"/>
  <path d="M40 398 C190 348 260 432 420 382 S640 314 760 376" fill="none" stroke="#2f665f" stroke-opacity=".16" stroke-width="18" stroke-linecap="round"/>
  <rect x="48" y="42" width="208" height="34" rx="17" fill="#ffffff" opacity=".76"/>
  <text x="68" y="65" text-anchor="start" font-family="Inter, Arial, sans-serif" font-size="18" font-weight="900" fill="#2f665f">AI editorial illustration</text>
  <text x="52" y="434" text-anchor="start" font-family="Inter, Arial, sans-serif" font-size="30" font-weight="900" fill="#2f665f">09</text>
  <text x="104" y="430" text-anchor="start" font-family="Inter, Arial, sans-serif" font-size="23" font-weight="900" fill="#2f665f">THE CORNER</text>
  <text x="104" y="465" text-anchor="start" font-family="Georgia, Times New Roman, serif" font-size="30" font-weight="900" fill="#202637">Lafayette + Great Jones</text>
  <g filter="url(#soft)"><path d="M226 316h356V172l-180-62-176 62z" fill="#fff"/><path d="M226 172h356" stroke="#2f665f" stroke-width="16"/><rect x="270" y="206" width="72" height="86" rx="8" fill="#2f665f" opacity=".85"/><rect x="366" y="206" width="72" height="86" rx="8" fill="#ba5847" opacity=".82"/><rect x="462" y="206" width="72" height="86" rx="8" fill="#2f665f" opacity=".55"/><path d="M224 326h360" stroke="#e9c06d" stroke-width="14" stroke-linecap="round"/></g>
</svg>
