<svg xmlns="http://www.w3.org/2000/svg" viewBox="0 0 800 500" role="img" aria-labelledby="title desc">
  <title id="title">AI editorial illustration: High-quality indigenous ingredients</title>
  <desc id="desc">A generated editorial illustration summarizing Modern Mexican canon for the Atla source rail. This is not a social-media screenshot.</desc>
  
  <defs>
    <linearGradient id="bg" x1="0" y1="0" x2="1" y2="1"><stop offset="0" stop-color="#f0f4eb"/><stop offset="1" stop-color="#ffffff"/></linearGradient>
    <linearGradient id="band" x1="0" y1="0" x2="1" y2="1"><stop offset="0" stop-color="#2d6658"/><stop offset="1" stop-color="#bc694c"/></linearGradient>
    <filter id="soft" x="-20%" y="-20%" width="140%" height="140%"><feDropShadow dx="0" dy="12" stdDeviation="12" flood-color="#1c2330" flood-opacity=".18"/></filter>
  </defs>
  <rect width="800" height="500" rx="42" fill="url(#bg)"/>
  <circle cx="108" cy="88" r="62" fill="#eac467" opacity=".35"/>
  <circle cx="705" cy="78" r="38" fill="#bc694c" opacity=".18"/>
  <path d="M40 398 C190 348 260 432 420 382 S640 314 760 376" fill="none" stroke="#2d6658" stroke-opacity=".16" stroke-width="18" stroke-linecap="round"/>
  <rect x="48" y="42" width="208" height="34" rx="17" fill="#ffffff" opacity=".76"/>
  <text x="68" y="65" text-anchor="start" font-family="Inter, Arial, sans-serif" font-size="18" font-weight="900" fill="#2d6658">AI editorial illustration</text>
  <text x="52" y="434" text-anchor="start" font-family="Inter, Arial, sans-serif" font-size="30" font-weight="900" fill="#2d6658">32</text>
  <text x="104" y="430" text-anchor="start" font-family="Inter, Arial, sans-serif" font-size="23" font-weight="900" fill="#2d6658">MODERN MEXICAN CANON</text>
  <text x="104" y="465" text-anchor="start" font-family="Georgia, Times New Roman, serif" font-size="30" font-weight="900" fill="#202637">High-quality indigenous ingredients</text>
  <g filter="url(#soft)"><path d="M400 124c78 54 86 174 0 236-86-62-78-182 0-236z" fill="#eac467"/><path d="M352 184c58 28 78 88 48 176M448 184c-58 28-78 88-48 176" fill="none" stroke="#2d6658" stroke-width="12" stroke-linecap="round" opacity=".72"/><path d="M328 282c-54-12-82-58-76-116 62 24 94 62 92 120M472 282c54-12 82-58 76-116-62 24-94 62-92 120" fill="#bc694c" opacity=".72"/></g>
</svg>
