<svg xmlns="http://www.w3.org/2000/svg" viewBox="0 0 800 500" role="img" aria-labelledby="title desc">
  <title id="title">AI editorial illustration: After nearly a decade</title>
  <desc id="desc">A generated editorial illustration summarizing News pulse for the Atla source rail. This is not a social-media screenshot.</desc>
  
  <defs>
    <linearGradient id="bg" x1="0" y1="0" x2="1" y2="1"><stop offset="0" stop-color="#edf2fb"/><stop offset="1" stop-color="#ffffff"/></linearGradient>
    <linearGradient id="band" x1="0" y1="0" x2="1" y2="1"><stop offset="0" stop-color="#17233f"/><stop offset="1" stop-color="#c85d4d"/></linearGradient>
    <filter id="soft" x="-20%" y="-20%" width="140%" height="140%"><feDropShadow dx="0" dy="12" stdDeviation="12" flood-color="#1c2330" flood-opacity=".18"/></filter>
  </defs>
  <rect width="800" height="500" rx="42" fill="url(#bg)"/>
  <circle cx="116" cy="88" r="62" fill="#f0d06f" opacity=".35"/>
  <circle cx="705" cy="78" r="38" fill="#c85d4d" opacity=".18"/>
  <path d="M40 398 C190 348 260 432 420 382 S640 314 760 376" fill="none" stroke="#17233f" stroke-opacity=".16" stroke-width="18" stroke-linecap="round"/>
  <rect x="48" y="42" width="208" height="34" rx="17" fill="#ffffff" opacity=".76"/>
  <text x="68" y="65" text-anchor="start" font-family="Inter, Arial, sans-serif" font-size="18" font-weight="900" fill="#17233f">AI editorial illustration</text>
  <text x="52" y="434" text-anchor="start" font-family="Inter, Arial, sans-serif" font-size="30" font-weight="900" fill="#17233f">03</text>
  <text x="104" y="430" text-anchor="start" font-family="Inter, Arial, sans-serif" font-size="23" font-weight="900" fill="#17233f">NEWS PULSE</text>
  <text x="104" y="465" text-anchor="start" font-family="Georgia, Times New Roman, serif" font-size="30" font-weight="900" fill="#202637">After nearly a decade</text>
  <g filter="url(#soft)"><rect x="240" y="126" width="320" height="188" rx="24" fill="#17233f"/><rect x="276" y="164" width="205" height="13" rx="6" fill="#fff" opacity=".9"/><rect x="276" y="198" width="244" height="11" rx="5" fill="#f0d06f"/><rect x="276" y="230" width="166" height="11" rx="5" fill="#fff" opacity=".55"/><path d="M268 274 L336 274 L358 238 L386 302 L415 254 L438 274 L528 274" fill="none" stroke="#f0d06f" stroke-width="9" stroke-linejoin="round" stroke-linecap="round"/></g>
</svg>
