<svg xmlns="http://www.w3.org/2000/svg" viewBox="0 0 800 500" role="img" aria-labelledby="title desc">
  <title id="title">AI editorial illustration: Book, order memory, do not cosplay grief</title>
  <desc id="desc">A generated editorial illustration summarizing How to go for the Atla source rail. This is not a social-media screenshot.</desc>
  
  <defs>
    <linearGradient id="bg" x1="0" y1="0" x2="1" y2="1"><stop offset="0" stop-color="#f1f5ec"/><stop offset="1" stop-color="#ffffff"/></linearGradient>
    <linearGradient id="band" x1="0" y1="0" x2="1" y2="1"><stop offset="0" stop-color="#2d654f"/><stop offset="1" stop-color="#3e578b"/></linearGradient>
    <filter id="soft" x="-20%" y="-20%" width="140%" height="140%"><feDropShadow dx="0" dy="12" stdDeviation="12" flood-color="#1c2330" flood-opacity=".18"/></filter>
  </defs>
  <rect width="800" height="500" rx="42" fill="url(#bg)"/>
  <circle cx="92" cy="88" r="62" fill="#f0c96a" opacity=".35"/>
  <circle cx="705" cy="78" r="38" fill="#3e578b" opacity=".18"/>
  <path d="M40 398 C190 348 260 432 420 382 S640 314 760 376" fill="none" stroke="#2d654f" stroke-opacity=".16" stroke-width="18" stroke-linecap="round"/>
  <rect x="48" y="42" width="208" height="34" rx="17" fill="#ffffff" opacity=".76"/>
  <text x="68" y="65" text-anchor="start" font-family="Inter, Arial, sans-serif" font-size="18" font-weight="900" fill="#2d654f">AI editorial illustration</text>
  <text x="52" y="434" text-anchor="start" font-family="Inter, Arial, sans-serif" font-size="30" font-weight="900" fill="#2d654f">45</text>
  <text x="104" y="430" text-anchor="start" font-family="Inter, Arial, sans-serif" font-size="23" font-weight="900" fill="#2d654f">HOW TO GO</text>
  <text x="104" y="465" text-anchor="start" font-family="Georgia, Times New Roman, serif" font-size="30" font-weight="900" fill="#202637">Book, order memory, do not cosplay grief</text>
  <g filter="url(#soft)"><rect x="272" y="112" width="256" height="226" rx="24" fill="#fff"/><path d="M322 172l22 22 48-54M322 230l22 22 48-54M322 288l22 22 48-54" fill="none" stroke="#2d654f" stroke-width="11" stroke-linecap="round" stroke-linejoin="round"/><path d="M418 190h58M418 248h72M418 306h44" stroke="#3e578b" stroke-width="11" stroke-linecap="round"/><circle cx="506" cy="130" r="34" fill="#f0c96a"/></g>
</svg>
