<svg xmlns="http://www.w3.org/2000/svg" viewBox="0 0 800 500" role="img" aria-labelledby="title desc">
  <title id="title">AI editorial illustration: World-class restaurants downtown</title>
  <desc id="desc">A generated editorial illustration summarizing Neighborhood dining for the Atla source rail. This is not a social-media screenshot.</desc>
  
  <defs>
    <linearGradient id="bg" x1="0" y1="0" x2="1" y2="1"><stop offset="0" stop-color="#edf4f2"/><stop offset="1" stop-color="#ffffff"/></linearGradient>
    <linearGradient id="band" x1="0" y1="0" x2="1" y2="1"><stop offset="0" stop-color="#2f6164"/><stop offset="1" stop-color="#bd654c"/></linearGradient>
    <filter id="soft" x="-20%" y="-20%" width="140%" height="140%"><feDropShadow dx="0" dy="12" stdDeviation="12" flood-color="#1c2330" flood-opacity=".18"/></filter>
  </defs>
  <rect width="800" height="500" rx="42" fill="url(#bg)"/>
  <circle cx="108" cy="88" r="62" fill="#eac36f" opacity=".35"/>
  <circle cx="705" cy="78" r="38" fill="#bd654c" opacity=".18"/>
  <path d="M40 398 C190 348 260 432 420 382 S640 314 760 376" fill="none" stroke="#2f6164" stroke-opacity=".16" stroke-width="18" stroke-linecap="round"/>
  <rect x="48" y="42" width="208" height="34" rx="17" fill="#ffffff" opacity=".76"/>
  <text x="68" y="65" text-anchor="start" font-family="Inter, Arial, sans-serif" font-size="18" font-weight="900" fill="#2f6164">AI editorial illustration</text>
  <text x="52" y="434" text-anchor="start" font-family="Inter, Arial, sans-serif" font-size="30" font-weight="900" fill="#2f6164">37</text>
  <text x="104" y="430" text-anchor="start" font-family="Inter, Arial, sans-serif" font-size="23" font-weight="900" fill="#2f6164">NEIGHBORHOOD DINING</text>
  <text x="104" y="465" text-anchor="start" font-family="Georgia, Times New Roman, serif" font-size="30" font-weight="900" fill="#202637">World-class restaurants downtown</text>
  <g filter="url(#soft)"><rect x="250" y="144" width="70" height="160" fill="#2f6164"/><rect x="340" y="106" width="82" height="198" fill="#bd654c"/><rect x="446" y="168" width="92" height="136" fill="#2f6164" opacity=".72"/><path d="M234 314h328" stroke="#eac36f" stroke-width="18" stroke-linecap="round"/><circle cx="398" cy="242" r="44" fill="#fff" opacity=".88"/><path d="M374 242h48" stroke="#bd654c" stroke-width="8"/></g>
</svg>
