<svg xmlns="http://www.w3.org/2000/svg" viewBox="0 0 800 500" role="img" aria-labelledby="title desc">
  <title id="title">AI editorial illustration: Margaritas, cocktails, food</title>
  <desc id="desc">A generated editorial illustration summarizing What remains for the Atla source rail. This is not a social-media screenshot.</desc>
  
  <defs>
    <linearGradient id="bg" x1="0" y1="0" x2="1" y2="1"><stop offset="0" stop-color="#f8f0e5"/><stop offset="1" stop-color="#ffffff"/></linearGradient>
    <linearGradient id="band" x1="0" y1="0" x2="1" y2="1"><stop offset="0" stop-color="#34518a"/><stop offset="1" stop-color="#be5c50"/></linearGradient>
    <filter id="soft" x="-20%" y="-20%" width="140%" height="140%"><feDropShadow dx="0" dy="12" stdDeviation="12" flood-color="#1c2330" flood-opacity=".18"/></filter>
  </defs>
  <rect width="800" height="500" rx="42" fill="url(#bg)"/>
  <circle cx="116" cy="88" r="62" fill="#f1ca70" opacity=".35"/>
  <circle cx="705" cy="78" r="38" fill="#be5c50" opacity=".18"/>
  <path d="M40 398 C190 348 260 432 420 382 S640 314 760 376" fill="none" stroke="#34518a" stroke-opacity=".16" stroke-width="18" stroke-linecap="round"/>
  <rect x="48" y="42" width="208" height="34" rx="17" fill="#ffffff" opacity=".76"/>
  <text x="68" y="65" text-anchor="start" font-family="Inter, Arial, sans-serif" font-size="18" font-weight="900" fill="#34518a">AI editorial illustration</text>
  <text x="52" y="434" text-anchor="start" font-family="Inter, Arial, sans-serif" font-size="30" font-weight="900" fill="#34518a">08</text>
  <text x="104" y="430" text-anchor="start" font-family="Inter, Arial, sans-serif" font-size="23" font-weight="900" fill="#34518a">WHAT REMAINS</text>
  <text x="104" y="465" text-anchor="start" font-family="Georgia, Times New Roman, serif" font-size="30" font-weight="900" fill="#202637">Margaritas, cocktails, food</text>
  <g filter="url(#soft)"><rect x="260" y="112" width="190" height="230" rx="22" fill="#fff"/><rect x="292" y="154" width="92" height="12" rx="6" fill="#34518a"/><rect x="292" y="188" width="126" height="10" rx="5" fill="#be5c50" opacity=".7"/><rect x="292" y="220" width="104" height="10" rx="5" fill="#34518a" opacity=".35"/><path d="M510 160c42 42 34 112-18 142" fill="none" stroke="#f1ca70" stroke-width="22" stroke-linecap="round"/><path d="M498 166l34-34M492 304v46" stroke="#34518a" stroke-width="10" stroke-linecap="round"/></g>
</svg>
