<svg xmlns="http://www.w3.org/2000/svg" viewBox="0 0 800 500" role="img" aria-labelledby="title desc">
  <title id="title">AI editorial illustration: Pujol’s gravity</title>
  <desc id="desc">A generated editorial illustration summarizing Two stars for the Atla source rail. This is not a social-media screenshot.</desc>
  
  <defs>
    <linearGradient id="bg" x1="0" y1="0" x2="1" y2="1"><stop offset="0" stop-color="#eef3f5"/><stop offset="1" stop-color="#ffffff"/></linearGradient>
    <linearGradient id="band" x1="0" y1="0" x2="1" y2="1"><stop offset="0" stop-color="#254f82"/><stop offset="1" stop-color="#b98442"/></linearGradient>
    <filter id="soft" x="-20%" y="-20%" width="140%" height="140%"><feDropShadow dx="0" dy="12" stdDeviation="12" flood-color="#1c2330" flood-opacity=".18"/></filter>
  </defs>
  <rect width="800" height="500" rx="42" fill="url(#bg)"/>
  <circle cx="92" cy="88" r="62" fill="#f0d06f" opacity=".35"/>
  <circle cx="705" cy="78" r="38" fill="#b98442" opacity=".18"/>
  <path d="M40 398 C190 348 260 432 420 382 S640 314 760 376" fill="none" stroke="#254f82" stroke-opacity=".16" stroke-width="18" stroke-linecap="round"/>
  <rect x="48" y="42" width="208" height="34" rx="17" fill="#ffffff" opacity=".76"/>
  <text x="68" y="65" text-anchor="start" font-family="Inter, Arial, sans-serif" font-size="18" font-weight="900" fill="#254f82">AI editorial illustration</text>
  <text x="52" y="434" text-anchor="start" font-family="Inter, Arial, sans-serif" font-size="30" font-weight="900" fill="#254f82">30</text>
  <text x="104" y="430" text-anchor="start" font-family="Inter, Arial, sans-serif" font-size="23" font-weight="900" fill="#254f82">TWO STARS</text>
  <text x="104" y="465" text-anchor="start" font-family="Georgia, Times New Roman, serif" font-size="30" font-weight="900" fill="#202637">Pujol’s gravity</text>
  <g filter="url(#soft)"><circle cx="354" cy="218" r="78" fill="#254f82"/><circle cx="454" cy="218" r="78" fill="#b98442" opacity=".92"/><path d="M354 160l17 36 40 5-29 27 8 39-36-20-36 20 8-39-29-27 40-5z" fill="#f0d06f"/><path d="M454 160l17 36 40 5-29 27 8 39-36-20-36 20 8-39-29-27 40-5z" fill="#fff" opacity=".86"/></g>
</svg>
