<svg xmlns="http://www.w3.org/2000/svg" viewBox="0 0 800 500" role="img" aria-labelledby="title desc">
  <title id="title">AI editorial illustration: Atla entered the year-end conversation</title>
  <desc id="desc">A generated editorial illustration summarizing Archive note for the Atla source rail. This is not a social-media screenshot.</desc>
  
  <defs>
    <linearGradient id="bg" x1="0" y1="0" x2="1" y2="1"><stop offset="0" stop-color="#f2f0e9"/><stop offset="1" stop-color="#ffffff"/></linearGradient>
    <linearGradient id="band" x1="0" y1="0" x2="1" y2="1"><stop offset="0" stop-color="#425270"/><stop offset="1" stop-color="#a85a4b"/></linearGradient>
    <filter id="soft" x="-20%" y="-20%" width="140%" height="140%"><feDropShadow dx="0" dy="12" stdDeviation="12" flood-color="#1c2330" flood-opacity=".18"/></filter>
  </defs>
  <rect width="800" height="500" rx="42" fill="url(#bg)"/>
  <circle cx="116" cy="88" r="62" fill="#e1be69" opacity=".35"/>
  <circle cx="705" cy="78" r="38" fill="#a85a4b" opacity=".18"/>
  <path d="M40 398 C190 348 260 432 420 382 S640 314 760 376" fill="none" stroke="#425270" stroke-opacity=".16" stroke-width="18" stroke-linecap="round"/>
  <rect x="48" y="42" width="208" height="34" rx="17" fill="#ffffff" opacity=".76"/>
  <text x="68" y="65" text-anchor="start" font-family="Inter, Arial, sans-serif" font-size="18" font-weight="900" fill="#425270">AI editorial illustration</text>
  <text x="52" y="434" text-anchor="start" font-family="Inter, Arial, sans-serif" font-size="30" font-weight="900" fill="#425270">23</text>
  <text x="104" y="430" text-anchor="start" font-family="Inter, Arial, sans-serif" font-size="23" font-weight="900" fill="#425270">ARCHIVE NOTE</text>
  <text x="104" y="465" text-anchor="start" font-family="Georgia, Times New Roman, serif" font-size="30" font-weight="900" fill="#202637">Atla entered the year-end conversation</text>
  <g filter="url(#soft)"><rect x="252" y="128" width="280" height="190" rx="22" fill="#fff"/><rect x="284" y="104" width="186" height="66" rx="18" fill="#e1be69"/><path d="M294 198h196M294 238h154M294 278h118" stroke="#425270" stroke-width="11" stroke-linecap="round" opacity=".62"/><circle cx="506" cy="152" r="28" fill="#a85a4b"/></g>
</svg>
