<svg xmlns="http://www.w3.org/2000/svg" viewBox="0 0 800 500" role="img" aria-labelledby="title desc">
  <title id="title">AI editorial illustration: San Damián in Venice</title>
  <desc id="desc">A generated editorial illustration summarizing Wider reset for the Atla source rail. This is not a social-media screenshot.</desc>
  
  <defs>
    <linearGradient id="bg" x1="0" y1="0" x2="1" y2="1"><stop offset="0" stop-color="#eef5f7"/><stop offset="1" stop-color="#ffffff"/></linearGradient>
    <linearGradient id="band" x1="0" y1="0" x2="1" y2="1"><stop offset="0" stop-color="#1f5371"/><stop offset="1" stop-color="#c26b4c"/></linearGradient>
    <filter id="soft" x="-20%" y="-20%" width="140%" height="140%"><feDropShadow dx="0" dy="12" stdDeviation="12" flood-color="#1c2330" flood-opacity=".18"/></filter>
  </defs>
  <rect width="800" height="500" rx="42" fill="url(#bg)"/>
  <circle cx="100" cy="88" r="62" fill="#ecc768" opacity=".35"/>
  <circle cx="705" cy="78" r="38" fill="#c26b4c" opacity=".18"/>
  <path d="M40 398 C190 348 260 432 420 382 S640 314 760 376" fill="none" stroke="#1f5371" stroke-opacity=".16" stroke-width="18" stroke-linecap="round"/>
  <rect x="48" y="42" width="208" height="34" rx="17" fill="#ffffff" opacity=".76"/>
  <text x="68" y="65" text-anchor="start" font-family="Inter, Arial, sans-serif" font-size="18" font-weight="900" fill="#1f5371">AI editorial illustration</text>
  <text x="52" y="434" text-anchor="start" font-family="Inter, Arial, sans-serif" font-size="30" font-weight="900" fill="#1f5371">41</text>
  <text x="104" y="430" text-anchor="start" font-family="Inter, Arial, sans-serif" font-size="23" font-weight="900" fill="#1f5371">WIDER RESET</text>
  <text x="104" y="465" text-anchor="start" font-family="Georgia, Times New Roman, serif" font-size="30" font-weight="900" fill="#202637">San Damián in Venice</text>
  <g filter="url(#soft)"><path d="M228 276c70-44 118-44 188 0s118 44 188 0" fill="none" stroke="#1f5371" stroke-width="18" stroke-linecap="round" opacity=".72"/><path d="M252 320c70-38 118-38 188 0s118 38 188 0" fill="none" stroke="#c26b4c" stroke-width="12" stroke-linecap="round" opacity=".58"/><path d="M350 160c72-28 136 6 164 64-72 28-136-6-164-64z" fill="#ecc768"/><circle cx="488" cy="194" r="7" fill="#1f5371"/><path d="M350 160l-44-28" stroke="#ecc768" stroke-width="10" stroke-linecap="round"/></g>
</svg>
