<svg xmlns="http://www.w3.org/2000/svg" viewBox="0 0 800 500" role="img" aria-labelledby="title desc">
  <title id="title">AI editorial illustration: NY meets L.A.</title>
  <desc id="desc">A generated editorial illustration summarizing Menu translation for the Atla source rail. This is not a social-media screenshot.</desc>
  
  <defs>
    <linearGradient id="bg" x1="0" y1="0" x2="1" y2="1"><stop offset="0" stop-color="#f2f0e6"/><stop offset="1" stop-color="#ffffff"/></linearGradient>
    <linearGradient id="band" x1="0" y1="0" x2="1" y2="1"><stop offset="0" stop-color="#334e82"/><stop offset="1" stop-color="#c06a4e"/></linearGradient>
    <filter id="soft" x="-20%" y="-20%" width="140%" height="140%"><feDropShadow dx="0" dy="12" stdDeviation="12" flood-color="#1c2330" flood-opacity=".18"/></filter>
  </defs>
  <rect width="800" height="500" rx="42" fill="url(#bg)"/>
  <circle cx="116" cy="88" r="62" fill="#ecc66b" opacity=".35"/>
  <circle cx="705" cy="78" r="38" fill="#c06a4e" opacity=".18"/>
  <path d="M40 398 C190 348 260 432 420 382 S640 314 760 376" fill="none" stroke="#334e82" stroke-opacity=".16" stroke-width="18" stroke-linecap="round"/>
  <rect x="48" y="42" width="208" height="34" rx="17" fill="#ffffff" opacity=".76"/>
  <text x="68" y="65" text-anchor="start" font-family="Inter, Arial, sans-serif" font-size="18" font-weight="900" fill="#334e82">AI editorial illustration</text>
  <text x="52" y="434" text-anchor="start" font-family="Inter, Arial, sans-serif" font-size="30" font-weight="900" fill="#334e82">43</text>
  <text x="104" y="430" text-anchor="start" font-family="Inter, Arial, sans-serif" font-size="23" font-weight="900" fill="#334e82">MENU TRANSLATION</text>
  <text x="104" y="465" text-anchor="start" font-family="Georgia, Times New Roman, serif" font-size="30" font-weight="900" fill="#202637">NY meets L.A.</text>
  <g filter="url(#soft)"><rect x="236" y="148" width="128" height="128" rx="28" fill="#fff"/><rect x="436" y="148" width="128" height="128" rx="28" fill="#fff"/><path d="M364 212h72" stroke="#334e82" stroke-width="16" stroke-linecap="round"/><path d="M420 184l34 28-34 28" fill="none" stroke="#334e82" stroke-width="16" stroke-linecap="round" stroke-linejoin="round"/><circle cx="300" cy="212" r="34" fill="#ecc66b"/><circle cx="500" cy="212" r="34" fill="#c06a4e"/><path d="M272 306c92 28 166 28 256 0" stroke="#ecc66b" stroke-width="10" stroke-linecap="round" opacity=".72"/></g>
</svg>
