<svg xmlns="http://www.w3.org/2000/svg" viewBox="0 0 800 500" role="img" aria-labelledby="title desc">
  <title id="title">AI editorial illustration: Less ceremony, more return visits</title>
  <desc id="desc">A generated editorial illustration summarizing All-day thesis for the Atla source rail. This is not a social-media screenshot.</desc>
  
  <defs>
    <linearGradient id="bg" x1="0" y1="0" x2="1" y2="1"><stop offset="0" stop-color="#f7f2df"/><stop offset="1" stop-color="#ffffff"/></linearGradient>
    <linearGradient id="band" x1="0" y1="0" x2="1" y2="1"><stop offset="0" stop-color="#284c7f"/><stop offset="1" stop-color="#d27a4c"/></linearGradient>
    <filter id="soft" x="-20%" y="-20%" width="140%" height="140%"><feDropShadow dx="0" dy="12" stdDeviation="12" flood-color="#1c2330" flood-opacity=".18"/></filter>
  </defs>
  <rect width="800" height="500" rx="42" fill="url(#bg)"/>
  <circle cx="116" cy="88" r="62" fill="#efcb68" opacity=".35"/>
  <circle cx="705" cy="78" r="38" fill="#d27a4c" opacity=".18"/>
  <path d="M40 398 C190 348 260 432 420 382 S640 314 760 376" fill="none" stroke="#284c7f" stroke-opacity=".16" stroke-width="18" stroke-linecap="round"/>
  <rect x="48" y="42" width="208" height="34" rx="17" fill="#ffffff" opacity=".76"/>
  <text x="68" y="65" text-anchor="start" font-family="Inter, Arial, sans-serif" font-size="18" font-weight="900" fill="#284c7f">AI editorial illustration</text>
  <text x="52" y="434" text-anchor="start" font-family="Inter, Arial, sans-serif" font-size="30" font-weight="900" fill="#284c7f">13</text>
  <text x="104" y="430" text-anchor="start" font-family="Inter, Arial, sans-serif" font-size="23" font-weight="900" fill="#284c7f">ALL-DAY THESIS</text>
  <text x="104" y="465" text-anchor="start" font-family="Georgia, Times New Roman, serif" font-size="30" font-weight="900" fill="#202637">Less ceremony, more return visits</text>
  <g filter="url(#soft)"><circle cx="318" cy="190" r="58" fill="#efcb68"/><path d="M500 142a72 72 0 1 0 0 144a54 54 0 1 1 0-144z" fill="#284c7f"/><ellipse cx="408" cy="305" rx="132" ry="28" fill="#fff"/><circle cx="408" cy="290" r="48" fill="#d27a4c" opacity=".75"/></g>
</svg>
