<svg xmlns="http://www.w3.org/2000/svg" viewBox="0 0 800 500" role="img" aria-labelledby="title desc">
  <title id="title">AI editorial illustration: Pujol, Cosme, Damian, ATLA</title>
  <desc id="desc">A generated editorial illustration summarizing Restaurant universe for the Atla source rail. This is not a social-media screenshot.</desc>
  
  <defs>
    <linearGradient id="bg" x1="0" y1="0" x2="1" y2="1"><stop offset="0" stop-color="#f5f0e9"/><stop offset="1" stop-color="#ffffff"/></linearGradient>
    <linearGradient id="band" x1="0" y1="0" x2="1" y2="1"><stop offset="0" stop-color="#27376f"/><stop offset="1" stop-color="#b85a45"/></linearGradient>
    <filter id="soft" x="-20%" y="-20%" width="140%" height="140%"><feDropShadow dx="0" dy="12" stdDeviation="12" flood-color="#1c2330" flood-opacity=".18"/></filter>
  </defs>
  <rect width="800" height="500" rx="42" fill="url(#bg)"/>
  <circle cx="100" cy="88" r="62" fill="#efc967" opacity=".35"/>
  <circle cx="705" cy="78" r="38" fill="#b85a45" opacity=".18"/>
  <path d="M40 398 C190 348 260 432 420 382 S640 314 760 376" fill="none" stroke="#27376f" stroke-opacity=".16" stroke-width="18" stroke-linecap="round"/>
  <rect x="48" y="42" width="208" height="34" rx="17" fill="#ffffff" opacity=".76"/>
  <text x="68" y="65" text-anchor="start" font-family="Inter, Arial, sans-serif" font-size="18" font-weight="900" fill="#27376f">AI editorial illustration</text>
  <text x="52" y="434" text-anchor="start" font-family="Inter, Arial, sans-serif" font-size="30" font-weight="900" fill="#27376f">06</text>
  <text x="104" y="430" text-anchor="start" font-family="Inter, Arial, sans-serif" font-size="23" font-weight="900" fill="#27376f">RESTAURANT UNIVERSE</text>
  <text x="104" y="465" text-anchor="start" font-family="Georgia, Times New Roman, serif" font-size="30" font-weight="900" fill="#202637">Pujol, Cosme, Damian, ATLA</text>
  <g filter="url(#soft)"><circle cx="400" cy="220" r="96" fill="#27376f" opacity=".14"/><circle cx="400" cy="220" r="56" fill="#efc967"/><circle cx="310" cy="166" r="28" fill="#27376f"/><circle cx="498" cy="164" r="32" fill="#b85a45"/><circle cx="520" cy="278" r="24" fill="#27376f"/><circle cx="292" cy="282" r="22" fill="#b85a45"/><path d="M310 166C380 118 452 118 498 164M520 278C452 335 352 335 292 282" fill="none" stroke="#27376f" stroke-width="8" opacity=".45"/></g>
</svg>
