<svg xmlns="http://www.w3.org/2000/svg" viewBox="0 0 800 500" role="img" aria-labelledby="title desc">
  <title id="title">AI editorial illustration: Olvera’s wider influence</title>
  <desc id="desc">A generated editorial illustration summarizing Mentorship for the Atla source rail. This is not a social-media screenshot.</desc>
  
  <defs>
    <linearGradient id="bg" x1="0" y1="0" x2="1" y2="1"><stop offset="0" stop-color="#eff4f2"/><stop offset="1" stop-color="#ffffff"/></linearGradient>
    <linearGradient id="band" x1="0" y1="0" x2="1" y2="1"><stop offset="0" stop-color="#315d73"/><stop offset="1" stop-color="#b75f4b"/></linearGradient>
    <filter id="soft" x="-20%" y="-20%" width="140%" height="140%"><feDropShadow dx="0" dy="12" stdDeviation="12" flood-color="#1c2330" flood-opacity=".18"/></filter>
  </defs>
  <rect width="800" height="500" rx="42" fill="url(#bg)"/>
  <circle cx="92" cy="88" r="62" fill="#eac16b" opacity=".35"/>
  <circle cx="705" cy="78" r="38" fill="#b75f4b" opacity=".18"/>
  <path d="M40 398 C190 348 260 432 420 382 S640 314 760 376" fill="none" stroke="#315d73" stroke-opacity=".16" stroke-width="18" stroke-linecap="round"/>
  <rect x="48" y="42" width="208" height="34" rx="17" fill="#ffffff" opacity=".76"/>
  <text x="68" y="65" text-anchor="start" font-family="Inter, Arial, sans-serif" font-size="18" font-weight="900" fill="#315d73">AI editorial illustration</text>
  <text x="52" y="434" text-anchor="start" font-family="Inter, Arial, sans-serif" font-size="30" font-weight="900" fill="#315d73">50</text>
  <text x="104" y="430" text-anchor="start" font-family="Inter, Arial, sans-serif" font-size="23" font-weight="900" fill="#315d73">MENTORSHIP</text>
  <text x="104" y="465" text-anchor="start" font-family="Georgia, Times New Roman, serif" font-size="30" font-weight="900" fill="#202637">Olvera’s wider influence</text>
  <g filter="url(#soft)"><circle cx="400" cy="170" r="46" fill="#315d73"/><circle cx="302" cy="286" r="36" fill="#eac16b"/><circle cx="500" cy="286" r="36" fill="#b75f4b"/><path d="M374 204l-50 52M426 204l52 52M338 286h126" stroke="#fff" stroke-width="10" stroke-linecap="round" opacity=".9"/><circle cx="400" cy="170" r="16" fill="#eac16b"/></g>
</svg>
