<svg xmlns="http://www.w3.org/2000/svg" viewBox="0 0 800 500" role="img" aria-labelledby="title desc">
  <title id="title">AI editorial illustration: “ATLA is a cute Mexican spot”</title>
  <desc id="desc">A generated editorial illustration summarizing Memory post for the Atla source rail. This is not a social-media screenshot.</desc>
  
  <defs>
    <linearGradient id="bg" x1="0" y1="0" x2="1" y2="1"><stop offset="0" stop-color="#f7eff0"/><stop offset="1" stop-color="#ffffff"/></linearGradient>
    <linearGradient id="band" x1="0" y1="0" x2="1" y2="1"><stop offset="0" stop-color="#7a4a75"/><stop offset="1" stop-color="#c96155"/></linearGradient>
    <filter id="soft" x="-20%" y="-20%" width="140%" height="140%"><feDropShadow dx="0" dy="12" stdDeviation="12" flood-color="#1c2330" flood-opacity=".18"/></filter>
  </defs>
  <rect width="800" height="500" rx="42" fill="url(#bg)"/>
  <circle cx="100" cy="88" r="62" fill="#ebc06c" opacity=".35"/>
  <circle cx="705" cy="78" r="38" fill="#c96155" opacity=".18"/>
  <path d="M40 398 C190 348 260 432 420 382 S640 314 760 376" fill="none" stroke="#7a4a75" stroke-opacity=".16" stroke-width="18" stroke-linecap="round"/>
  <rect x="48" y="42" width="208" height="34" rx="17" fill="#ffffff" opacity=".76"/>
  <text x="68" y="65" text-anchor="start" font-family="Inter, Arial, sans-serif" font-size="18" font-weight="900" fill="#7a4a75">AI editorial illustration</text>
  <text x="52" y="434" text-anchor="start" font-family="Inter, Arial, sans-serif" font-size="30" font-weight="900" fill="#7a4a75">26</text>
  <text x="104" y="430" text-anchor="start" font-family="Inter, Arial, sans-serif" font-size="23" font-weight="900" fill="#7a4a75">MEMORY POST</text>
  <text x="104" y="465" text-anchor="start" font-family="Georgia, Times New Roman, serif" font-size="30" font-weight="900" fill="#202637">“ATLA is a cute Mexican spot”</text>
  <g filter="url(#soft)"><ellipse cx="400" cy="258" rx="144" ry="76" fill="#fff"/><ellipse cx="400" cy="258" rx="94" ry="48" fill="#ebc06c"/><circle cx="366" cy="244" r="24" fill="#c96155"/><circle cx="432" cy="268" r="18" fill="#7a4a75"/><path d="M502 154c46 48 54 102 8 160" fill="none" stroke="#7a4a75" stroke-width="12" stroke-linecap="round"/></g>
</svg>
