<svg xmlns="http://www.w3.org/2000/svg" viewBox="0 0 800 500" role="img" aria-labelledby="title desc">
  <title id="title">AI editorial illustration: Olvera and de Garay</title>
  <desc id="desc">A generated editorial illustration summarizing The people behind the turn for the Atla source rail. This is not a social-media screenshot.</desc>
  
  <defs>
    <linearGradient id="bg" x1="0" y1="0" x2="1" y2="1"><stop offset="0" stop-color="#f2f1e8"/><stop offset="1" stop-color="#ffffff"/></linearGradient>
    <linearGradient id="band" x1="0" y1="0" x2="1" y2="1"><stop offset="0" stop-color="#394f75"/><stop offset="1" stop-color="#b85e4d"/></linearGradient>
    <filter id="soft" x="-20%" y="-20%" width="140%" height="140%"><feDropShadow dx="0" dy="12" stdDeviation="12" flood-color="#1c2330" flood-opacity=".18"/></filter>
  </defs>
  <rect width="800" height="500" rx="42" fill="url(#bg)"/>
  <circle cx="100" cy="88" r="62" fill="#e9c36e" opacity=".35"/>
  <circle cx="705" cy="78" r="38" fill="#b85e4d" opacity=".18"/>
  <path d="M40 398 C190 348 260 432 420 382 S640 314 760 376" fill="none" stroke="#394f75" stroke-opacity=".16" stroke-width="18" stroke-linecap="round"/>
  <rect x="48" y="42" width="208" height="34" rx="17" fill="#ffffff" opacity=".76"/>
  <text x="68" y="65" text-anchor="start" font-family="Inter, Arial, sans-serif" font-size="18" font-weight="900" fill="#394f75">AI editorial illustration</text>
  <text x="52" y="434" text-anchor="start" font-family="Inter, Arial, sans-serif" font-size="30" font-weight="900" fill="#394f75">31</text>
  <text x="104" y="430" text-anchor="start" font-family="Inter, Arial, sans-serif" font-size="23" font-weight="900" fill="#394f75">THE PEOPLE BEHIND THE TURN</text>
  <text x="104" y="465" text-anchor="start" font-family="Georgia, Times New Roman, serif" font-size="30" font-weight="900" fill="#202637">Olvera and de Garay</text>
  <g filter="url(#soft)"><rect x="238" y="126" width="324" height="196" rx="24" fill="#fff"/><path d="M286 162h110v80H286zM432 162h82v116h-82z" fill="none" stroke="#394f75" stroke-width="10"/><path d="M300 298l198-148" stroke="#b85e4d" stroke-width="10" stroke-linecap="round"/><circle cx="315" cy="178" r="25" fill="#e9c36e"/><circle cx="496" cy="268" r="25" fill="#b85e4d" opacity=".7"/></g>
</svg>
