<svg xmlns="http://www.w3.org/2000/svg" viewBox="0 0 800 500" role="img" aria-labelledby="title desc">
  <title id="title">AI editorial illustration: The big chip was divisive</title>
  <desc id="desc">A generated editorial illustration summarizing Not unanimous for the Atla source rail. This is not a social-media screenshot.</desc>
  
  <defs>
    <linearGradient id="bg" x1="0" y1="0" x2="1" y2="1"><stop offset="0" stop-color="#f5eef3"/><stop offset="1" stop-color="#ffffff"/></linearGradient>
    <linearGradient id="band" x1="0" y1="0" x2="1" y2="1"><stop offset="0" stop-color="#6b3e7a"/><stop offset="1" stop-color="#c14f49"/></linearGradient>
    <filter id="soft" x="-20%" y="-20%" width="140%" height="140%"><feDropShadow dx="0" dy="12" stdDeviation="12" flood-color="#1c2330" flood-opacity=".18"/></filter>
  </defs>
  <rect width="800" height="500" rx="42" fill="url(#bg)"/>
  <circle cx="108" cy="88" r="62" fill="#edbe62" opacity=".35"/>
  <circle cx="705" cy="78" r="38" fill="#c14f49" opacity=".18"/>
  <path d="M40 398 C190 348 260 432 420 382 S640 314 760 376" fill="none" stroke="#6b3e7a" stroke-opacity=".16" stroke-width="18" stroke-linecap="round"/>
  <rect x="48" y="42" width="208" height="34" rx="17" fill="#ffffff" opacity=".76"/>
  <text x="68" y="65" text-anchor="start" font-family="Inter, Arial, sans-serif" font-size="18" font-weight="900" fill="#6b3e7a">AI editorial illustration</text>
  <text x="52" y="434" text-anchor="start" font-family="Inter, Arial, sans-serif" font-size="30" font-weight="900" fill="#6b3e7a">22</text>
  <text x="104" y="430" text-anchor="start" font-family="Inter, Arial, sans-serif" font-size="23" font-weight="900" fill="#6b3e7a">NOT UNANIMOUS</text>
  <text x="104" y="465" text-anchor="start" font-family="Georgia, Times New Roman, serif" font-size="30" font-weight="900" fill="#202637">The big chip was divisive</text>
  <g filter="url(#soft)"><path d="M282 150c86-48 220-18 248 78 30 104-84 142-176 112-74-24-122-104-72-190z" fill="#edbe62"/><path d="M386 158l-36 74 58-6-46 92" fill="none" stroke="#6b3e7a" stroke-width="14" stroke-linejoin="round"/><path d="M258 306c80-48 168-28 266 20" fill="none" stroke="#c14f49" stroke-width="12" stroke-linecap="round"/></g>
</svg>
