<svg xmlns="http://www.w3.org/2000/svg" viewBox="0 0 800 500" role="img" aria-labelledby="title desc">
  <title id="title">AI editorial illustration: What’s next from Olvera?</title>
  <desc id="desc">A generated editorial illustration summarizing Newswire feed for the Atla source rail. This is not a social-media screenshot.</desc>
  
  <defs>
    <linearGradient id="bg" x1="0" y1="0" x2="1" y2="1"><stop offset="0" stop-color="#edf2f7"/><stop offset="1" stop-color="#ffffff"/></linearGradient>
    <linearGradient id="band" x1="0" y1="0" x2="1" y2="1"><stop offset="0" stop-color="#24456f"/><stop offset="1" stop-color="#c2624b"/></linearGradient>
    <filter id="soft" x="-20%" y="-20%" width="140%" height="140%"><feDropShadow dx="0" dy="12" stdDeviation="12" flood-color="#1c2330" flood-opacity=".18"/></filter>
  </defs>
  <rect width="800" height="500" rx="42" fill="url(#bg)"/>
  <circle cx="116" cy="88" r="62" fill="#ecc66e" opacity=".35"/>
  <circle cx="705" cy="78" r="38" fill="#c2624b" opacity=".18"/>
  <path d="M40 398 C190 348 260 432 420 382 S640 314 760 376" fill="none" stroke="#24456f" stroke-opacity=".16" stroke-width="18" stroke-linecap="round"/>
  <rect x="48" y="42" width="208" height="34" rx="17" fill="#ffffff" opacity=".76"/>
  <text x="68" y="65" text-anchor="start" font-family="Inter, Arial, sans-serif" font-size="18" font-weight="900" fill="#24456f">AI editorial illustration</text>
  <text x="52" y="434" text-anchor="start" font-family="Inter, Arial, sans-serif" font-size="30" font-weight="900" fill="#24456f">28</text>
  <text x="104" y="430" text-anchor="start" font-family="Inter, Arial, sans-serif" font-size="23" font-weight="900" fill="#24456f">NEWSWIRE FEED</text>
  <text x="104" y="465" text-anchor="start" font-family="Georgia, Times New Roman, serif" font-size="30" font-weight="900" fill="#202637">What’s next from Olvera?</text>
  <g filter="url(#soft)"><path d="M230 290c72-100 144-118 216-54s128 46 176-26" fill="none" stroke="#24456f" stroke-width="18" stroke-linecap="round" opacity=".72"/><path d="M570 192l58 18-38 48" fill="none" stroke="#c2624b" stroke-width="16" stroke-linecap="round" stroke-linejoin="round"/><circle cx="286" cy="300" r="34" fill="#ecc66e"/><circle cx="456" cy="236" r="28" fill="#fff"/><path d="M236 334c80 26 170 26 268 0" stroke="#ecc66e" stroke-width="10" stroke-linecap="round" opacity=".8"/></g>
</svg>
