<svg xmlns="http://www.w3.org/2000/svg" viewBox="0 0 800 500" role="img" aria-labelledby="title desc">
  <title id="title">AI editorial illustration: 372 Lafayette Street</title>
  <desc id="desc">A generated editorial illustration summarizing Hard facts for the Atla source rail. This is not a social-media screenshot.</desc>
  
  <defs>
    <linearGradient id="bg" x1="0" y1="0" x2="1" y2="1"><stop offset="0" stop-color="#eff6f1"/><stop offset="1" stop-color="#ffffff"/></linearGradient>
    <linearGradient id="band" x1="0" y1="0" x2="1" y2="1"><stop offset="0" stop-color="#2e6662"/><stop offset="1" stop-color="#be5d48"/></linearGradient>
    <filter id="soft" x="-20%" y="-20%" width="140%" height="140%"><feDropShadow dx="0" dy="12" stdDeviation="12" flood-color="#1c2330" flood-opacity=".18"/></filter>
  </defs>
  <rect width="800" height="500" rx="42" fill="url(#bg)"/>
  <circle cx="108" cy="88" r="62" fill="#eac36a" opacity=".35"/>
  <circle cx="705" cy="78" r="38" fill="#be5d48" opacity=".18"/>
  <path d="M40 398 C190 348 260 432 420 382 S640 314 760 376" fill="none" stroke="#2e6662" stroke-opacity=".16" stroke-width="18" stroke-linecap="round"/>
  <rect x="48" y="42" width="208" height="34" rx="17" fill="#ffffff" opacity=".76"/>
  <text x="68" y="65" text-anchor="start" font-family="Inter, Arial, sans-serif" font-size="18" font-weight="900" fill="#2e6662">AI editorial illustration</text>
  <text x="52" y="434" text-anchor="start" font-family="Inter, Arial, sans-serif" font-size="30" font-weight="900" fill="#2e6662">07</text>
  <text x="104" y="430" text-anchor="start" font-family="Inter, Arial, sans-serif" font-size="23" font-weight="900" fill="#2e6662">HARD FACTS</text>
  <text x="104" y="465" text-anchor="start" font-family="Georgia, Times New Roman, serif" font-size="30" font-weight="900" fill="#202637">372 Lafayette Street</text>
  <g filter="url(#soft)"><rect x="238" y="118" width="324" height="198" rx="22" fill="#fff"/><path d="M286 126v184M366 126v184M446 126v184M526 126v184M246 176h308M246 246h308" stroke="#2e6662" stroke-width="8" opacity=".22"/><path d="M402 124c-42 0-76 32-76 72 0 52 76 118 76 118s76-66 76-118c0-40-34-72-76-72z" fill="#be5d48"/><circle cx="402" cy="196" r="29" fill="#eac36a"/></g>
</svg>
