<svg xmlns="http://www.w3.org/2000/svg" viewBox="0 0 800 500" role="img" aria-labelledby="title desc">
  <title id="title">AI editorial illustration: Breakfast had voltage</title>
  <desc id="desc">A generated editorial illustration summarizing Daylight review for the Atla source rail. This is not a social-media screenshot.</desc>
  
  <defs>
    <linearGradient id="bg" x1="0" y1="0" x2="1" y2="1"><stop offset="0" stop-color="#f2f0f7"/><stop offset="1" stop-color="#ffffff"/></linearGradient>
    <linearGradient id="band" x1="0" y1="0" x2="1" y2="1"><stop offset="0" stop-color="#3a4f8f"/><stop offset="1" stop-color="#ba514a"/></linearGradient>
    <filter id="soft" x="-20%" y="-20%" width="140%" height="140%"><feDropShadow dx="0" dy="12" stdDeviation="12" flood-color="#1c2330" flood-opacity=".18"/></filter>
  </defs>
  <rect width="800" height="500" rx="42" fill="url(#bg)"/>
  <circle cx="92" cy="88" r="62" fill="#eec267" opacity=".35"/>
  <circle cx="705" cy="78" r="38" fill="#ba514a" opacity=".18"/>
  <path d="M40 398 C190 348 260 432 420 382 S640 314 760 376" fill="none" stroke="#3a4f8f" stroke-opacity=".16" stroke-width="18" stroke-linecap="round"/>
  <rect x="48" y="42" width="208" height="34" rx="17" fill="#ffffff" opacity=".76"/>
  <text x="68" y="65" text-anchor="start" font-family="Inter, Arial, sans-serif" font-size="18" font-weight="900" fill="#3a4f8f">AI editorial illustration</text>
  <text x="52" y="434" text-anchor="start" font-family="Inter, Arial, sans-serif" font-size="30" font-weight="900" fill="#3a4f8f">15</text>
  <text x="104" y="430" text-anchor="start" font-family="Inter, Arial, sans-serif" font-size="23" font-weight="900" fill="#3a4f8f">DAYLIGHT REVIEW</text>
  <text x="104" y="465" text-anchor="start" font-family="Georgia, Times New Roman, serif" font-size="30" font-weight="900" fill="#202637">Breakfast had voltage</text>
  <g filter="url(#soft)"><rect x="264" y="112" width="250" height="220" rx="18" fill="#fff"/><path d="M310 160h154M310 198h134M310 236h98" stroke="#ffffff" stroke-width="8" stroke-linecap="round" opacity=".9"/><path d="M480 286l72 44" stroke="#ba514a" stroke-width="16" stroke-linecap="round"/><circle cx="486" cy="286" r="34" fill="#eec267"/><path d="M466 286h40" stroke="#3a4f8f" stroke-width="8"/></g>
</svg>
