<svg xmlns="http://www.w3.org/2000/svg" viewBox="0 0 800 500" role="img" aria-labelledby="title desc">
  <title id="title">AI editorial illustration: Minimal, convivial, bright</title>
  <desc id="desc">A generated editorial illustration summarizing NoHo details for the Atla source rail. This is not a social-media screenshot.</desc>
  
  <defs>
    <linearGradient id="bg" x1="0" y1="0" x2="1" y2="1"><stop offset="0" stop-color="#eef2f7"/><stop offset="1" stop-color="#ffffff"/></linearGradient>
    <linearGradient id="band" x1="0" y1="0" x2="1" y2="1"><stop offset="0" stop-color="#263a67"/><stop offset="1" stop-color="#b8574e"/></linearGradient>
    <filter id="soft" x="-20%" y="-20%" width="140%" height="140%"><feDropShadow dx="0" dy="12" stdDeviation="12" flood-color="#1c2330" flood-opacity=".18"/></filter>
  </defs>
  <rect width="800" height="500" rx="42" fill="url(#bg)"/>
  <circle cx="100" cy="88" r="62" fill="#eec86d" opacity=".35"/>
  <circle cx="705" cy="78" r="38" fill="#b8574e" opacity=".18"/>
  <path d="M40 398 C190 348 260 432 420 382 S640 314 760 376" fill="none" stroke="#263a67" stroke-opacity=".16" stroke-width="18" stroke-linecap="round"/>
  <rect x="48" y="42" width="208" height="34" rx="17" fill="#ffffff" opacity=".76"/>
  <text x="68" y="65" text-anchor="start" font-family="Inter, Arial, sans-serif" font-size="18" font-weight="900" fill="#263a67">AI editorial illustration</text>
  <text x="52" y="434" text-anchor="start" font-family="Inter, Arial, sans-serif" font-size="30" font-weight="900" fill="#263a67">11</text>
  <text x="104" y="430" text-anchor="start" font-family="Inter, Arial, sans-serif" font-size="23" font-weight="900" fill="#263a67">NOHO DETAILS</text>
  <text x="104" y="465" text-anchor="start" font-family="Georgia, Times New Roman, serif" font-size="30" font-weight="900" fill="#202637">Minimal, convivial, bright</text>
  <g filter="url(#soft)"><rect x="232" y="112" width="338" height="220" rx="24" fill="#fff"/><rect x="264" y="144" width="92" height="118" rx="10" fill="#263a67" opacity=".76"/><rect x="380" y="144" width="156" height="118" rx="10" fill="#b8574e" opacity=".38"/><ellipse cx="400" cy="306" rx="116" ry="18" fill="#eec86d"/><path d="M314 142v120M458 142v120" stroke="#fff" stroke-width="7" opacity=".6"/></g>
</svg>
