<svg xmlns="http://www.w3.org/2000/svg" viewBox="0 0 800 500" role="img" aria-labelledby="title desc">
  <title id="title">AI editorial illustration: Coffee as culinary identity</title>
  <desc id="desc">A generated editorial illustration summarizing Morning language for the Atla source rail. This is not a social-media screenshot.</desc>
  
  <defs>
    <linearGradient id="bg" x1="0" y1="0" x2="1" y2="1"><stop offset="0" stop-color="#f4efe4"/><stop offset="1" stop-color="#ffffff"/></linearGradient>
    <linearGradient id="band" x1="0" y1="0" x2="1" y2="1"><stop offset="0" stop-color="#2b5d6a"/><stop offset="1" stop-color="#a75545"/></linearGradient>
    <filter id="soft" x="-20%" y="-20%" width="140%" height="140%"><feDropShadow dx="0" dy="12" stdDeviation="12" flood-color="#1c2330" flood-opacity=".18"/></filter>
  </defs>
  <rect width="800" height="500" rx="42" fill="url(#bg)"/>
  <circle cx="124" cy="88" r="62" fill="#e7c06b" opacity=".35"/>
  <circle cx="705" cy="78" r="38" fill="#a75545" opacity=".18"/>
  <path d="M40 398 C190 348 260 432 420 382 S640 314 760 376" fill="none" stroke="#2b5d6a" stroke-opacity=".16" stroke-width="18" stroke-linecap="round"/>
  <rect x="48" y="42" width="208" height="34" rx="17" fill="#ffffff" opacity=".76"/>
  <text x="68" y="65" text-anchor="start" font-family="Inter, Arial, sans-serif" font-size="18" font-weight="900" fill="#2b5d6a">AI editorial illustration</text>
  <text x="52" y="434" text-anchor="start" font-family="Inter, Arial, sans-serif" font-size="30" font-weight="900" fill="#2b5d6a">14</text>
  <text x="104" y="430" text-anchor="start" font-family="Inter, Arial, sans-serif" font-size="23" font-weight="900" fill="#2b5d6a">MORNING LANGUAGE</text>
  <text x="104" y="465" text-anchor="start" font-family="Georgia, Times New Roman, serif" font-size="30" font-weight="900" fill="#202637">Coffee as culinary identity</text>
  <g filter="url(#soft)"><path d="M294 202h190v74a74 74 0 0 1-74 74h-42a74 74 0 0 1-74-74z" fill="#fff"/><path d="M484 220h32a38 38 0 0 1 0 76h-32" fill="none" stroke="#2b5d6a" stroke-width="14"/><path d="M344 156c-18-28 18-44 0-72M402 156c-18-28 18-44 0-72M460 156c-18-28 18-44 0-72" fill="none" stroke="#a75545" stroke-width="10" stroke-linecap="round"/><ellipse cx="389" cy="202" rx="95" ry="20" fill="#e7c06b"/></g>
</svg>
