<svg xmlns="http://www.w3.org/2000/svg" viewBox="0 0 800 500" role="img" aria-labelledby="title desc">
  <title id="title">AI editorial illustration: Quesadillas, huevos rancheros, aguas frescas</title>
  <desc id="desc">A generated editorial illustration summarizing Table memory for the Atla source rail. This is not a social-media screenshot.</desc>
  
  <defs>
    <linearGradient id="bg" x1="0" y1="0" x2="1" y2="1"><stop offset="0" stop-color="#f4f0e5"/><stop offset="1" stop-color="#ffffff"/></linearGradient>
    <linearGradient id="band" x1="0" y1="0" x2="1" y2="1"><stop offset="0" stop-color="#365d81"/><stop offset="1" stop-color="#c86e4f"/></linearGradient>
    <filter id="soft" x="-20%" y="-20%" width="140%" height="140%"><feDropShadow dx="0" dy="12" stdDeviation="12" flood-color="#1c2330" flood-opacity=".18"/></filter>
  </defs>
  <rect width="800" height="500" rx="42" fill="url(#bg)"/>
  <circle cx="108" cy="88" r="62" fill="#efc768" opacity=".35"/>
  <circle cx="705" cy="78" r="38" fill="#c86e4f" opacity=".18"/>
  <path d="M40 398 C190 348 260 432 420 382 S640 314 760 376" fill="none" stroke="#365d81" stroke-opacity=".16" stroke-width="18" stroke-linecap="round"/>
  <rect x="48" y="42" width="208" height="34" rx="17" fill="#ffffff" opacity=".76"/>
  <text x="68" y="65" text-anchor="start" font-family="Inter, Arial, sans-serif" font-size="18" font-weight="900" fill="#365d81">AI editorial illustration</text>
  <text x="52" y="434" text-anchor="start" font-family="Inter, Arial, sans-serif" font-size="30" font-weight="900" fill="#365d81">27</text>
  <text x="104" y="430" text-anchor="start" font-family="Inter, Arial, sans-serif" font-size="23" font-weight="900" fill="#365d81">TABLE MEMORY</text>
  <text x="104" y="465" text-anchor="start" font-family="Georgia, Times New Roman, serif" font-size="30" font-weight="900" fill="#202637">Quesadillas, huevos rancheros, aguas fres...</text>
  <g filter="url(#soft)"><circle cx="400" cy="244" r="112" fill="#fff"/><path d="M400 244 L500 194 A112 112 0 0 1 504 292z" fill="#efc768"/><path d="M400 244 L318 166 A112 112 0 0 1 500 194z" fill="#c86e4f" opacity=".8"/><path d="M400 244 L308 306 A112 112 0 0 1 318 166z" fill="#365d81" opacity=".74"/><circle cx="464" cy="250" r="16" fill="#fff" opacity=".8"/></g>
</svg>
