<svg xmlns="http://www.w3.org/2000/svg" viewBox="0 0 800 500" role="img" aria-labelledby="title desc">
  <title id="title">AI editorial illustration: Hyde Park → Mexico City → New York</title>
  <desc id="desc">A generated editorial illustration summarizing Training + trajectory for the Atla source rail. This is not a social-media screenshot.</desc>
  
  <defs>
    <linearGradient id="bg" x1="0" y1="0" x2="1" y2="1"><stop offset="0" stop-color="#f2f3eb"/><stop offset="1" stop-color="#ffffff"/></linearGradient>
    <linearGradient id="band" x1="0" y1="0" x2="1" y2="1"><stop offset="0" stop-color="#2c5e78"/><stop offset="1" stop-color="#b65448"/></linearGradient>
    <filter id="soft" x="-20%" y="-20%" width="140%" height="140%"><feDropShadow dx="0" dy="12" stdDeviation="12" flood-color="#1c2330" flood-opacity=".18"/></filter>
  </defs>
  <rect width="800" height="500" rx="42" fill="url(#bg)"/>
  <circle cx="124" cy="88" r="62" fill="#e8c067" opacity=".35"/>
  <circle cx="705" cy="78" r="38" fill="#b65448" opacity=".18"/>
  <path d="M40 398 C190 348 260 432 420 382 S640 314 760 376" fill="none" stroke="#2c5e78" stroke-opacity=".16" stroke-width="18" stroke-linecap="round"/>
  <rect x="48" y="42" width="208" height="34" rx="17" fill="#ffffff" opacity=".76"/>
  <text x="68" y="65" text-anchor="start" font-family="Inter, Arial, sans-serif" font-size="18" font-weight="900" fill="#2c5e78">AI editorial illustration</text>
  <text x="52" y="434" text-anchor="start" font-family="Inter, Arial, sans-serif" font-size="30" font-weight="900" fill="#2c5e78">29</text>
  <text x="104" y="430" text-anchor="start" font-family="Inter, Arial, sans-serif" font-size="23" font-weight="900" fill="#2c5e78">TRAINING + TRAJECTORY</text>
  <text x="104" y="465" text-anchor="start" font-family="Georgia, Times New Roman, serif" font-size="30" font-weight="900" fill="#202637">Hyde Park → Mexico City → New York</text>
  <g filter="url(#soft)"><rect x="260" y="118" width="280" height="204" rx="28" fill="#fff"/><path d="M304 276c50-122 142-122 190-18" fill="none" stroke="#2c5e78" stroke-width="14" stroke-linecap="round"/><circle cx="304" cy="276" r="26" fill="#e8c067"/><circle cx="398" cy="178" r="28" fill="#b65448"/><circle cx="494" cy="258" r="26" fill="#2c5e78"/><path d="M328 302h150" stroke="#e8c067" stroke-width="10" stroke-linecap="round"/></g>
</svg>
