<svg xmlns="http://www.w3.org/2000/svg" viewBox="0 0 800 500" role="img" aria-labelledby="title desc">
  <title id="title">AI editorial illustration: The space gets recast</title>
  <desc id="desc">A generated editorial illustration summarizing Second confirmation for the Atla source rail. This is not a social-media screenshot.</desc>
  
  <defs>
    <linearGradient id="bg" x1="0" y1="0" x2="1" y2="1"><stop offset="0" stop-color="#edf5f2"/><stop offset="1" stop-color="#ffffff"/></linearGradient>
    <linearGradient id="band" x1="0" y1="0" x2="1" y2="1"><stop offset="0" stop-color="#315d78"/><stop offset="1" stop-color="#c36a4c"/></linearGradient>
    <filter id="soft" x="-20%" y="-20%" width="140%" height="140%"><feDropShadow dx="0" dy="12" stdDeviation="12" flood-color="#1c2330" flood-opacity=".18"/></filter>
  </defs>
  <rect width="800" height="500" rx="42" fill="url(#bg)"/>
  <circle cx="92" cy="88" r="62" fill="#e8bf6a" opacity=".35"/>
  <circle cx="705" cy="78" r="38" fill="#c36a4c" opacity=".18"/>
  <path d="M40 398 C190 348 260 432 420 382 S640 314 760 376" fill="none" stroke="#315d78" stroke-opacity=".16" stroke-width="18" stroke-linecap="round"/>
  <rect x="48" y="42" width="208" height="34" rx="17" fill="#ffffff" opacity=".76"/>
  <text x="68" y="65" text-anchor="start" font-family="Inter, Arial, sans-serif" font-size="18" font-weight="900" fill="#315d78">AI editorial illustration</text>
  <text x="52" y="434" text-anchor="start" font-family="Inter, Arial, sans-serif" font-size="30" font-weight="900" fill="#315d78">05</text>
  <text x="104" y="430" text-anchor="start" font-family="Inter, Arial, sans-serif" font-size="23" font-weight="900" fill="#315d78">SECOND CONFIRMATION</text>
  <text x="104" y="465" text-anchor="start" font-family="Georgia, Times New Roman, serif" font-size="30" font-weight="900" fill="#202637">The space gets recast</text>
  <g filter="url(#soft)"><rect x="230" y="104" width="340" height="230" rx="18" fill="#fff"/><path d="M275 148h250v140H275zM398 148v140M275 216h250" fill="none" stroke="#315d78" stroke-width="10"/><path d="M310 314 L490 134" stroke="#c36a4c" stroke-width="9" stroke-linecap="round"/><circle cx="490" cy="134" r="20" fill="#e8bf6a"/></g>
</svg>
