<svg xmlns="http://www.w3.org/2000/svg" width="1200" height="760" viewBox="0 0 1200 760" role="img" aria-labelledby="title-05 desc-05">
<title id="title-05">Seven, then Oracle</title>
<desc id="desc-05">A public news timeline shows the seven-company post, analyst questions, and Oracle update. Editorial illustration only; not a social media screenshot.</desc>
<defs>
  <linearGradient id="bg-05" x1="0" y1="0" x2="1" y2="1"><stop offset="0" stop-color="#141725"/><stop offset="0.58" stop-color="#2e3558"/><stop offset="1" stop-color="#050914"/></linearGradient>
  <radialGradient id="glow-05" cx="66%" cy="32%" r="58%"><stop offset="0" stop-color="#a78bfa" stop-opacity="0.42"/><stop offset="1" stop-color="#a78bfa" stop-opacity="0"/></radialGradient>
  <pattern id="grid-05" width="52" height="52" patternUnits="userSpaceOnUse"><path d="M52 0H0V52" fill="none" stroke="#ffffff" stroke-opacity="0.055" stroke-width="2"/></pattern>
  <filter id="soft-05" x="-20%" y="-20%" width="140%" height="140%"><feDropShadow dx="0" dy="18" stdDeviation="18" flood-color="#000000" flood-opacity="0.32"/></filter>
</defs>
<rect width="1200" height="760" fill="url(#bg-05)"/>
<rect width="1200" height="760" fill="url(#glow-05)"/>
<rect width="1200" height="760" fill="url(#grid-05)"/>
<path d="M-80 620C130 515 242 638 422 518C605 396 704 412 844 302C973 201 1082 178 1280 242" fill="none" stroke="#ffffff" stroke-opacity="0.11" stroke-width="32"/>
<g filter="url(#soft-05)">
  <rect x="268" y="120" width="664" height="470" rx="42" fill="#08111f" fill-opacity="0.76" stroke="#a78bfa" stroke-width="6"/>
  <line x1="390" y1="190" x2="390" y2="515" stroke="#f4d35e" stroke-width="8" stroke-linecap="round"/>
  <g transform="translate(350 190)"><circle cx="40" cy="0" r="24" fill="#a78bfa"/><rect x="90" y="-30" width="390" height="60" rx="18" fill="#fff" fill-opacity="0.1"/><text x="112" y="7" font-family="Inter, Arial" font-size="23" font-weight="850" fill="#fff">Seven-company post</text></g>
<g transform="translate(350 282)"><circle cx="40" cy="0" r="24" fill="#a78bfa"/><rect x="90" y="-30" width="390" height="60" rx="18" fill="#fff" fill-opacity="0.1"/><text x="112" y="7" font-family="Inter, Arial" font-size="23" font-weight="850" fill="#fff">Reflection reply</text></g>
<g transform="translate(350 374)"><circle cx="40" cy="0" r="24" fill="#a78bfa"/><rect x="90" y="-30" width="390" height="60" rx="18" fill="#fff" fill-opacity="0.1"/><text x="112" y="7" font-family="Inter, Arial" font-size="23" font-weight="850" fill="#fff">Infrastructure question</text></g>
<g transform="translate(350 466)"><circle cx="40" cy="0" r="24" fill="#f4d35e"/><rect x="90" y="-30" width="390" height="60" rx="18" fill="#fff" fill-opacity="0.1"/><text x="112" y="7" font-family="Inter, Arial" font-size="23" font-weight="850" fill="#fff">Oracle update</text></g>
  <g><rect x="690" y="500" width="100" height="34" rx="17" fill="#ffffff" fill-opacity="0.12" stroke="#f4d35e" stroke-opacity="0.35"/><text x="704" y="523" font-family="Inter, Arial, sans-serif" font-size="15" font-weight="800" fill="#f4d35e">7 -&gt; 8</text></g>
</g>
<g transform="translate(72 610)">
  <rect x="0" y="0" width="760" height="92" rx="28" fill="#08111f" fill-opacity="0.74" stroke="#a78bfa" stroke-opacity="0.45" filter="url(#soft-05)"/>
  <text x="28" y="35" font-family="Inter, Arial, sans-serif" font-size="18" font-weight="900" fill="#a78bfa" text-anchor="start">PUBLIC TIMELINE</text>
  <text x="28" y="68" font-family="Georgia, serif" font-size="30" font-weight="850" fill="#f8fbff" text-anchor="start">Seven, then Oracle</text>
</g>
<g transform="translate(1018 624)">
  <circle cx="52" cy="52" r="52" fill="#ffffff" fill-opacity="0.11" stroke="#f4d35e" stroke-opacity="0.6"/>
  <text x="52" y="65" font-family="Georgia, serif" font-size="42" font-weight="900" fill="#ffffff" text-anchor="middle">05</text>
</g>
</svg>
