<svg xmlns="http://www.w3.org/2000/svg" width="1200" height="760" viewBox="0 0 1200 760" role="img" aria-labelledby="title-08 desc-08">
<title id="title-08">IL6 and IL7</title>
<desc id="desc-08">Two vault doors labeled IL6 and IL7 open into secured workflow corridors. Editorial illustration only; not a social media screenshot.</desc>
<defs>
  <linearGradient id="bg-08" x1="0" y1="0" x2="1" y2="1"><stop offset="0" stop-color="#101a2b"/><stop offset="0.58" stop-color="#284b63"/><stop offset="1" stop-color="#050914"/></linearGradient>
  <radialGradient id="glow-08" cx="66%" cy="32%" r="58%"><stop offset="0" stop-color="#5eead4" stop-opacity="0.42"/><stop offset="1" stop-color="#5eead4" stop-opacity="0"/></radialGradient>
  <pattern id="grid-08" width="52" height="52" patternUnits="userSpaceOnUse"><path d="M52 0H0V52" fill="none" stroke="#ffffff" stroke-opacity="0.055" stroke-width="2"/></pattern>
  <filter id="soft-08" x="-20%" y="-20%" width="140%" height="140%"><feDropShadow dx="0" dy="18" stdDeviation="18" flood-color="#000000" flood-opacity="0.32"/></filter>
</defs>
<rect width="1200" height="760" fill="url(#bg-08)"/>
<rect width="1200" height="760" fill="url(#glow-08)"/>
<rect width="1200" height="760" fill="url(#grid-08)"/>
<path d="M-80 620C130 515 242 638 422 518C605 396 704 412 844 302C973 201 1082 178 1280 242" fill="none" stroke="#ffffff" stroke-opacity="0.11" stroke-width="32"/>
<g filter="url(#soft-08)">
  <g transform="translate(300 150)"><rect x="0" y="0" width="250" height="380" rx="38" fill="#08111f" fill-opacity="0.82" stroke="#d8f3ff" stroke-width="8"/><circle cx="125" cy="188" r="82" fill="none" stroke="#fff" stroke-opacity="0.42" stroke-width="12"/><circle cx="125" cy="188" r="16" fill="#d8f3ff"/><path d="M125 106v164M43 188h164M67 130l116 116M183 130L67 246" stroke="#fff" stroke-opacity="0.28" stroke-width="7"/><text x="125" y="330" font-family="Inter, Arial" font-size="56" font-weight="900" fill="#fff" text-anchor="middle">IL6</text></g>
<g transform="translate(680 150)"><rect x="0" y="0" width="250" height="380" rx="38" fill="#08111f" fill-opacity="0.82" stroke="#5eead4" stroke-width="8"/><circle cx="125" cy="188" r="82" fill="none" stroke="#fff" stroke-opacity="0.42" stroke-width="12"/><circle cx="125" cy="188" r="16" fill="#5eead4"/><path d="M125 106v164M43 188h164M67 130l116 116M183 130L67 246" stroke="#fff" stroke-opacity="0.28" stroke-width="7"/><text x="125" y="330" font-family="Inter, Arial" font-size="56" font-weight="900" fill="#fff" text-anchor="middle">IL7</text></g>
  <path d="M550 335h130" stroke="#5eead4" stroke-width="12" stroke-linecap="round" stroke-dasharray="18 16"/>
  <text x="600" y="106" font-family="Inter, Arial" font-size="34" font-weight="900" fill="#f8fbff" text-anchor="middle">SECURED WORKFLOWS</text>
</g>
<g transform="translate(72 610)">
  <rect x="0" y="0" width="760" height="92" rx="28" fill="#08111f" fill-opacity="0.74" stroke="#5eead4" stroke-opacity="0.45" filter="url(#soft-08)"/>
  <text x="28" y="35" font-family="Inter, Arial, sans-serif" font-size="18" font-weight="900" fill="#5eead4" text-anchor="start">CLASSIFIED LEVELS</text>
  <text x="28" y="68" font-family="Georgia, serif" font-size="30" font-weight="850" fill="#f8fbff" text-anchor="start">IL6 and IL7</text>
</g>
<g transform="translate(1018 624)">
  <circle cx="52" cy="52" r="52" fill="#ffffff" fill-opacity="0.11" stroke="#d8f3ff" stroke-opacity="0.6"/>
  <text x="52" y="65" font-family="Georgia, serif" font-size="42" font-weight="900" fill="#ffffff" text-anchor="middle">08</text>
</g>
</svg>
