<svg xmlns="http://www.w3.org/2000/svg" width="1200" height="760" viewBox="0 0 1200 760" role="img" aria-labelledby="title-09 desc-09">
<title id="title-09">Warfighting, intelligence, enterprise</title>
<desc id="desc-09">Three illuminated lanes carry strategy icons toward the same command horizon. Editorial illustration only; not a social media screenshot.</desc>
<defs>
  <linearGradient id="bg-09" x1="0" y1="0" x2="1" y2="1"><stop offset="0" stop-color="#111827"/><stop offset="0.58" stop-color="#21345a"/><stop offset="1" stop-color="#050914"/></linearGradient>
  <radialGradient id="glow-09" cx="66%" cy="32%" r="58%"><stop offset="0" stop-color="#70c7ff" stop-opacity="0.42"/><stop offset="1" stop-color="#70c7ff" stop-opacity="0"/></radialGradient>
  <pattern id="grid-09" width="52" height="52" patternUnits="userSpaceOnUse"><path d="M52 0H0V52" fill="none" stroke="#ffffff" stroke-opacity="0.055" stroke-width="2"/></pattern>
  <filter id="soft-09" x="-20%" y="-20%" width="140%" height="140%"><feDropShadow dx="0" dy="18" stdDeviation="18" flood-color="#000000" flood-opacity="0.32"/></filter>
</defs>
<rect width="1200" height="760" fill="url(#bg-09)"/>
<rect width="1200" height="760" fill="url(#glow-09)"/>
<rect width="1200" height="760" fill="url(#grid-09)"/>
<path d="M-80 620C130 515 242 638 422 518C605 396 704 412 844 302C973 201 1082 178 1280 242" fill="none" stroke="#ffffff" stroke-opacity="0.11" stroke-width="32"/>
<g filter="url(#soft-09)">
  <g transform="translate(225 150)"><rect x="0" y="0" width="210" height="370" rx="32" fill="#fff" fill-opacity="0.1" stroke="#70c7ff" stroke-width="5"/><path d="M105 80v240" stroke="#70c7ff" stroke-width="10" stroke-linecap="round"/><circle cx="105" cy="95" r="48" fill="#08111f" stroke="#fff" stroke-opacity="0.35" stroke-width="4"/><text x="105" y="106" font-family="Inter, Arial" font-size="28" font-weight="900" fill="#fff" text-anchor="middle">1</text><text x="105" y="330" font-family="Inter, Arial" font-size="23" font-weight="850" fill="#fff" text-anchor="middle">Warfighting</text></g>
<g transform="translate(485 150)"><rect x="0" y="0" width="210" height="370" rx="32" fill="#fff" fill-opacity="0.1" stroke="#f0c66b" stroke-width="5"/><path d="M105 80v240" stroke="#f0c66b" stroke-width="10" stroke-linecap="round"/><circle cx="105" cy="95" r="48" fill="#08111f" stroke="#fff" stroke-opacity="0.35" stroke-width="4"/><text x="105" y="106" font-family="Inter, Arial" font-size="28" font-weight="900" fill="#fff" text-anchor="middle">2</text><text x="105" y="330" font-family="Inter, Arial" font-size="23" font-weight="850" fill="#fff" text-anchor="middle">Intelligence</text></g>
<g transform="translate(745 150)"><rect x="0" y="0" width="210" height="370" rx="32" fill="#fff" fill-opacity="0.1" stroke="#70c7ff" stroke-width="5"/><path d="M105 80v240" stroke="#70c7ff" stroke-width="10" stroke-linecap="round"/><circle cx="105" cy="95" r="48" fill="#08111f" stroke="#fff" stroke-opacity="0.35" stroke-width="4"/><text x="105" y="106" font-family="Inter, Arial" font-size="28" font-weight="900" fill="#fff" text-anchor="middle">3</text><text x="105" y="330" font-family="Inter, Arial" font-size="23" font-weight="850" fill="#fff" text-anchor="middle">Enterprise</text></g>
  <path d="M242 555C395 475 735 475 958 555" fill="none" stroke="#f0c66b" stroke-width="8" stroke-linecap="round"/>
</g>
<g transform="translate(72 610)">
  <rect x="0" y="0" width="760" height="92" rx="28" fill="#08111f" fill-opacity="0.74" stroke="#70c7ff" stroke-opacity="0.45" filter="url(#soft-09)"/>
  <text x="28" y="35" font-family="Inter, Arial, sans-serif" font-size="18" font-weight="900" fill="#70c7ff" text-anchor="start">THREE LANES</text>
  <text x="28" y="68" font-family="Georgia, serif" font-size="30" font-weight="850" fill="#f8fbff" text-anchor="start">Warfighting, intelligence, enterprise</text>
</g>
<g transform="translate(1018 624)">
  <circle cx="52" cy="52" r="52" fill="#ffffff" fill-opacity="0.11" stroke="#f0c66b" stroke-opacity="0.6"/>
  <text x="52" y="65" font-family="Georgia, serif" font-size="42" font-weight="900" fill="#ffffff" text-anchor="middle">09</text>
</g>
</svg>
