<svg xmlns="http://www.w3.org/2000/svg" width="1200" height="760" viewBox="0 0 1200 760" role="img" aria-labelledby="title-27 desc-27">
<title id="title-27">Tens of billions</title>
<desc id="desc-27">A defense budget ledger routes funding into AI, drones, intelligence, and networks. Editorial illustration only; not a social media screenshot.</desc>
<defs>
  <linearGradient id="bg-27" x1="0" y1="0" x2="1" y2="1"><stop offset="0" stop-color="#101927"/><stop offset="0.58" stop-color="#273c48"/><stop offset="1" stop-color="#050914"/></linearGradient>
  <radialGradient id="glow-27" cx="66%" cy="32%" r="58%"><stop offset="0" stop-color="#ffb454" stop-opacity="0.42"/><stop offset="1" stop-color="#ffb454" stop-opacity="0"/></radialGradient>
  <pattern id="grid-27" width="52" height="52" patternUnits="userSpaceOnUse"><path d="M52 0H0V52" fill="none" stroke="#ffffff" stroke-opacity="0.055" stroke-width="2"/></pattern>
  <filter id="soft-27" x="-20%" y="-20%" width="140%" height="140%"><feDropShadow dx="0" dy="18" stdDeviation="18" flood-color="#000000" flood-opacity="0.32"/></filter>
</defs>
<rect width="1200" height="760" fill="url(#bg-27)"/>
<rect width="1200" height="760" fill="url(#glow-27)"/>
<rect width="1200" height="760" fill="url(#grid-27)"/>
<path d="M-80 620C130 515 242 638 422 518C605 396 704 412 844 302C973 201 1082 178 1280 242" fill="none" stroke="#ffffff" stroke-opacity="0.11" stroke-width="32"/>
<g filter="url(#soft-27)">
  <rect x="250" y="130" width="700" height="440" rx="34" fill="#08111f" fill-opacity="0.78" stroke="#ffb454" stroke-width="6"/>
  <g transform="translate(330 215)"><text x="0" y="18" font-family="Inter, Arial" font-size="22" font-weight="900" fill="#fff">AI</text><rect x="150" y="-10" width="180" height="32" rx="16" fill="#ffb454" fill-opacity="0.62"/></g>
<g transform="translate(330 289)"><text x="0" y="18" font-family="Inter, Arial" font-size="22" font-weight="900" fill="#fff">DRONES</text><rect x="150" y="-10" width="258" height="32" rx="16" fill="#91e6c7" fill-opacity="0.62"/></g>
<g transform="translate(330 363)"><text x="0" y="18" font-family="Inter, Arial" font-size="22" font-weight="900" fill="#fff">INTEL</text><rect x="150" y="-10" width="336" height="32" rx="16" fill="#ffb454" fill-opacity="0.62"/></g>
<g transform="translate(330 437)"><text x="0" y="18" font-family="Inter, Arial" font-size="22" font-weight="900" fill="#fff">NETWORKS</text><rect x="150" y="-10" width="414" height="32" rx="16" fill="#91e6c7" fill-opacity="0.62"/></g>
  <text x="774" y="212" font-family="Georgia, serif" font-size="72" font-weight="900" fill="#fff" text-anchor="middle">$B</text>
  <g><rect x="370" y="500" width="208" height="34" rx="17" fill="#ffffff" fill-opacity="0.12" stroke="#91e6c7" stroke-opacity="0.35"/><text x="384" y="523" font-family="Inter, Arial, sans-serif" font-size="15" font-weight="800" fill="#91e6c7">budget politics</text></g>
</g>
<g transform="translate(72 610)">
  <rect x="0" y="0" width="760" height="92" rx="28" fill="#08111f" fill-opacity="0.74" stroke="#ffb454" stroke-opacity="0.45" filter="url(#soft-27)"/>
  <text x="28" y="35" font-family="Inter, Arial, sans-serif" font-size="18" font-weight="900" fill="#ffb454" text-anchor="start">BUDGET STAKES</text>
  <text x="28" y="68" font-family="Georgia, serif" font-size="30" font-weight="850" fill="#f8fbff" text-anchor="start">Tens of billions</text>
</g>
<g transform="translate(1018 624)">
  <circle cx="52" cy="52" r="52" fill="#ffffff" fill-opacity="0.11" stroke="#91e6c7" stroke-opacity="0.6"/>
  <text x="52" y="65" font-family="Georgia, serif" font-size="42" font-weight="900" fill="#ffffff" text-anchor="middle">27</text>
</g>
</svg>
