<svg xmlns="http://www.w3.org/2000/svg" width="1200" height="760" viewBox="0 0 1200 760" role="img" aria-labelledby="title-32 desc-32">
<title id="title-32">Official, legal, news, social</title>
<desc id="desc-32">A source ledger separates official releases, legal filings, news reports, and social posts. Editorial illustration only; not a social media screenshot.</desc>
<defs>
  <linearGradient id="bg-32" x1="0" y1="0" x2="1" y2="1"><stop offset="0" stop-color="#101a2b"/><stop offset="0.58" stop-color="#284b63"/><stop offset="1" stop-color="#050914"/></linearGradient>
  <radialGradient id="glow-32" cx="66%" cy="32%" r="58%"><stop offset="0" stop-color="#5eead4" stop-opacity="0.42"/><stop offset="1" stop-color="#5eead4" stop-opacity="0"/></radialGradient>
  <pattern id="grid-32" width="52" height="52" patternUnits="userSpaceOnUse"><path d="M52 0H0V52" fill="none" stroke="#ffffff" stroke-opacity="0.055" stroke-width="2"/></pattern>
  <filter id="soft-32" x="-20%" y="-20%" width="140%" height="140%"><feDropShadow dx="0" dy="18" stdDeviation="18" flood-color="#000000" flood-opacity="0.32"/></filter>
</defs>
<rect width="1200" height="760" fill="url(#bg-32)"/>
<rect width="1200" height="760" fill="url(#glow-32)"/>
<rect width="1200" height="760" fill="url(#grid-32)"/>
<path d="M-80 620C130 515 242 638 422 518C605 396 704 412 844 302C973 201 1082 178 1280 242" fill="none" stroke="#ffffff" stroke-opacity="0.11" stroke-width="32"/>
<g filter="url(#soft-32)">
  <rect x="250" y="132" width="700" height="430" rx="34" fill="#f8fbff" fill-opacity="0.92" stroke="#5eead4" stroke-width="6"/>
  <g transform="translate(300 180)"><rect x="0" y="0" width="126" height="54" rx="17" fill="#5eead4" fill-opacity="0.25" stroke="#5eead4" stroke-width="4"/><text x="63" y="35" font-family="Inter, Arial" font-size="16" font-weight="900" fill="#172033" text-anchor="middle">OFFICIAL</text></g>
<g transform="translate(455 180)"><rect x="0" y="0" width="126" height="54" rx="17" fill="#d8f3ff" fill-opacity="0.25" stroke="#d8f3ff" stroke-width="4"/><text x="63" y="35" font-family="Inter, Arial" font-size="16" font-weight="900" fill="#172033" text-anchor="middle">LEGAL</text></g>
<g transform="translate(610 180)"><rect x="0" y="0" width="126" height="54" rx="17" fill="#5eead4" fill-opacity="0.25" stroke="#5eead4" stroke-width="4"/><text x="63" y="35" font-family="Inter, Arial" font-size="16" font-weight="900" fill="#172033" text-anchor="middle">NEWS</text></g>
<g transform="translate(765 180)"><rect x="0" y="0" width="126" height="54" rx="17" fill="#d8f3ff" fill-opacity="0.25" stroke="#d8f3ff" stroke-width="4"/><text x="63" y="35" font-family="Inter, Arial" font-size="16" font-weight="900" fill="#172033" text-anchor="middle">SOCIAL</text></g>
  <g transform="translate(325 280)"><circle cx="0" cy="0" r="7" fill="#5eead4"/><path d="M22 0h430" stroke="#172033" stroke-opacity="0.36" stroke-width="6" stroke-linecap="round"/></g>
<g transform="translate(325 308)"><circle cx="0" cy="0" r="7" fill="#d8f3ff"/><path d="M22 0h430" stroke="#172033" stroke-opacity="0.33999999999999997" stroke-width="6" stroke-linecap="round"/></g>
<g transform="translate(325 336)"><circle cx="0" cy="0" r="7" fill="#5eead4"/><path d="M22 0h430" stroke="#172033" stroke-opacity="0.32" stroke-width="6" stroke-linecap="round"/></g>
<g transform="translate(325 364)"><circle cx="0" cy="0" r="7" fill="#d8f3ff"/><path d="M22 0h430" stroke="#172033" stroke-opacity="0.3" stroke-width="6" stroke-linecap="round"/></g>
<g transform="translate(325 392)"><circle cx="0" cy="0" r="7" fill="#5eead4"/><path d="M22 0h430" stroke="#172033" stroke-opacity="0.27999999999999997" stroke-width="6" stroke-linecap="round"/></g>
<g transform="translate(325 420)"><circle cx="0" cy="0" r="7" fill="#d8f3ff"/><path d="M22 0h430" stroke="#172033" stroke-opacity="0.26" stroke-width="6" stroke-linecap="round"/></g>
<g transform="translate(325 448)"><circle cx="0" cy="0" r="7" fill="#5eead4"/><path d="M22 0h430" stroke="#172033" stroke-opacity="0.24" stroke-width="6" stroke-linecap="round"/></g>
<g transform="translate(325 476)"><circle cx="0" cy="0" r="7" fill="#d8f3ff"/><path d="M22 0h430" stroke="#172033" stroke-opacity="0.21999999999999997" stroke-width="6" stroke-linecap="round"/></g>
  <text x="818" y="468" font-family="Georgia, serif" font-size="72" font-weight="900" fill="#172033" text-anchor="middle">39</text>
  <g><rect x="640" y="500" width="196" height="34" rx="17" fill="#ffffff" fill-opacity="0.12" stroke="#5eead4" stroke-opacity="0.35"/><text x="654" y="523" font-family="Inter, Arial, sans-serif" font-size="15" font-weight="800" fill="#5eead4">linked sources</text></g>
</g>
<g transform="translate(72 610)">
  <rect x="0" y="0" width="760" height="92" rx="28" fill="#08111f" fill-opacity="0.74" stroke="#5eead4" stroke-opacity="0.45" filter="url(#soft-32)"/>
  <text x="28" y="35" font-family="Inter, Arial, sans-serif" font-size="18" font-weight="900" fill="#5eead4" text-anchor="start">SOURCE LEDGER</text>
  <text x="28" y="68" font-family="Georgia, serif" font-size="30" font-weight="850" fill="#f8fbff" text-anchor="start">Official, legal, news, social</text>
</g>
<g transform="translate(1018 624)">
  <circle cx="52" cy="52" r="52" fill="#ffffff" fill-opacity="0.11" stroke="#d8f3ff" stroke-opacity="0.6"/>
  <text x="52" y="65" font-family="Georgia, serif" font-size="42" font-weight="900" fill="#ffffff" text-anchor="middle">32</text>
</g>
</svg>
