<svg xmlns="http://www.w3.org/2000/svg" width="1200" height="760" viewBox="0 0 1200 760" role="img" aria-labelledby="title-26 desc-26">
<title id="title-26">Chips, servers, power</title>
<desc id="desc-26">Physical AI infrastructure links chips, server racks, circuit boards, and power towers. Editorial illustration only; not a social media screenshot.</desc>
<defs>
  <linearGradient id="bg-26" x1="0" y1="0" x2="1" y2="1"><stop offset="0" stop-color="#172033"/><stop offset="0.58" stop-color="#3a2d65"/><stop offset="1" stop-color="#050914"/></linearGradient>
  <radialGradient id="glow-26" cx="66%" cy="32%" r="58%"><stop offset="0" stop-color="#f05f7d" stop-opacity="0.42"/><stop offset="1" stop-color="#f05f7d" stop-opacity="0"/></radialGradient>
  <pattern id="grid-26" width="52" height="52" patternUnits="userSpaceOnUse"><path d="M52 0H0V52" fill="none" stroke="#ffffff" stroke-opacity="0.055" stroke-width="2"/></pattern>
  <filter id="soft-26" x="-20%" y="-20%" width="140%" height="140%"><feDropShadow dx="0" dy="18" stdDeviation="18" flood-color="#000000" flood-opacity="0.32"/></filter>
</defs>
<rect width="1200" height="760" fill="url(#bg-26)"/>
<rect width="1200" height="760" fill="url(#glow-26)"/>
<rect width="1200" height="760" fill="url(#grid-26)"/>
<path d="M-80 620C130 515 242 638 422 518C605 396 704 412 844 302C973 201 1082 178 1280 242" fill="none" stroke="#ffffff" stroke-opacity="0.11" stroke-width="32"/>
<g filter="url(#soft-26)">
  <rect x="230" y="205" width="220" height="220" rx="26" fill="#08111f" fill-opacity="0.78" stroke="#f05f7d" stroke-width="6"/>
  <line x1="250" y1="185" x2="250" y2="205" stroke="#ffd166" stroke-width="5"/><line x1="250" y1="425" x2="250" y2="445" stroke="#ffd166" stroke-width="5"/>
<line x1="280" y1="185" x2="280" y2="205" stroke="#ffd166" stroke-width="5"/><line x1="280" y1="425" x2="280" y2="445" stroke="#ffd166" stroke-width="5"/>
<line x1="310" y1="185" x2="310" y2="205" stroke="#ffd166" stroke-width="5"/><line x1="310" y1="425" x2="310" y2="445" stroke="#ffd166" stroke-width="5"/>
<line x1="340" y1="185" x2="340" y2="205" stroke="#ffd166" stroke-width="5"/><line x1="340" y1="425" x2="340" y2="445" stroke="#ffd166" stroke-width="5"/>
<line x1="370" y1="185" x2="370" y2="205" stroke="#ffd166" stroke-width="5"/><line x1="370" y1="425" x2="370" y2="445" stroke="#ffd166" stroke-width="5"/>
<line x1="400" y1="185" x2="400" y2="205" stroke="#ffd166" stroke-width="5"/><line x1="400" y1="425" x2="400" y2="445" stroke="#ffd166" stroke-width="5"/>
<line x1="430" y1="185" x2="430" y2="205" stroke="#ffd166" stroke-width="5"/><line x1="430" y1="425" x2="430" y2="445" stroke="#ffd166" stroke-width="5"/>
  <rect x="292" y="267" width="96" height="96" rx="16" fill="#ffd166" fill-opacity="0.22" stroke="#ffd166" stroke-width="5"/>
  <rect x="530" y="170" width="72" height="330" rx="18" fill="#08111f" fill-opacity="0.78" stroke="#f05f7d" stroke-width="5"/><path d="M548 220h36M548 286h36M548 352h36M548 418h36" stroke="#fff" stroke-opacity="0.35" stroke-width="6"/>
<rect x="615" y="170" width="72" height="330" rx="18" fill="#08111f" fill-opacity="0.78" stroke="#ffd166" stroke-width="5"/><path d="M633 220h36M633 286h36M633 352h36M633 418h36" stroke="#fff" stroke-opacity="0.35" stroke-width="6"/>
<rect x="700" y="170" width="72" height="330" rx="18" fill="#08111f" fill-opacity="0.78" stroke="#f05f7d" stroke-width="5"/><path d="M718 220h36M718 286h36M718 352h36M718 418h36" stroke="#fff" stroke-opacity="0.35" stroke-width="6"/>
  <path d="M890 500l75-300 75 300M925 355h80M905 420h120" stroke="#ffd166" stroke-width="10" stroke-linecap="round" fill="none"/>
  <g><rect x="240" y="480" width="88" height="34" rx="17" fill="#ffffff" fill-opacity="0.12" stroke="#f05f7d" stroke-opacity="0.35"/><text x="254" y="503" font-family="Inter, Arial, sans-serif" font-size="15" font-weight="800" fill="#f05f7d">chips</text></g>
<g><rect x="240" y="524" width="112" height="34" rx="17" fill="#ffffff" fill-opacity="0.12" stroke="#ffd166" stroke-opacity="0.35"/><text x="254" y="547" font-family="Inter, Arial, sans-serif" font-size="15" font-weight="800" fill="#ffd166">servers</text></g>
<g><rect x="240" y="568" width="88" height="34" rx="17" fill="#ffffff" fill-opacity="0.12" stroke="#f05f7d" stroke-opacity="0.35"/><text x="254" y="591" font-family="Inter, Arial, sans-serif" font-size="15" font-weight="800" fill="#f05f7d">power</text></g>
</g>
<g transform="translate(72 610)">
  <rect x="0" y="0" width="760" height="92" rx="28" fill="#08111f" fill-opacity="0.74" stroke="#f05f7d" stroke-opacity="0.45" filter="url(#soft-26)"/>
  <text x="28" y="35" font-family="Inter, Arial, sans-serif" font-size="18" font-weight="900" fill="#f05f7d" text-anchor="start">INFRASTRUCTURE</text>
  <text x="28" y="68" font-family="Georgia, serif" font-size="30" font-weight="850" fill="#f8fbff" text-anchor="start">Chips, servers, power</text>
</g>
<g transform="translate(1018 624)">
  <circle cx="52" cy="52" r="52" fill="#ffffff" fill-opacity="0.11" stroke="#ffd166" stroke-opacity="0.6"/>
  <text x="52" y="65" font-family="Georgia, serif" font-size="42" font-weight="900" fill="#ffffff" text-anchor="middle">26</text>
</g>
</svg>
