<svg xmlns="http://www.w3.org/2000/svg" width="1200" height="760" viewBox="0 0 1200 760" role="img" aria-labelledby="title-20 desc-20">
<title id="title-20">Govern, map, measure, manage</title>
<desc id="desc-20">Four risk-management pillars lock together into an AI oversight frame. Editorial illustration only; not a social media screenshot.</desc>
<defs>
  <linearGradient id="bg-20" x1="0" y1="0" x2="1" y2="1"><stop offset="0" stop-color="#121726"/><stop offset="0.58" stop-color="#243f5f"/><stop offset="1" stop-color="#050914"/></linearGradient>
  <radialGradient id="glow-20" cx="66%" cy="32%" r="58%"><stop offset="0" stop-color="#f36f45" stop-opacity="0.42"/><stop offset="1" stop-color="#f36f45" stop-opacity="0"/></radialGradient>
  <pattern id="grid-20" width="52" height="52" patternUnits="userSpaceOnUse"><path d="M52 0H0V52" fill="none" stroke="#ffffff" stroke-opacity="0.055" stroke-width="2"/></pattern>
  <filter id="soft-20" x="-20%" y="-20%" width="140%" height="140%"><feDropShadow dx="0" dy="18" stdDeviation="18" flood-color="#000000" flood-opacity="0.32"/></filter>
</defs>
<rect width="1200" height="760" fill="url(#bg-20)"/>
<rect width="1200" height="760" fill="url(#glow-20)"/>
<rect width="1200" height="760" fill="url(#grid-20)"/>
<path d="M-80 620C130 515 242 638 422 518C605 396 704 412 844 302C973 201 1082 178 1280 242" fill="none" stroke="#ffffff" stroke-opacity="0.11" stroke-width="32"/>
<g filter="url(#soft-20)">
  <g transform="translate(210 185)"><rect x="0" y="0" width="165" height="300" rx="28" fill="#08111f" fill-opacity="0.78" stroke="#f36f45" stroke-width="6"/><circle cx="82" cy="92" r="44" fill="#f36f45" fill-opacity="0.28"/><text x="82" y="103" font-family="Inter, Arial" font-size="32" font-weight="900" fill="#fff" text-anchor="middle">1</text><text x="82" y="226" font-family="Inter, Arial" font-size="20" font-weight="900" fill="#fff" text-anchor="middle">GOVERN</text></g>
<g transform="translate(415 185)"><rect x="0" y="0" width="165" height="300" rx="28" fill="#08111f" fill-opacity="0.78" stroke="#87d8ff" stroke-width="6"/><circle cx="82" cy="92" r="44" fill="#87d8ff" fill-opacity="0.28"/><text x="82" y="103" font-family="Inter, Arial" font-size="32" font-weight="900" fill="#fff" text-anchor="middle">2</text><text x="82" y="226" font-family="Inter, Arial" font-size="20" font-weight="900" fill="#fff" text-anchor="middle">MAP</text></g>
<g transform="translate(620 185)"><rect x="0" y="0" width="165" height="300" rx="28" fill="#08111f" fill-opacity="0.78" stroke="#f36f45" stroke-width="6"/><circle cx="82" cy="92" r="44" fill="#f36f45" fill-opacity="0.28"/><text x="82" y="103" font-family="Inter, Arial" font-size="32" font-weight="900" fill="#fff" text-anchor="middle">3</text><text x="82" y="226" font-family="Inter, Arial" font-size="20" font-weight="900" fill="#fff" text-anchor="middle">MEASURE</text></g>
<g transform="translate(825 185)"><rect x="0" y="0" width="165" height="300" rx="28" fill="#08111f" fill-opacity="0.78" stroke="#87d8ff" stroke-width="6"/><circle cx="82" cy="92" r="44" fill="#87d8ff" fill-opacity="0.28"/><text x="82" y="103" font-family="Inter, Arial" font-size="32" font-weight="900" fill="#fff" text-anchor="middle">4</text><text x="82" y="226" font-family="Inter, Arial" font-size="20" font-weight="900" fill="#fff" text-anchor="middle">MANAGE</text></g>
  <path d="M292 520h615" stroke="#87d8ff" stroke-width="10" stroke-linecap="round"/>
</g>
<g transform="translate(72 610)">
  <rect x="0" y="0" width="760" height="92" rx="28" fill="#08111f" fill-opacity="0.74" stroke="#f36f45" stroke-opacity="0.45" filter="url(#soft-20)"/>
  <text x="28" y="35" font-family="Inter, Arial, sans-serif" font-size="18" font-weight="900" fill="#f36f45" text-anchor="start">AI RMF</text>
  <text x="28" y="68" font-family="Georgia, serif" font-size="30" font-weight="850" fill="#f8fbff" text-anchor="start">Govern, map, measure, manage</text>
</g>
<g transform="translate(1018 624)">
  <circle cx="52" cy="52" r="52" fill="#ffffff" fill-opacity="0.11" stroke="#87d8ff" stroke-opacity="0.6"/>
  <text x="52" y="65" font-family="Georgia, serif" font-size="42" font-weight="900" fill="#ffffff" text-anchor="middle">20</text>
</g>
</svg>
