<svg xmlns="http://www.w3.org/2000/svg" width="1200" height="760" viewBox="0 0 1200 760" role="img" aria-labelledby="title-10 desc-10">
<title id="title-10">Custom AI assistants</title>
<desc id="desc-10">A no-code agent builder links prompt, tool, review, and output nodes. Editorial illustration only; not a social media screenshot.</desc>
<defs>
  <linearGradient id="bg-10" x1="0" y1="0" x2="1" y2="1"><stop offset="0" stop-color="#172033"/><stop offset="0.58" stop-color="#3a2d65"/><stop offset="1" stop-color="#050914"/></linearGradient>
  <radialGradient id="glow-10" cx="66%" cy="32%" r="58%"><stop offset="0" stop-color="#f05f7d" stop-opacity="0.42"/><stop offset="1" stop-color="#f05f7d" stop-opacity="0"/></radialGradient>
  <pattern id="grid-10" width="52" height="52" patternUnits="userSpaceOnUse"><path d="M52 0H0V52" fill="none" stroke="#ffffff" stroke-opacity="0.055" stroke-width="2"/></pattern>
  <filter id="soft-10" x="-20%" y="-20%" width="140%" height="140%"><feDropShadow dx="0" dy="18" stdDeviation="18" flood-color="#000000" flood-opacity="0.32"/></filter>
</defs>
<rect width="1200" height="760" fill="url(#bg-10)"/>
<rect width="1200" height="760" fill="url(#glow-10)"/>
<rect width="1200" height="760" fill="url(#grid-10)"/>
<path d="M-80 620C130 515 242 638 422 518C605 396 704 412 844 302C973 201 1082 178 1280 242" fill="none" stroke="#ffffff" stroke-opacity="0.11" stroke-width="32"/>
<g filter="url(#soft-10)">
  <rect x="210" y="140" width="780" height="430" rx="40" fill="#08111f" fill-opacity="0.75" stroke="#f05f7d" stroke-width="6"/>
  <g><rect x="224" y="217" width="152" height="76" rx="22" fill="#f05f7d" fill-opacity="0.2" stroke="#f05f7d" stroke-width="5"/><text x="300" y="263" font-family="Inter, Arial" font-size="24" font-weight="900" fill="#fff" text-anchor="middle">Prompt</text></g>
<g><rect x="444" y="172" width="152" height="76" rx="22" fill="#f05f7d" fill-opacity="0.2" stroke="#f05f7d" stroke-width="5"/><text x="520" y="218" font-family="Inter, Arial" font-size="24" font-weight="900" fill="#fff" text-anchor="middle">Tool</text></g>
<g><rect x="624" y="292" width="152" height="76" rx="22" fill="#f05f7d" fill-opacity="0.2" stroke="#f05f7d" stroke-width="5"/><text x="700" y="338" font-family="Inter, Arial" font-size="24" font-weight="900" fill="#fff" text-anchor="middle">Review</text></g>
<g><rect x="804" y="220" width="152" height="76" rx="22" fill="#f05f7d" fill-opacity="0.2" stroke="#f05f7d" stroke-width="5"/><text x="880" y="266" font-family="Inter, Arial" font-size="24" font-weight="900" fill="#fff" text-anchor="middle">Output</text></g>
<g><rect x="444" y="402" width="152" height="76" rx="22" fill="#ffd166" fill-opacity="0.2" stroke="#ffd166" stroke-width="5"/><text x="520" y="448" font-family="Inter, Arial" font-size="24" font-weight="900" fill="#fff" text-anchor="middle">Agent</text></g>
  <path d="M376 255L444 215M596 220L638 300M776 325L818 278M520 402V248M596 442L825 296" fill="none" stroke="#ffd166" stroke-width="7" stroke-linecap="round" stroke-dasharray="14 12"/>
  <g><rect x="256" y="164" width="220" height="34" rx="17" fill="#ffffff" fill-opacity="0.12" stroke="#ffd166" stroke-opacity="0.35"/><text x="270" y="187" font-family="Inter, Arial, sans-serif" font-size="15" font-weight="800" fill="#ffd166">no-code workflow</text></g>
</g>
<g transform="translate(72 610)">
  <rect x="0" y="0" width="760" height="92" rx="28" fill="#08111f" fill-opacity="0.74" stroke="#f05f7d" stroke-opacity="0.45" filter="url(#soft-10)"/>
  <text x="28" y="35" font-family="Inter, Arial, sans-serif" font-size="18" font-weight="900" fill="#f05f7d" text-anchor="start">AGENT DESIGNER</text>
  <text x="28" y="68" font-family="Georgia, serif" font-size="30" font-weight="850" fill="#f8fbff" text-anchor="start">Custom AI assistants</text>
</g>
<g transform="translate(1018 624)">
  <circle cx="52" cy="52" r="52" fill="#ffffff" fill-opacity="0.11" stroke="#ffd166" stroke-opacity="0.6"/>
  <text x="52" y="65" font-family="Georgia, serif" font-size="42" font-weight="900" fill="#ffffff" text-anchor="middle">10</text>
</g>
</svg>
