<svg xmlns="http://www.w3.org/2000/svg" width="1200" height="760" viewBox="0 0 1200 760" role="img" aria-labelledby="title-30 desc-30">
<title id="title-30">Targets, surveillance, accountability</title>
<desc id="desc-30">Civil-liberties scales weigh targeting, surveillance, accountability, and military AI. Editorial illustration only; not a social media screenshot.</desc>
<defs>
  <linearGradient id="bg-30" x1="0" y1="0" x2="1" y2="1"><stop offset="0" stop-color="#0f1b2d"/><stop offset="0.58" stop-color="#263e52"/><stop offset="1" stop-color="#050914"/></linearGradient>
  <radialGradient id="glow-30" cx="66%" cy="32%" r="58%"><stop offset="0" stop-color="#f97316" stop-opacity="0.42"/><stop offset="1" stop-color="#f97316" stop-opacity="0"/></radialGradient>
  <pattern id="grid-30" width="52" height="52" patternUnits="userSpaceOnUse"><path d="M52 0H0V52" fill="none" stroke="#ffffff" stroke-opacity="0.055" stroke-width="2"/></pattern>
  <filter id="soft-30" x="-20%" y="-20%" width="140%" height="140%"><feDropShadow dx="0" dy="18" stdDeviation="18" flood-color="#000000" flood-opacity="0.32"/></filter>
</defs>
<rect width="1200" height="760" fill="url(#bg-30)"/>
<rect width="1200" height="760" fill="url(#glow-30)"/>
<rect width="1200" height="760" fill="url(#grid-30)"/>
<path d="M-80 620C130 515 242 638 422 518C605 396 704 412 844 302C973 201 1082 178 1280 242" fill="none" stroke="#ffffff" stroke-opacity="0.11" stroke-width="32"/>
<g filter="url(#soft-30)">
  <rect x="250" y="150" width="700" height="420" rx="42" fill="#08111f" fill-opacity="0.78" stroke="#f97316" stroke-width="6"/>
  <line x1="600" y1="210" x2="600" y2="488" stroke="#93e5ab" stroke-width="10"/><line x1="430" y1="275" x2="770" y2="275" stroke="#93e5ab" stroke-width="8"/>
  <path d="M430 275l-76 134h152zM770 275l-76 134h152z" fill="#fff" fill-opacity="0.1" stroke="#f97316" stroke-width="5"/>
  <circle cx="600" cy="275" r="28" fill="#93e5ab"/><path d="M526 492h148" stroke="#fff" stroke-opacity="0.34" stroke-width="12" stroke-linecap="round"/>
  <g><rect x="286" y="185" width="112" height="34" rx="17" fill="#ffffff" fill-opacity="0.12" stroke="#f97316" stroke-opacity="0.35"/><text x="300" y="208" font-family="Inter, Arial, sans-serif" font-size="15" font-weight="800" fill="#f97316">targets</text></g>
<g><rect x="286" y="229" width="172" height="34" rx="17" fill="#ffffff" fill-opacity="0.12" stroke="#93e5ab" stroke-opacity="0.35"/><text x="300" y="252" font-family="Inter, Arial, sans-serif" font-size="15" font-weight="800" fill="#93e5ab">surveillance</text></g>
<g><rect x="286" y="273" width="196" height="34" rx="17" fill="#ffffff" fill-opacity="0.12" stroke="#f97316" stroke-opacity="0.35"/><text x="300" y="296" font-family="Inter, Arial, sans-serif" font-size="15" font-weight="800" fill="#f97316">accountability</text></g>
</g>
<g transform="translate(72 610)">
  <rect x="0" y="0" width="760" height="92" rx="28" fill="#08111f" fill-opacity="0.74" stroke="#f97316" stroke-opacity="0.45" filter="url(#soft-30)"/>
  <text x="28" y="35" font-family="Inter, Arial, sans-serif" font-size="18" font-weight="900" fill="#f97316" text-anchor="start">CIVIL LIBERTIES</text>
  <text x="28" y="68" font-family="Georgia, serif" font-size="30" font-weight="850" fill="#f8fbff" text-anchor="start">Targets, surveillance, accountability</text>
</g>
<g transform="translate(1018 624)">
  <circle cx="52" cy="52" r="52" fill="#ffffff" fill-opacity="0.11" stroke="#93e5ab" stroke-opacity="0.6"/>
  <text x="52" y="65" font-family="Georgia, serif" font-size="42" font-weight="900" fill="#ffffff" text-anchor="middle">30</text>
</g>
</svg>
