<svg xmlns="http://www.w3.org/2000/svg" width="1200" height="760" viewBox="0 0 1200 760" role="img" aria-labelledby="title-19 desc-19">
<title id="title-19">64 lines of effort</title>
<desc id="desc-19">A responsible AI toolkit checklist turns ethics principles into operational tasks. Editorial illustration only; not a social media screenshot.</desc>
<defs>
  <linearGradient id="bg-19" x1="0" y1="0" x2="1" y2="1"><stop offset="0" stop-color="#101927"/><stop offset="0.58" stop-color="#273c48"/><stop offset="1" stop-color="#050914"/></linearGradient>
  <radialGradient id="glow-19" cx="66%" cy="32%" r="58%"><stop offset="0" stop-color="#ffb454" stop-opacity="0.42"/><stop offset="1" stop-color="#ffb454" stop-opacity="0"/></radialGradient>
  <pattern id="grid-19" width="52" height="52" patternUnits="userSpaceOnUse"><path d="M52 0H0V52" fill="none" stroke="#ffffff" stroke-opacity="0.055" stroke-width="2"/></pattern>
  <filter id="soft-19" x="-20%" y="-20%" width="140%" height="140%"><feDropShadow dx="0" dy="18" stdDeviation="18" flood-color="#000000" flood-opacity="0.32"/></filter>
</defs>
<rect width="1200" height="760" fill="url(#bg-19)"/>
<rect width="1200" height="760" fill="url(#glow-19)"/>
<rect width="1200" height="760" fill="url(#grid-19)"/>
<path d="M-80 620C130 515 242 638 422 518C605 396 704 412 844 302C973 201 1082 178 1280 242" fill="none" stroke="#ffffff" stroke-opacity="0.11" stroke-width="32"/>
<g filter="url(#soft-19)">
  <rect x="286" y="126" width="628" height="440" rx="34" fill="#08111f" fill-opacity="0.78" stroke="#ffb454" stroke-width="6"/>
  <text x="600" y="207" font-family="Georgia, serif" font-size="84" font-weight="900" fill="#fff" text-anchor="middle">64</text>
  <g transform="translate(354 250)"><rect x="0" y="0" width="18" height="18" rx="4" fill="#91e6c7"/><path d="M34 9h410" stroke="#fff" stroke-opacity="0.42" stroke-width="6" stroke-linecap="round"/></g>
<g transform="translate(354 276)"><rect x="0" y="0" width="18" height="18" rx="4" fill="#ffb454"/><path d="M34 9h410" stroke="#fff" stroke-opacity="0.39999999999999997" stroke-width="6" stroke-linecap="round"/></g>
<g transform="translate(354 302)"><rect x="0" y="0" width="18" height="18" rx="4" fill="#ffb454"/><path d="M34 9h410" stroke="#fff" stroke-opacity="0.38" stroke-width="6" stroke-linecap="round"/></g>
<g transform="translate(354 328)"><rect x="0" y="0" width="18" height="18" rx="4" fill="#91e6c7"/><path d="M34 9h410" stroke="#fff" stroke-opacity="0.36" stroke-width="6" stroke-linecap="round"/></g>
<g transform="translate(354 354)"><rect x="0" y="0" width="18" height="18" rx="4" fill="#ffb454"/><path d="M34 9h410" stroke="#fff" stroke-opacity="0.33999999999999997" stroke-width="6" stroke-linecap="round"/></g>
<g transform="translate(354 380)"><rect x="0" y="0" width="18" height="18" rx="4" fill="#ffb454"/><path d="M34 9h410" stroke="#fff" stroke-opacity="0.31999999999999995" stroke-width="6" stroke-linecap="round"/></g>
<g transform="translate(354 406)"><rect x="0" y="0" width="18" height="18" rx="4" fill="#91e6c7"/><path d="M34 9h410" stroke="#fff" stroke-opacity="0.3" stroke-width="6" stroke-linecap="round"/></g>
<g transform="translate(354 432)"><rect x="0" y="0" width="18" height="18" rx="4" fill="#ffb454"/><path d="M34 9h410" stroke="#fff" stroke-opacity="0.27999999999999997" stroke-width="6" stroke-linecap="round"/></g>
<g transform="translate(354 458)"><rect x="0" y="0" width="18" height="18" rx="4" fill="#ffb454"/><path d="M34 9h410" stroke="#fff" stroke-opacity="0.26" stroke-width="6" stroke-linecap="round"/></g>
<g transform="translate(354 484)"><rect x="0" y="0" width="18" height="18" rx="4" fill="#91e6c7"/><path d="M34 9h410" stroke="#fff" stroke-opacity="0.24" stroke-width="6" stroke-linecap="round"/></g>
  <g><rect x="388" y="506" width="292" height="34" rx="17" fill="#ffffff" fill-opacity="0.12" stroke="#91e6c7" stroke-opacity="0.35"/><text x="402" y="529" font-family="Inter, Arial, sans-serif" font-size="15" font-weight="800" fill="#91e6c7">responsible AI toolkit</text></g>
</g>
<g transform="translate(72 610)">
  <rect x="0" y="0" width="760" height="92" rx="28" fill="#08111f" fill-opacity="0.74" stroke="#ffb454" stroke-opacity="0.45" filter="url(#soft-19)"/>
  <text x="28" y="35" font-family="Inter, Arial, sans-serif" font-size="18" font-weight="900" fill="#ffb454" text-anchor="start">RAI TOOLKIT</text>
  <text x="28" y="68" font-family="Georgia, serif" font-size="30" font-weight="850" fill="#f8fbff" text-anchor="start">64 lines of effort</text>
</g>
<g transform="translate(1018 624)">
  <circle cx="52" cy="52" r="52" fill="#ffffff" fill-opacity="0.11" stroke="#91e6c7" stroke-opacity="0.6"/>
  <text x="52" y="65" font-family="Georgia, serif" font-size="42" font-weight="900" fill="#ffffff" text-anchor="middle">19</text>
</g>
</svg>
