<svg xmlns="http://www.w3.org/2000/svg" width="1200" height="760" viewBox="0 0 1200 760" role="img" aria-labelledby="title desc">
<title id="title">Defense AI Rail 19</title>
<desc id="desc">Abstract editorial illustration for a source rail card about AI and classified military networks. Not a social media screenshot.</desc>
<defs>
<linearGradient id="g" x1="0" y1="0" x2="1" y2="1"><stop offset="0" stop-color="#101827"/><stop offset="0.55" stop-color="#182b4d"/><stop offset="1" stop-color="#06121f"/></linearGradient>
<radialGradient id="r" cx="50%" cy="48%" r="55%"><stop offset="0" stop-color="#8fd7ff" stop-opacity="0.62"/><stop offset="1" stop-color="#8fd7ff" stop-opacity="0"/></radialGradient>
</defs>
<rect width="1200" height="760" fill="url(#g)"/>
<rect width="1200" height="760" fill="url(#r)"/>
<g opacity="0.58" stroke="#d7ecff" stroke-width="5" fill="none">
<path d="M145 585 C310 420 315 295 455 260 C620 219 690 355 848 284 C930 247 984 170 1076 130"/>
<path d="M145 615 L330 615 L330 520 L520 520 L520 380 L755 380 L755 260 L1035 260"/>
<circle cx="330" cy="615" r="15" fill="#d7ecff"/><circle cx="520" cy="520" r="15" fill="#d7ecff"/><circle cx="755" cy="380" r="15" fill="#d7ecff"/><circle cx="1035" cy="260" r="15" fill="#d7ecff"/>
</g>
<g opacity="0.22" fill="#ffffff">
<rect x="110" y="105" width="220" height="48" rx="24"/>
<rect x="110" y="170" width="360" height="24" rx="12"/>
<rect x="110" y="210" width="295" height="24" rx="12"/>
</g>
<g transform="translate(678 500)">
<rect x="0" y="0" width="320" height="120" rx="18" fill="#07111f" opacity="0.72" stroke="#9bdfff" stroke-width="4"/>
<text x="28" y="48" font-family="Georgia, serif" font-size="28" fill="#e9f7ff">EDITORIAL ART</text>
<text x="28" y="87" font-family="Arial, sans-serif" font-size="19" fill="#a9c7da">not a platform screenshot</text>
</g>
<text x="112" y="675" font-family="Georgia, serif" font-size="70" fill="#f7fbff" opacity="0.96">19</text>
</svg>