<svg xmlns="http://www.w3.org/2000/svg" width="1200" height="760" viewBox="0 0 1200 760" role="img" aria-labelledby="title-11 desc-11">
<title id="title-11">1 million users in two months</title>
<desc id="desc-11">A dense personnel constellation flows into the GenAI.mil platform. Editorial illustration only; not a social media screenshot.</desc>
<defs>
  <linearGradient id="bg-11" x1="0" y1="0" x2="1" y2="1"><stop offset="0" stop-color="#101927"/><stop offset="0.58" stop-color="#273c48"/><stop offset="1" stop-color="#050914"/></linearGradient>
  <radialGradient id="glow-11" cx="66%" cy="32%" r="58%"><stop offset="0" stop-color="#ffb454" stop-opacity="0.42"/><stop offset="1" stop-color="#ffb454" stop-opacity="0"/></radialGradient>
  <pattern id="grid-11" width="52" height="52" patternUnits="userSpaceOnUse"><path d="M52 0H0V52" fill="none" stroke="#ffffff" stroke-opacity="0.055" stroke-width="2"/></pattern>
  <filter id="soft-11" x="-20%" y="-20%" width="140%" height="140%"><feDropShadow dx="0" dy="18" stdDeviation="18" flood-color="#000000" flood-opacity="0.32"/></filter>
</defs>
<rect width="1200" height="760" fill="url(#bg-11)"/>
<rect width="1200" height="760" fill="url(#glow-11)"/>
<rect width="1200" height="760" fill="url(#grid-11)"/>
<path d="M-80 620C130 515 242 638 422 518C605 396 704 412 844 302C973 201 1082 178 1280 242" fill="none" stroke="#ffffff" stroke-opacity="0.11" stroke-width="32"/>
<g filter="url(#soft-11)">
  <rect x="730" y="150" width="250" height="330" rx="38" fill="#08111f" fill-opacity="0.78" stroke="#ffb454" stroke-width="6"/>
  <text x="855" y="316" font-family="Georgia, serif" font-size="88" font-weight="900" fill="#fff" text-anchor="middle">1M+</text>
  <text x="855" y="362" font-family="Inter, Arial" font-size="22" font-weight="800" fill="#91e6c7" text-anchor="middle">users</text>
  <circle cx="214" cy="165" r="8" fill="#91e6c7" fill-opacity="0.45"/>
<circle cx="245" cy="165" r="8" fill="#ffb454" fill-opacity="0.54"/>
<circle cx="276" cy="165" r="8" fill="#ffb454" fill-opacity="0.63"/>
<circle cx="307" cy="165" r="8" fill="#ffb454" fill-opacity="0.72"/>
<circle cx="338" cy="165" r="8" fill="#ffb454" fill-opacity="0.81"/>
<circle cx="369" cy="165" r="8" fill="#ffb454" fill-opacity="0.45"/>
<circle cx="400" cy="165" r="8" fill="#ffb454" fill-opacity="0.54"/>
<circle cx="431" cy="165" r="8" fill="#91e6c7" fill-opacity="0.63"/>
<circle cx="462" cy="165" r="8" fill="#ffb454" fill-opacity="0.72"/>
<circle cx="493" cy="165" r="8" fill="#ffb454" fill-opacity="0.81"/>
<circle cx="524" cy="165" r="8" fill="#ffb454" fill-opacity="0.45"/>
<circle cx="555" cy="165" r="8" fill="#ffb454" fill-opacity="0.54"/>
<circle cx="586" cy="165" r="8" fill="#ffb454" fill-opacity="0.63"/>
<circle cx="617" cy="165" r="8" fill="#ffb454" fill-opacity="0.72"/>
<circle cx="648" cy="165" r="8" fill="#91e6c7" fill-opacity="0.81"/>
<circle cx="214" cy="213" r="8" fill="#ffb454" fill-opacity="0.45"/>
<circle cx="245" cy="213" r="8" fill="#ffb454" fill-opacity="0.54"/>
<circle cx="276" cy="213" r="8" fill="#ffb454" fill-opacity="0.63"/>
<circle cx="307" cy="213" r="8" fill="#ffb454" fill-opacity="0.72"/>
<circle cx="338" cy="213" r="8" fill="#ffb454" fill-opacity="0.81"/>
<circle cx="369" cy="213" r="8" fill="#ffb454" fill-opacity="0.45"/>
<circle cx="400" cy="213" r="8" fill="#91e6c7" fill-opacity="0.54"/>
<circle cx="431" cy="213" r="8" fill="#ffb454" fill-opacity="0.63"/>
<circle cx="462" cy="213" r="8" fill="#ffb454" fill-opacity="0.72"/>
<circle cx="493" cy="213" r="8" fill="#ffb454" fill-opacity="0.81"/>
<circle cx="524" cy="213" r="8" fill="#ffb454" fill-opacity="0.45"/>
<circle cx="555" cy="213" r="8" fill="#ffb454" fill-opacity="0.54"/>
<circle cx="586" cy="213" r="8" fill="#ffb454" fill-opacity="0.63"/>
<circle cx="617" cy="213" r="8" fill="#91e6c7" fill-opacity="0.72"/>
<circle cx="648" cy="213" r="8" fill="#ffb454" fill-opacity="0.81"/>
<circle cx="214" cy="261" r="8" fill="#ffb454" fill-opacity="0.45"/>
<circle cx="245" cy="261" r="8" fill="#ffb454" fill-opacity="0.54"/>
<circle cx="276" cy="261" r="8" fill="#ffb454" fill-opacity="0.63"/>
<circle cx="307" cy="261" r="8" fill="#ffb454" fill-opacity="0.72"/>
<circle cx="338" cy="261" r="8" fill="#ffb454" fill-opacity="0.81"/>
<circle cx="369" cy="261" r="8" fill="#91e6c7" fill-opacity="0.45"/>
<circle cx="400" cy="261" r="8" fill="#ffb454" fill-opacity="0.54"/>
<circle cx="431" cy="261" r="8" fill="#ffb454" fill-opacity="0.63"/>
<circle cx="462" cy="261" r="8" fill="#ffb454" fill-opacity="0.72"/>
<circle cx="493" cy="261" r="8" fill="#ffb454" fill-opacity="0.81"/>
<circle cx="524" cy="261" r="8" fill="#ffb454" fill-opacity="0.45"/>
<circle cx="555" cy="261" r="8" fill="#ffb454" fill-opacity="0.54"/>
<circle cx="586" cy="261" r="8" fill="#91e6c7" fill-opacity="0.63"/>
<circle cx="617" cy="261" r="8" fill="#ffb454" fill-opacity="0.72"/>
<circle cx="648" cy="261" r="8" fill="#ffb454" fill-opacity="0.81"/>
<circle cx="214" cy="309" r="8" fill="#ffb454" fill-opacity="0.45"/>
<circle cx="245" cy="309" r="8" fill="#ffb454" fill-opacity="0.54"/>
<circle cx="276" cy="309" r="8" fill="#ffb454" fill-opacity="0.63"/>
<circle cx="307" cy="309" r="8" fill="#ffb454" fill-opacity="0.72"/>
<circle cx="338" cy="309" r="8" fill="#91e6c7" fill-opacity="0.81"/>
<circle cx="369" cy="309" r="8" fill="#ffb454" fill-opacity="0.45"/>
<circle cx="400" cy="309" r="8" fill="#ffb454" fill-opacity="0.54"/>
<circle cx="431" cy="309" r="8" fill="#ffb454" fill-opacity="0.63"/>
<circle cx="462" cy="309" r="8" fill="#ffb454" fill-opacity="0.72"/>
<circle cx="493" cy="309" r="8" fill="#ffb454" fill-opacity="0.81"/>
<circle cx="524" cy="309" r="8" fill="#ffb454" fill-opacity="0.45"/>
<circle cx="555" cy="309" r="8" fill="#91e6c7" fill-opacity="0.54"/>
<circle cx="586" cy="309" r="8" fill="#ffb454" fill-opacity="0.63"/>
<circle cx="617" cy="309" r="8" fill="#ffb454" fill-opacity="0.72"/>
<circle cx="648" cy="309" r="8" fill="#ffb454" fill-opacity="0.81"/>
<circle cx="214" cy="357" r="8" fill="#ffb454" fill-opacity="0.45"/>
<circle cx="245" cy="357" r="8" fill="#ffb454" fill-opacity="0.54"/>
<circle cx="276" cy="357" r="8" fill="#ffb454" fill-opacity="0.63"/>
<circle cx="307" cy="357" r="8" fill="#91e6c7" fill-opacity="0.72"/>
<circle cx="338" cy="357" r="8" fill="#ffb454" fill-opacity="0.81"/>
<circle cx="369" cy="357" r="8" fill="#ffb454" fill-opacity="0.45"/>
<circle cx="400" cy="357" r="8" fill="#ffb454" fill-opacity="0.54"/>
<circle cx="431" cy="357" r="8" fill="#ffb454" fill-opacity="0.63"/>
<circle cx="462" cy="357" r="8" fill="#ffb454" fill-opacity="0.72"/>
<circle cx="493" cy="357" r="8" fill="#ffb454" fill-opacity="0.81"/>
<circle cx="524" cy="357" r="8" fill="#91e6c7" fill-opacity="0.45"/>
<circle cx="555" cy="357" r="8" fill="#ffb454" fill-opacity="0.54"/>
<circle cx="586" cy="357" r="8" fill="#ffb454" fill-opacity="0.63"/>
<circle cx="617" cy="357" r="8" fill="#ffb454" fill-opacity="0.72"/>
<circle cx="648" cy="357" r="8" fill="#ffb454" fill-opacity="0.81"/>
<circle cx="214" cy="405" r="8" fill="#ffb454" fill-opacity="0.45"/>
<circle cx="245" cy="405" r="8" fill="#ffb454" fill-opacity="0.54"/>
<circle cx="276" cy="405" r="8" fill="#91e6c7" fill-opacity="0.63"/>
<circle cx="307" cy="405" r="8" fill="#ffb454" fill-opacity="0.72"/>
<circle cx="338" cy="405" r="8" fill="#ffb454" fill-opacity="0.81"/>
<circle cx="369" cy="405" r="8" fill="#ffb454" fill-opacity="0.45"/>
<circle cx="400" cy="405" r="8" fill="#ffb454" fill-opacity="0.54"/>
<circle cx="431" cy="405" r="8" fill="#ffb454" fill-opacity="0.63"/>
<circle cx="462" cy="405" r="8" fill="#ffb454" fill-opacity="0.72"/>
<circle cx="493" cy="405" r="8" fill="#91e6c7" fill-opacity="0.81"/>
<circle cx="524" cy="405" r="8" fill="#ffb454" fill-opacity="0.45"/>
<circle cx="555" cy="405" r="8" fill="#ffb454" fill-opacity="0.54"/>
<circle cx="586" cy="405" r="8" fill="#ffb454" fill-opacity="0.63"/>
<circle cx="617" cy="405" r="8" fill="#ffb454" fill-opacity="0.72"/>
<circle cx="648" cy="405" r="8" fill="#ffb454" fill-opacity="0.81"/>
  <path d="M675 320C610 320 580 300 540 270" fill="none" stroke="#91e6c7" stroke-width="9" stroke-linecap="round"/>
  <g><rect x="250" y="495" width="208" height="34" rx="17" fill="#ffffff" fill-opacity="0.12" stroke="#ffb454" stroke-opacity="0.35"/><text x="264" y="518" font-family="Inter, Arial, sans-serif" font-size="15" font-weight="800" fill="#ffb454">GenAI.mil scale</text></g>
</g>
<g transform="translate(72 610)">
  <rect x="0" y="0" width="760" height="92" rx="28" fill="#08111f" fill-opacity="0.74" stroke="#ffb454" stroke-opacity="0.45" filter="url(#soft-11)"/>
  <text x="28" y="35" font-family="Inter, Arial, sans-serif" font-size="18" font-weight="900" fill="#ffb454" text-anchor="start">1M+ USERS</text>
  <text x="28" y="68" font-family="Georgia, serif" font-size="30" font-weight="850" fill="#f8fbff" text-anchor="start">1 million users in two months</text>
</g>
<g transform="translate(1018 624)">
  <circle cx="52" cy="52" r="52" fill="#ffffff" fill-opacity="0.11" stroke="#91e6c7" stroke-opacity="0.6"/>
  <text x="52" y="65" font-family="Georgia, serif" font-size="42" font-weight="900" fill="#ffffff" text-anchor="middle">11</text>
</g>
</svg>
