<svg xmlns="http://www.w3.org/2000/svg" width="1200" height="760" viewBox="0 0 1200 760" role="img" aria-labelledby="title-29 desc-29">
<title id="title-29">Dec Feb Mar May</title>
<desc id="desc-29">A compressed timeline moves from IL5 expansion to users, litigation, and classified deals. Editorial illustration only; not a social media screenshot.</desc>
<defs>
  <linearGradient id="bg-29" x1="0" y1="0" x2="1" y2="1"><stop offset="0" stop-color="#141725"/><stop offset="0.58" stop-color="#2e3558"/><stop offset="1" stop-color="#050914"/></linearGradient>
  <radialGradient id="glow-29" cx="66%" cy="32%" r="58%"><stop offset="0" stop-color="#a78bfa" stop-opacity="0.42"/><stop offset="1" stop-color="#a78bfa" stop-opacity="0"/></radialGradient>
  <pattern id="grid-29" width="52" height="52" patternUnits="userSpaceOnUse"><path d="M52 0H0V52" fill="none" stroke="#ffffff" stroke-opacity="0.055" stroke-width="2"/></pattern>
  <filter id="soft-29" x="-20%" y="-20%" width="140%" height="140%"><feDropShadow dx="0" dy="18" stdDeviation="18" flood-color="#000000" flood-opacity="0.32"/></filter>
</defs>
<rect width="1200" height="760" fill="url(#bg-29)"/>
<rect width="1200" height="760" fill="url(#glow-29)"/>
<rect width="1200" height="760" fill="url(#grid-29)"/>
<path d="M-80 620C130 515 242 638 422 518C605 396 704 412 844 302C973 201 1082 178 1280 242" fill="none" stroke="#ffffff" stroke-opacity="0.11" stroke-width="32"/>
<g filter="url(#soft-29)">
  <line x1="230" y1="360" x2="970" y2="360" stroke="#f4d35e" stroke-width="12" stroke-linecap="round"/>
  <g transform="translate(260 0)"><circle cx="0" cy="360" r="52" fill="#a78bfa"/><text x="0" y="354" font-family="Inter, Arial" font-size="24" font-weight="900" fill="#08111f" text-anchor="middle">DEC</text><text x="0" y="386" font-family="Inter, Arial" font-size="16" font-weight="900" fill="#08111f" text-anchor="middle">2026</text><rect x="-82" y="205" width="164" height="72" rx="18" fill="#fff" fill-opacity="0.11" stroke="#fff" stroke-opacity="0.26"/><text x="0" y="250" font-family="Inter, Arial" font-size="19" font-weight="850" fill="#fff" text-anchor="middle">xAI IL5</text></g>
<g transform="translate(480 0)"><circle cx="0" cy="360" r="52" fill="#f4d35e"/><text x="0" y="354" font-family="Inter, Arial" font-size="24" font-weight="900" fill="#08111f" text-anchor="middle">FEB</text><text x="0" y="386" font-family="Inter, Arial" font-size="16" font-weight="900" fill="#08111f" text-anchor="middle">2026</text><rect x="-82" y="205" width="164" height="72" rx="18" fill="#fff" fill-opacity="0.11" stroke="#fff" stroke-opacity="0.26"/><text x="0" y="250" font-family="Inter, Arial" font-size="19" font-weight="850" fill="#fff" text-anchor="middle">1M users</text></g>
<g transform="translate(700 0)"><circle cx="0" cy="360" r="52" fill="#a78bfa"/><text x="0" y="354" font-family="Inter, Arial" font-size="24" font-weight="900" fill="#08111f" text-anchor="middle">MAR</text><text x="0" y="386" font-family="Inter, Arial" font-size="16" font-weight="900" fill="#08111f" text-anchor="middle">2026</text><rect x="-82" y="205" width="164" height="72" rx="18" fill="#fff" fill-opacity="0.11" stroke="#fff" stroke-opacity="0.26"/><text x="0" y="250" font-family="Inter, Arial" font-size="19" font-weight="850" fill="#fff" text-anchor="middle">lawsuit</text></g>
<g transform="translate(920 0)"><circle cx="0" cy="360" r="52" fill="#f4d35e"/><text x="0" y="354" font-family="Inter, Arial" font-size="24" font-weight="900" fill="#08111f" text-anchor="middle">MAY</text><text x="0" y="386" font-family="Inter, Arial" font-size="16" font-weight="900" fill="#08111f" text-anchor="middle">2026</text><rect x="-82" y="205" width="164" height="72" rx="18" fill="#fff" fill-opacity="0.11" stroke="#fff" stroke-opacity="0.26"/><text x="0" y="250" font-family="Inter, Arial" font-size="19" font-weight="850" fill="#fff" text-anchor="middle">classified deals</text></g>
  <g><rect x="430" y="500" width="232" height="34" rx="17" fill="#ffffff" fill-opacity="0.12" stroke="#f4d35e" stroke-opacity="0.35"/><text x="444" y="523" font-family="Inter, Arial, sans-serif" font-size="15" font-weight="800" fill="#f4d35e">months, not years</text></g>
</g>
<g transform="translate(72 610)">
  <rect x="0" y="0" width="760" height="92" rx="28" fill="#08111f" fill-opacity="0.74" stroke="#a78bfa" stroke-opacity="0.45" filter="url(#soft-29)"/>
  <text x="28" y="35" font-family="Inter, Arial, sans-serif" font-size="18" font-weight="900" fill="#a78bfa" text-anchor="start">COMPRESSED YEAR</text>
  <text x="28" y="68" font-family="Georgia, serif" font-size="30" font-weight="850" fill="#f8fbff" text-anchor="start">Dec Feb Mar May</text>
</g>
<g transform="translate(1018 624)">
  <circle cx="52" cy="52" r="52" fill="#ffffff" fill-opacity="0.11" stroke="#f4d35e" stroke-opacity="0.6"/>
  <text x="52" y="65" font-family="Georgia, serif" font-size="42" font-weight="900" fill="#ffffff" text-anchor="middle">29</text>
</g>
</svg>
