<svg xmlns="http://www.w3.org/2000/svg" width="1200" height="760" viewBox="0 0 1200 760" role="img" aria-labelledby="title-16 desc-16">
<title id="title-16">Final-offer fight</title>
<desc id="desc-16">A public-pressure ultimatum splits into cut-ties and tailored-model paths. Editorial illustration only; not a social media screenshot.</desc>
<defs>
  <linearGradient id="bg-16" x1="0" y1="0" x2="1" y2="1"><stop offset="0" stop-color="#101a2b"/><stop offset="0.58" stop-color="#284b63"/><stop offset="1" stop-color="#050914"/></linearGradient>
  <radialGradient id="glow-16" cx="66%" cy="32%" r="58%"><stop offset="0" stop-color="#5eead4" stop-opacity="0.42"/><stop offset="1" stop-color="#5eead4" stop-opacity="0"/></radialGradient>
  <pattern id="grid-16" width="52" height="52" patternUnits="userSpaceOnUse"><path d="M52 0H0V52" fill="none" stroke="#ffffff" stroke-opacity="0.055" stroke-width="2"/></pattern>
  <filter id="soft-16" x="-20%" y="-20%" width="140%" height="140%"><feDropShadow dx="0" dy="18" stdDeviation="18" flood-color="#000000" flood-opacity="0.32"/></filter>
</defs>
<rect width="1200" height="760" fill="url(#bg-16)"/>
<rect width="1200" height="760" fill="url(#glow-16)"/>
<rect width="1200" height="760" fill="url(#grid-16)"/>
<path d="M-80 620C130 515 242 638 422 518C605 396 704 412 844 302C973 201 1082 178 1280 242" fill="none" stroke="#ffffff" stroke-opacity="0.11" stroke-width="32"/>
<g filter="url(#soft-16)">
  <rect x="235" y="140" width="360" height="250" rx="28" fill="#08111f" fill-opacity="0.78" stroke="#5eead4" stroke-width="6"/>
  <path d="M285 205h260M285 260h220M285 315h245" stroke="#fff" stroke-opacity="0.38" stroke-width="8"/>
  <path d="M595 382C685 338 710 245 858 200M595 382C705 415 720 495 900 525" fill="none" stroke="#d8f3ff" stroke-width="12" stroke-linecap="round"/>
  <rect x="782" y="152" width="220" height="92" rx="24" fill="#fff" fill-opacity="0.11" stroke="#d8f3ff" stroke-width="4"/><text x="892" y="208" font-family="Inter, Arial" font-size="24" font-weight="900" fill="#f8fbff" text-anchor="middle">CUT TIES</text>
  <rect x="760" y="478" width="270" height="92" rx="24" fill="#fff" fill-opacity="0.11" stroke="#5eead4" stroke-width="4"/><text x="895" y="534" font-family="Inter, Arial" font-size="22" font-weight="900" fill="#f8fbff" text-anchor="middle">TAILORED MODEL</text>
  <g><rect x="282" y="426" width="160" height="34" rx="17" fill="#ffffff" fill-opacity="0.12" stroke="#d8f3ff" stroke-opacity="0.35"/><text x="296" y="449" font-family="Inter, Arial, sans-serif" font-size="15" font-weight="800" fill="#d8f3ff">final offer</text></g>
</g>
<g transform="translate(72 610)">
  <rect x="0" y="0" width="760" height="92" rx="28" fill="#08111f" fill-opacity="0.74" stroke="#5eead4" stroke-opacity="0.45" filter="url(#soft-16)"/>
  <text x="28" y="35" font-family="Inter, Arial, sans-serif" font-size="18" font-weight="900" fill="#5eead4" text-anchor="start">PUBLIC PRESSURE</text>
  <text x="28" y="68" font-family="Georgia, serif" font-size="30" font-weight="850" fill="#f8fbff" text-anchor="start">Final-offer fight</text>
</g>
<g transform="translate(1018 624)">
  <circle cx="52" cy="52" r="52" fill="#ffffff" fill-opacity="0.11" stroke="#d8f3ff" stroke-opacity="0.6"/>
  <text x="52" y="65" font-family="Georgia, serif" font-size="42" font-weight="900" fill="#ffffff" text-anchor="middle">16</text>
</g>
</svg>
