<svg xmlns="http://www.w3.org/2000/svg" width="1200" height="760" viewBox="0 0 1200 760" role="img" aria-labelledby="title-12 desc-12">
<title id="title-12">Grok at IL5</title>
<desc id="desc-12">A controlled unclassified IL5 corridor expands the GenAI.mil platform before IL6 and IL7. Editorial illustration only; not a social media screenshot.</desc>
<defs>
  <linearGradient id="bg-12" x1="0" y1="0" x2="1" y2="1"><stop offset="0" stop-color="#121726"/><stop offset="0.58" stop-color="#243f5f"/><stop offset="1" stop-color="#050914"/></linearGradient>
  <radialGradient id="glow-12" cx="66%" cy="32%" r="58%"><stop offset="0" stop-color="#f36f45" stop-opacity="0.42"/><stop offset="1" stop-color="#f36f45" stop-opacity="0"/></radialGradient>
  <pattern id="grid-12" width="52" height="52" patternUnits="userSpaceOnUse"><path d="M52 0H0V52" fill="none" stroke="#ffffff" stroke-opacity="0.055" stroke-width="2"/></pattern>
  <filter id="soft-12" x="-20%" y="-20%" width="140%" height="140%"><feDropShadow dx="0" dy="18" stdDeviation="18" flood-color="#000000" flood-opacity="0.32"/></filter>
</defs>
<rect width="1200" height="760" fill="url(#bg-12)"/>
<rect width="1200" height="760" fill="url(#glow-12)"/>
<rect width="1200" height="760" fill="url(#grid-12)"/>
<path d="M-80 620C130 515 242 638 422 518C605 396 704 412 844 302C973 201 1082 178 1280 242" fill="none" stroke="#ffffff" stroke-opacity="0.11" stroke-width="32"/>
<g filter="url(#soft-12)">
  <path d="M190 500h820l-115-300H305z" fill="#08111f" fill-opacity="0.76" stroke="#f36f45" stroke-width="6"/>
  <path d="M420 500l55-300M780 500l-55-300M190 500l115-300M1010 500L895 200" stroke="#fff" stroke-opacity="0.18" stroke-width="5"/>
  <rect x="508" y="255" width="184" height="128" rx="26" fill="#87d8ff" fill-opacity="0.16" stroke="#87d8ff" stroke-width="5"/>
  <text x="600" y="336" font-family="Inter, Arial" font-size="60" font-weight="900" fill="#fff" text-anchor="middle">IL5</text>
  <path d="M552 164l48 48 48-48M552 212l48-48 48 48" stroke="#f36f45" stroke-width="11" stroke-linecap="round"/>
  <g><rect x="262" y="156" width="304" height="34" rx="17" fill="#ffffff" fill-opacity="0.12" stroke="#87d8ff" stroke-opacity="0.35"/><text x="276" y="179" font-family="Inter, Arial, sans-serif" font-size="15" font-weight="800" fill="#87d8ff">controlled unclassified</text></g>
</g>
<g transform="translate(72 610)">
  <rect x="0" y="0" width="760" height="92" rx="28" fill="#08111f" fill-opacity="0.74" stroke="#f36f45" stroke-opacity="0.45" filter="url(#soft-12)"/>
  <text x="28" y="35" font-family="Inter, Arial, sans-serif" font-size="18" font-weight="900" fill="#f36f45" text-anchor="start">EARLIER BUILDOUT</text>
  <text x="28" y="68" font-family="Georgia, serif" font-size="30" font-weight="850" fill="#f8fbff" text-anchor="start">Grok at IL5</text>
</g>
<g transform="translate(1018 624)">
  <circle cx="52" cy="52" r="52" fill="#ffffff" fill-opacity="0.11" stroke="#87d8ff" stroke-opacity="0.6"/>
  <text x="52" y="65" font-family="Georgia, serif" font-size="42" font-weight="900" fill="#ffffff" text-anchor="middle">12</text>
</g>
</svg>
