<svg xmlns="http://www.w3.org/2000/svg" width="1200" height="760" viewBox="0 0 1200 760" role="img" aria-labelledby="title-23 desc-23">
<title id="title-23">Classified AI deal</title>
<desc id="desc-23">A Gemini-like constellation enters a secure planning room with safeguard lights. Editorial illustration only; not a social media screenshot.</desc>
<defs>
  <linearGradient id="bg-23" x1="0" y1="0" x2="1" y2="1"><stop offset="0" stop-color="#181723"/><stop offset="0.58" stop-color="#3b3046"/><stop offset="1" stop-color="#050914"/></linearGradient>
  <radialGradient id="glow-23" cx="66%" cy="32%" r="58%"><stop offset="0" stop-color="#ef476f" stop-opacity="0.42"/><stop offset="1" stop-color="#ef476f" stop-opacity="0"/></radialGradient>
  <pattern id="grid-23" width="52" height="52" patternUnits="userSpaceOnUse"><path d="M52 0H0V52" fill="none" stroke="#ffffff" stroke-opacity="0.055" stroke-width="2"/></pattern>
  <filter id="soft-23" x="-20%" y="-20%" width="140%" height="140%"><feDropShadow dx="0" dy="18" stdDeviation="18" flood-color="#000000" flood-opacity="0.32"/></filter>
</defs>
<rect width="1200" height="760" fill="url(#bg-23)"/>
<rect width="1200" height="760" fill="url(#glow-23)"/>
<rect width="1200" height="760" fill="url(#grid-23)"/>
<path d="M-80 620C130 515 242 638 422 518C605 396 704 412 844 302C973 201 1082 178 1280 242" fill="none" stroke="#ffffff" stroke-opacity="0.11" stroke-width="32"/>
<g filter="url(#soft-23)">
  <rect x="230" y="170" width="740" height="380" rx="44" fill="#08111f" fill-opacity="0.78" stroke="#ef476f" stroke-width="6"/>
  <ellipse cx="600" cy="398" rx="250" ry="76" fill="#fff" fill-opacity="0.1" stroke="#f8e7a1" stroke-width="5"/>
  <circle cx="480" cy="330" r="34" fill="#ef476f" fill-opacity="0.54"/>
<circle cx="600" cy="290" r="34" fill="#f8e7a1" fill-opacity="0.54"/>
<circle cx="720" cy="330" r="34" fill="#ef476f" fill-opacity="0.54"/>
<circle cx="555" cy="430" r="34" fill="#ef476f" fill-opacity="0.54"/>
<circle cx="655" cy="430" r="34" fill="#ef476f" fill-opacity="0.54"/>
  <path d="M480 330L600 290L720 330M555 430L600 290L655 430M480 330L555 430M720 330L655 430" stroke="#fff" stroke-opacity="0.32" stroke-width="5"/>
  <g><rect x="262" y="214" width="124" height="34" rx="17" fill="#ffffff" fill-opacity="0.12" stroke="#ef476f" stroke-opacity="0.35"/><text x="276" y="237" font-family="Inter, Arial, sans-serif" font-size="15" font-weight="800" fill="#ef476f">planning</text></g>
<g><rect x="262" y="262" width="148" height="34" rx="17" fill="#ffffff" fill-opacity="0.12" stroke="#f8e7a1" stroke-opacity="0.35"/><text x="276" y="285" font-family="Inter, Arial, sans-serif" font-size="15" font-weight="800" fill="#f8e7a1">safeguards</text></g>
<g><rect x="262" y="310" width="100" height="34" rx="17" fill="#ffffff" fill-opacity="0.12" stroke="#ef476f" stroke-opacity="0.35"/><text x="276" y="333" font-family="Inter, Arial, sans-serif" font-size="15" font-weight="800" fill="#ef476f">review</text></g>
</g>
<g transform="translate(72 610)">
  <rect x="0" y="0" width="760" height="92" rx="28" fill="#08111f" fill-opacity="0.74" stroke="#ef476f" stroke-opacity="0.45" filter="url(#soft-23)"/>
  <text x="28" y="35" font-family="Inter, Arial, sans-serif" font-size="18" font-weight="900" fill="#ef476f" text-anchor="start">GEMINI IN ROOM</text>
  <text x="28" y="68" font-family="Georgia, serif" font-size="30" font-weight="850" fill="#f8fbff" text-anchor="start">Classified AI deal</text>
</g>
<g transform="translate(1018 624)">
  <circle cx="52" cy="52" r="52" fill="#ffffff" fill-opacity="0.11" stroke="#f8e7a1" stroke-opacity="0.6"/>
  <text x="52" y="65" font-family="Georgia, serif" font-size="42" font-weight="900" fill="#ffffff" text-anchor="middle">23</text>
</g>
</svg>
