<svg xmlns="http://www.w3.org/2000/svg" width="1200" height="760" viewBox="0 0 1200 760" role="img" aria-labelledby="title-15 desc-15">
<title id="title-15">Mythos complicates the blacklist</title>
<desc id="desc-15">A key labeled Mythos traces a winding route back toward a restricted secure room. Editorial illustration only; not a social media screenshot.</desc>
<defs>
  <linearGradient id="bg-15" x1="0" y1="0" x2="1" y2="1"><stop offset="0" stop-color="#181723"/><stop offset="0.58" stop-color="#3b3046"/><stop offset="1" stop-color="#050914"/></linearGradient>
  <radialGradient id="glow-15" cx="66%" cy="32%" r="58%"><stop offset="0" stop-color="#ef476f" stop-opacity="0.42"/><stop offset="1" stop-color="#ef476f" stop-opacity="0"/></radialGradient>
  <pattern id="grid-15" width="52" height="52" patternUnits="userSpaceOnUse"><path d="M52 0H0V52" fill="none" stroke="#ffffff" stroke-opacity="0.055" stroke-width="2"/></pattern>
  <filter id="soft-15" x="-20%" y="-20%" width="140%" height="140%"><feDropShadow dx="0" dy="18" stdDeviation="18" flood-color="#000000" flood-opacity="0.32"/></filter>
</defs>
<rect width="1200" height="760" fill="url(#bg-15)"/>
<rect width="1200" height="760" fill="url(#glow-15)"/>
<rect width="1200" height="760" fill="url(#grid-15)"/>
<path d="M-80 620C130 515 242 638 422 518C605 396 704 412 844 302C973 201 1082 178 1280 242" fill="none" stroke="#ffffff" stroke-opacity="0.11" stroke-width="32"/>
<g filter="url(#soft-15)">
  <rect x="248" y="165" width="704" height="360" rx="44" fill="#08111f" fill-opacity="0.78" stroke="#ef476f" stroke-width="6"/>
  <path d="M335 410C460 210 590 535 730 320C804 206 865 245 920 188" fill="none" stroke="#f8e7a1" stroke-width="10" stroke-linecap="round" stroke-dasharray="20 16"/>
  <circle cx="365" cy="410" r="42" fill="#ef476f"/><circle cx="910" cy="188" r="42" fill="#f8e7a1"/>
  <path d="M560 255h170a48 48 0 0 1 48 48v0a48 48 0 0 1-48 48H560a48 48 0 0 1-48-48v0a48 48 0 0 1 48-48z" fill="#fff" fill-opacity="0.12" stroke="#fff" stroke-opacity="0.38"/>
  <text x="645" y="314" font-family="Georgia, serif" font-size="42" font-weight="900" fill="#f8fbff" text-anchor="middle">MYTHOS</text>
  <g><rect x="296" y="184" width="220" height="34" rx="17" fill="#ffffff" fill-opacity="0.12" stroke="#f8e7a1" stroke-opacity="0.35"/><text x="310" y="207" font-family="Inter, Arial, sans-serif" font-size="15" font-weight="800" fill="#f8e7a1">restricted route</text></g>
</g>
<g transform="translate(72 610)">
  <rect x="0" y="0" width="760" height="92" rx="28" fill="#08111f" fill-opacity="0.74" stroke="#ef476f" stroke-opacity="0.45" filter="url(#soft-15)"/>
  <text x="28" y="35" font-family="Inter, Arial, sans-serif" font-size="18" font-weight="900" fill="#ef476f" text-anchor="start">STILL WANTED</text>
  <text x="28" y="68" font-family="Georgia, serif" font-size="30" font-weight="850" fill="#f8fbff" text-anchor="start">Mythos complicates the blacklist</text>
</g>
<g transform="translate(1018 624)">
  <circle cx="52" cy="52" r="52" fill="#ffffff" fill-opacity="0.11" stroke="#f8e7a1" stroke-opacity="0.6"/>
  <text x="52" y="65" font-family="Georgia, serif" font-size="42" font-weight="900" fill="#ffffff" text-anchor="middle">15</text>
</g>
</svg>
