<svg xmlns="http://www.w3.org/2000/svg" width="1200" height="760" viewBox="0 0 1200 760" role="img" aria-labelledby="title-25 desc-25">
<title id="title-25">Reflection joins the coalition</title>
<desc id="desc-25">An open-model prism reflects into a government AI coalition network. Editorial illustration only; not a social media screenshot.</desc>
<defs>
  <linearGradient id="bg-25" x1="0" y1="0" x2="1" y2="1"><stop offset="0" stop-color="#111827"/><stop offset="0.58" stop-color="#21345a"/><stop offset="1" stop-color="#050914"/></linearGradient>
  <radialGradient id="glow-25" cx="66%" cy="32%" r="58%"><stop offset="0" stop-color="#70c7ff" stop-opacity="0.42"/><stop offset="1" stop-color="#70c7ff" stop-opacity="0"/></radialGradient>
  <pattern id="grid-25" width="52" height="52" patternUnits="userSpaceOnUse"><path d="M52 0H0V52" fill="none" stroke="#ffffff" stroke-opacity="0.055" stroke-width="2"/></pattern>
  <filter id="soft-25" x="-20%" y="-20%" width="140%" height="140%"><feDropShadow dx="0" dy="18" stdDeviation="18" flood-color="#000000" flood-opacity="0.32"/></filter>
</defs>
<rect width="1200" height="760" fill="url(#bg-25)"/>
<rect width="1200" height="760" fill="url(#glow-25)"/>
<rect width="1200" height="760" fill="url(#grid-25)"/>
<path d="M-80 620C130 515 242 638 422 518C605 396 704 412 844 302C973 201 1082 178 1280 242" fill="none" stroke="#ffffff" stroke-opacity="0.11" stroke-width="32"/>
<g filter="url(#soft-25)">
  <polygon points="600,128 860,360 600,592 340,360" fill="#fff" fill-opacity="0.09" stroke="#70c7ff" stroke-width="7"/>
  <polygon points="600,190 760,360 600,530 440,360" fill="#f0c66b" fill-opacity="0.16" stroke="#f0c66b" stroke-width="5"/>
  <path d="M600 190v340M440 360h320M486 252l228 216M714 252L486 468" stroke="#fff" stroke-opacity="0.22" stroke-width="5"/>
  <circle cx="220" cy="520" r="22" fill="#70c7ff" fill-opacity="0.75"/><path d="M220 520L600 360" stroke="#fff" stroke-opacity="0.18" stroke-width="3"/>
<circle cx="328" cy="230" r="22" fill="#f0c66b" fill-opacity="0.75"/><path d="M328 230L600 360" stroke="#fff" stroke-opacity="0.18" stroke-width="3"/>
<circle cx="436" cy="520" r="22" fill="#70c7ff" fill-opacity="0.75"/><path d="M436 520L600 360" stroke="#fff" stroke-opacity="0.18" stroke-width="3"/>
<circle cx="544" cy="230" r="22" fill="#f0c66b" fill-opacity="0.75"/><path d="M544 230L600 360" stroke="#fff" stroke-opacity="0.18" stroke-width="3"/>
<circle cx="652" cy="520" r="22" fill="#70c7ff" fill-opacity="0.75"/><path d="M652 520L600 360" stroke="#fff" stroke-opacity="0.18" stroke-width="3"/>
<circle cx="760" cy="230" r="22" fill="#f0c66b" fill-opacity="0.75"/><path d="M760 230L600 360" stroke="#fff" stroke-opacity="0.18" stroke-width="3"/>
<circle cx="868" cy="520" r="22" fill="#70c7ff" fill-opacity="0.75"/><path d="M868 520L600 360" stroke="#fff" stroke-opacity="0.18" stroke-width="3"/>
<circle cx="976" cy="230" r="22" fill="#f0c66b" fill-opacity="0.75"/><path d="M976 230L600 360" stroke="#fff" stroke-opacity="0.18" stroke-width="3"/>
  <g><rect x="466" y="318" width="220" height="34" rx="17" fill="#ffffff" fill-opacity="0.12" stroke="#f0c66b" stroke-opacity="0.35"/><text x="480" y="341" font-family="Inter, Arial, sans-serif" font-size="15" font-weight="800" fill="#f0c66b">open-model prism</text></g>
</g>
<g transform="translate(72 610)">
  <rect x="0" y="0" width="760" height="92" rx="28" fill="#08111f" fill-opacity="0.74" stroke="#70c7ff" stroke-opacity="0.45" filter="url(#soft-25)"/>
  <text x="28" y="35" font-family="Inter, Arial, sans-serif" font-size="18" font-weight="900" fill="#70c7ff" text-anchor="start">NEW ENTRANT</text>
  <text x="28" y="68" font-family="Georgia, serif" font-size="30" font-weight="850" fill="#f8fbff" text-anchor="start">Reflection joins the coalition</text>
</g>
<g transform="translate(1018 624)">
  <circle cx="52" cy="52" r="52" fill="#ffffff" fill-opacity="0.11" stroke="#f0c66b" stroke-opacity="0.6"/>
  <text x="52" y="65" font-family="Georgia, serif" font-size="42" font-weight="900" fill="#ffffff" text-anchor="middle">25</text>
</g>
</svg>
