<svg xmlns="http://www.w3.org/2000/svg" width="1200" height="760" viewBox="0 0 1200 760" role="img" aria-labelledby="title-07 desc-07">
<title id="title-07">Top AI firms, not Anthropic</title>
<desc id="desc-07">An empty chair sits beside a classified AI conference table. Editorial illustration only; not a social media screenshot.</desc>
<defs>
  <linearGradient id="bg-07" x1="0" y1="0" x2="1" y2="1"><stop offset="0" stop-color="#181723"/><stop offset="0.58" stop-color="#3b3046"/><stop offset="1" stop-color="#050914"/></linearGradient>
  <radialGradient id="glow-07" cx="66%" cy="32%" r="58%"><stop offset="0" stop-color="#ef476f" stop-opacity="0.42"/><stop offset="1" stop-color="#ef476f" stop-opacity="0"/></radialGradient>
  <pattern id="grid-07" width="52" height="52" patternUnits="userSpaceOnUse"><path d="M52 0H0V52" fill="none" stroke="#ffffff" stroke-opacity="0.055" stroke-width="2"/></pattern>
  <filter id="soft-07" x="-20%" y="-20%" width="140%" height="140%"><feDropShadow dx="0" dy="18" stdDeviation="18" flood-color="#000000" flood-opacity="0.32"/></filter>
</defs>
<rect width="1200" height="760" fill="url(#bg-07)"/>
<rect width="1200" height="760" fill="url(#glow-07)"/>
<rect width="1200" height="760" fill="url(#grid-07)"/>
<path d="M-80 620C130 515 242 638 422 518C605 396 704 412 844 302C973 201 1082 178 1280 242" fill="none" stroke="#ffffff" stroke-opacity="0.11" stroke-width="32"/>
<g filter="url(#soft-07)">
  <ellipse cx="610" cy="430" rx="360" ry="95" fill="#08111f" fill-opacity="0.78" stroke="#ef476f" stroke-width="6"/>
  <rect x="340" y="260" width="88" height="118" rx="18" fill="#fff" fill-opacity="0.11" stroke="#f8e7a1" stroke-opacity="0.42"/><line x1="358" y1="380" x2="330" y2="510" stroke="#fff" stroke-opacity="0.25" stroke-width="8"/><line x1="410" y1="380" x2="438" y2="510" stroke="#fff" stroke-opacity="0.25" stroke-width="8"/>
<rect x="460" y="260" width="88" height="118" rx="18" fill="#fff" fill-opacity="0.11" stroke="#f8e7a1" stroke-opacity="0.42"/><line x1="478" y1="380" x2="450" y2="510" stroke="#fff" stroke-opacity="0.25" stroke-width="8"/><line x1="530" y1="380" x2="558" y2="510" stroke="#fff" stroke-opacity="0.25" stroke-width="8"/>
<rect x="760" y="260" width="88" height="118" rx="18" fill="#fff" fill-opacity="0.11" stroke="#f8e7a1" stroke-opacity="0.42"/><line x1="778" y1="380" x2="750" y2="510" stroke="#fff" stroke-opacity="0.25" stroke-width="8"/><line x1="830" y1="380" x2="858" y2="510" stroke="#fff" stroke-opacity="0.25" stroke-width="8"/>
<rect x="880" y="260" width="88" height="118" rx="18" fill="#fff" fill-opacity="0.11" stroke="#f8e7a1" stroke-opacity="0.42"/><line x1="898" y1="380" x2="870" y2="510" stroke="#fff" stroke-opacity="0.25" stroke-width="8"/><line x1="950" y1="380" x2="978" y2="510" stroke="#fff" stroke-opacity="0.25" stroke-width="8"/>
  <rect x="565" y="242" width="96" height="134" rx="20" fill="none" stroke="#f8e7a1" stroke-width="8" stroke-dasharray="18 14"/><path d="M585 380l-32 132M642 380l32 132" stroke="#f8e7a1" stroke-width="8" stroke-dasharray="16 14"/>
  <text x="610" y="184" font-family="Georgia, serif" font-size="42" font-weight="900" fill="#f8fbff" text-anchor="middle">EMPTY CHAIR</text><g><rect x="500" y="206" width="220" height="34" rx="17" fill="#ffffff" fill-opacity="0.12" stroke="#f8e7a1" stroke-opacity="0.35"/><text x="514" y="229" font-family="Inter, Arial, sans-serif" font-size="15" font-weight="800" fill="#f8e7a1">Anthropic absent</text></g>
</g>
<g transform="translate(72 610)">
  <rect x="0" y="0" width="760" height="92" rx="28" fill="#08111f" fill-opacity="0.74" stroke="#ef476f" stroke-opacity="0.45" filter="url(#soft-07)"/>
  <text x="28" y="35" font-family="Inter, Arial, sans-serif" font-size="18" font-weight="900" fill="#ef476f" text-anchor="start">MISSING CHAIR</text>
  <text x="28" y="68" font-family="Georgia, serif" font-size="30" font-weight="850" fill="#f8fbff" text-anchor="start">Top AI firms, not Anthropic</text>
</g>
<g transform="translate(1018 624)">
  <circle cx="52" cy="52" r="52" fill="#ffffff" fill-opacity="0.11" stroke="#f8e7a1" stroke-opacity="0.6"/>
  <text x="52" y="65" font-family="Georgia, serif" font-size="42" font-weight="900" fill="#ffffff" text-anchor="middle">07</text>
</g>
</svg>
