<svg xmlns="http://www.w3.org/2000/svg" width="1200" height="760" viewBox="0 0 1200 760" role="img" aria-labelledby="title-21 desc-21">
<title id="title-21">600+ staff object</title>
<desc id="desc-21">An employee letter gathers hundreds of colored signatures around a memory of Maven. Editorial illustration only; not a social media screenshot.</desc>
<defs>
  <linearGradient id="bg-21" x1="0" y1="0" x2="1" y2="1"><stop offset="0" stop-color="#141725"/><stop offset="0.58" stop-color="#2e3558"/><stop offset="1" stop-color="#050914"/></linearGradient>
  <radialGradient id="glow-21" cx="66%" cy="32%" r="58%"><stop offset="0" stop-color="#a78bfa" stop-opacity="0.42"/><stop offset="1" stop-color="#a78bfa" stop-opacity="0"/></radialGradient>
  <pattern id="grid-21" width="52" height="52" patternUnits="userSpaceOnUse"><path d="M52 0H0V52" fill="none" stroke="#ffffff" stroke-opacity="0.055" stroke-width="2"/></pattern>
  <filter id="soft-21" x="-20%" y="-20%" width="140%" height="140%"><feDropShadow dx="0" dy="18" stdDeviation="18" flood-color="#000000" flood-opacity="0.32"/></filter>
</defs>
<rect width="1200" height="760" fill="url(#bg-21)"/>
<rect width="1200" height="760" fill="url(#glow-21)"/>
<rect width="1200" height="760" fill="url(#grid-21)"/>
<path d="M-80 620C130 515 242 638 422 518C605 396 704 412 844 302C973 201 1082 178 1280 242" fill="none" stroke="#ffffff" stroke-opacity="0.11" stroke-width="32"/>
<g filter="url(#soft-21)">
  <rect x="318" y="120" width="564" height="448" rx="32" fill="#f8fbff" fill-opacity="0.93" stroke="#a78bfa" stroke-width="6"/>
  <text x="600" y="190" font-family="Georgia, serif" font-size="34" font-weight="900" fill="#182033" text-anchor="middle">Employee letter</text>
  <path d="M388 245h418M388 292h350M388 339h390" stroke="#182033" stroke-opacity="0.34" stroke-width="9" stroke-linecap="round"/>
  <path d="M380 402c10-12 22 12 34 0" fill="none" stroke="#4285f4" stroke-width="4" stroke-linecap="round" opacity="0.82"/>
<path d="M407 402c10-12 22 12 34 0" fill="none" stroke="#ea4335" stroke-width="4" stroke-linecap="round" opacity="0.82"/>
<path d="M434 402c10-12 22 12 34 0" fill="none" stroke="#fbbc04" stroke-width="4" stroke-linecap="round" opacity="0.82"/>
<path d="M461 402c10-12 22 12 34 0" fill="none" stroke="#34a853" stroke-width="4" stroke-linecap="round" opacity="0.82"/>
<path d="M488 402c10-12 22 12 34 0" fill="none" stroke="#4285f4" stroke-width="4" stroke-linecap="round" opacity="0.82"/>
<path d="M515 402c10-12 22 12 34 0" fill="none" stroke="#ea4335" stroke-width="4" stroke-linecap="round" opacity="0.82"/>
<path d="M542 402c10-12 22 12 34 0" fill="none" stroke="#fbbc04" stroke-width="4" stroke-linecap="round" opacity="0.82"/>
<path d="M569 402c10-12 22 12 34 0" fill="none" stroke="#34a853" stroke-width="4" stroke-linecap="round" opacity="0.82"/>
<path d="M596 402c10-12 22 12 34 0" fill="none" stroke="#4285f4" stroke-width="4" stroke-linecap="round" opacity="0.82"/>
<path d="M623 402c10-12 22 12 34 0" fill="none" stroke="#ea4335" stroke-width="4" stroke-linecap="round" opacity="0.82"/>
<path d="M650 402c10-12 22 12 34 0" fill="none" stroke="#fbbc04" stroke-width="4" stroke-linecap="round" opacity="0.82"/>
<path d="M677 402c10-12 22 12 34 0" fill="none" stroke="#34a853" stroke-width="4" stroke-linecap="round" opacity="0.82"/>
<path d="M704 402c10-12 22 12 34 0" fill="none" stroke="#4285f4" stroke-width="4" stroke-linecap="round" opacity="0.82"/>
<path d="M731 402c10-12 22 12 34 0" fill="none" stroke="#ea4335" stroke-width="4" stroke-linecap="round" opacity="0.82"/>
<path d="M758 402c10-12 22 12 34 0" fill="none" stroke="#fbbc04" stroke-width="4" stroke-linecap="round" opacity="0.82"/>
<path d="M785 402c10-12 22 12 34 0" fill="none" stroke="#34a853" stroke-width="4" stroke-linecap="round" opacity="0.82"/>
<path d="M380 434c10-12 22 12 34 0" fill="none" stroke="#4285f4" stroke-width="4" stroke-linecap="round" opacity="0.82"/>
<path d="M407 434c10-12 22 12 34 0" fill="none" stroke="#ea4335" stroke-width="4" stroke-linecap="round" opacity="0.82"/>
<path d="M434 434c10-12 22 12 34 0" fill="none" stroke="#fbbc04" stroke-width="4" stroke-linecap="round" opacity="0.82"/>
<path d="M461 434c10-12 22 12 34 0" fill="none" stroke="#34a853" stroke-width="4" stroke-linecap="round" opacity="0.82"/>
<path d="M488 434c10-12 22 12 34 0" fill="none" stroke="#4285f4" stroke-width="4" stroke-linecap="round" opacity="0.82"/>
<path d="M515 434c10-12 22 12 34 0" fill="none" stroke="#ea4335" stroke-width="4" stroke-linecap="round" opacity="0.82"/>
<path d="M542 434c10-12 22 12 34 0" fill="none" stroke="#fbbc04" stroke-width="4" stroke-linecap="round" opacity="0.82"/>
<path d="M569 434c10-12 22 12 34 0" fill="none" stroke="#34a853" stroke-width="4" stroke-linecap="round" opacity="0.82"/>
<path d="M596 434c10-12 22 12 34 0" fill="none" stroke="#4285f4" stroke-width="4" stroke-linecap="round" opacity="0.82"/>
<path d="M623 434c10-12 22 12 34 0" fill="none" stroke="#ea4335" stroke-width="4" stroke-linecap="round" opacity="0.82"/>
<path d="M650 434c10-12 22 12 34 0" fill="none" stroke="#fbbc04" stroke-width="4" stroke-linecap="round" opacity="0.82"/>
<path d="M677 434c10-12 22 12 34 0" fill="none" stroke="#34a853" stroke-width="4" stroke-linecap="round" opacity="0.82"/>
<path d="M704 434c10-12 22 12 34 0" fill="none" stroke="#4285f4" stroke-width="4" stroke-linecap="round" opacity="0.82"/>
<path d="M731 434c10-12 22 12 34 0" fill="none" stroke="#ea4335" stroke-width="4" stroke-linecap="round" opacity="0.82"/>
<path d="M758 434c10-12 22 12 34 0" fill="none" stroke="#fbbc04" stroke-width="4" stroke-linecap="round" opacity="0.82"/>
<path d="M785 434c10-12 22 12 34 0" fill="none" stroke="#34a853" stroke-width="4" stroke-linecap="round" opacity="0.82"/>
<path d="M380 466c10-12 22 12 34 0" fill="none" stroke="#4285f4" stroke-width="4" stroke-linecap="round" opacity="0.82"/>
<path d="M407 466c10-12 22 12 34 0" fill="none" stroke="#ea4335" stroke-width="4" stroke-linecap="round" opacity="0.82"/>
<path d="M434 466c10-12 22 12 34 0" fill="none" stroke="#fbbc04" stroke-width="4" stroke-linecap="round" opacity="0.82"/>
<path d="M461 466c10-12 22 12 34 0" fill="none" stroke="#34a853" stroke-width="4" stroke-linecap="round" opacity="0.82"/>
<path d="M488 466c10-12 22 12 34 0" fill="none" stroke="#4285f4" stroke-width="4" stroke-linecap="round" opacity="0.82"/>
<path d="M515 466c10-12 22 12 34 0" fill="none" stroke="#ea4335" stroke-width="4" stroke-linecap="round" opacity="0.82"/>
<path d="M542 466c10-12 22 12 34 0" fill="none" stroke="#fbbc04" stroke-width="4" stroke-linecap="round" opacity="0.82"/>
<path d="M569 466c10-12 22 12 34 0" fill="none" stroke="#34a853" stroke-width="4" stroke-linecap="round" opacity="0.82"/>
<path d="M596 466c10-12 22 12 34 0" fill="none" stroke="#4285f4" stroke-width="4" stroke-linecap="round" opacity="0.82"/>
<path d="M623 466c10-12 22 12 34 0" fill="none" stroke="#ea4335" stroke-width="4" stroke-linecap="round" opacity="0.82"/>
<path d="M650 466c10-12 22 12 34 0" fill="none" stroke="#fbbc04" stroke-width="4" stroke-linecap="round" opacity="0.82"/>
<path d="M677 466c10-12 22 12 34 0" fill="none" stroke="#34a853" stroke-width="4" stroke-linecap="round" opacity="0.82"/>
<path d="M704 466c10-12 22 12 34 0" fill="none" stroke="#4285f4" stroke-width="4" stroke-linecap="round" opacity="0.82"/>
<path d="M731 466c10-12 22 12 34 0" fill="none" stroke="#ea4335" stroke-width="4" stroke-linecap="round" opacity="0.82"/>
<path d="M758 466c10-12 22 12 34 0" fill="none" stroke="#fbbc04" stroke-width="4" stroke-linecap="round" opacity="0.82"/>
<path d="M785 466c10-12 22 12 34 0" fill="none" stroke="#34a853" stroke-width="4" stroke-linecap="round" opacity="0.82"/>
<path d="M380 498c10-12 22 12 34 0" fill="none" stroke="#4285f4" stroke-width="4" stroke-linecap="round" opacity="0.82"/>
<path d="M407 498c10-12 22 12 34 0" fill="none" stroke="#ea4335" stroke-width="4" stroke-linecap="round" opacity="0.82"/>
<path d="M434 498c10-12 22 12 34 0" fill="none" stroke="#fbbc04" stroke-width="4" stroke-linecap="round" opacity="0.82"/>
<path d="M461 498c10-12 22 12 34 0" fill="none" stroke="#34a853" stroke-width="4" stroke-linecap="round" opacity="0.82"/>
<path d="M488 498c10-12 22 12 34 0" fill="none" stroke="#4285f4" stroke-width="4" stroke-linecap="round" opacity="0.82"/>
<path d="M515 498c10-12 22 12 34 0" fill="none" stroke="#ea4335" stroke-width="4" stroke-linecap="round" opacity="0.82"/>
<path d="M542 498c10-12 22 12 34 0" fill="none" stroke="#fbbc04" stroke-width="4" stroke-linecap="round" opacity="0.82"/>
<path d="M569 498c10-12 22 12 34 0" fill="none" stroke="#34a853" stroke-width="4" stroke-linecap="round" opacity="0.82"/>
<path d="M596 498c10-12 22 12 34 0" fill="none" stroke="#4285f4" stroke-width="4" stroke-linecap="round" opacity="0.82"/>
<path d="M623 498c10-12 22 12 34 0" fill="none" stroke="#ea4335" stroke-width="4" stroke-linecap="round" opacity="0.82"/>
<path d="M650 498c10-12 22 12 34 0" fill="none" stroke="#fbbc04" stroke-width="4" stroke-linecap="round" opacity="0.82"/>
<path d="M677 498c10-12 22 12 34 0" fill="none" stroke="#34a853" stroke-width="4" stroke-linecap="round" opacity="0.82"/>
<path d="M704 498c10-12 22 12 34 0" fill="none" stroke="#4285f4" stroke-width="4" stroke-linecap="round" opacity="0.82"/>
<path d="M731 498c10-12 22 12 34 0" fill="none" stroke="#ea4335" stroke-width="4" stroke-linecap="round" opacity="0.82"/>
<path d="M758 498c10-12 22 12 34 0" fill="none" stroke="#fbbc04" stroke-width="4" stroke-linecap="round" opacity="0.82"/>
<path d="M785 498c10-12 22 12 34 0" fill="none" stroke="#34a853" stroke-width="4" stroke-linecap="round" opacity="0.82"/>
  <rect x="208" y="302" width="156" height="106" rx="22" fill="#08111f" fill-opacity="0.8" stroke="#f4d35e" stroke-width="5"/><text x="286" y="368" font-family="Georgia, serif" font-size="44" font-weight="900" fill="#f8fbff" text-anchor="middle">600+</text>
  <g><rect x="705" y="502" width="172" height="34" rx="17" fill="#ffffff" fill-opacity="0.12" stroke="#a78bfa" stroke-opacity="0.35"/><text x="719" y="525" font-family="Inter, Arial, sans-serif" font-size="15" font-weight="800" fill="#a78bfa">Maven memory</text></g>
</g>
<g transform="translate(72 610)">
  <rect x="0" y="0" width="760" height="92" rx="28" fill="#08111f" fill-opacity="0.74" stroke="#a78bfa" stroke-opacity="0.45" filter="url(#soft-21)"/>
  <text x="28" y="35" font-family="Inter, Arial, sans-serif" font-size="18" font-weight="900" fill="#a78bfa" text-anchor="start">WORKER LETTER</text>
  <text x="28" y="68" font-family="Georgia, serif" font-size="30" font-weight="850" fill="#f8fbff" text-anchor="start">600+ staff object</text>
</g>
<g transform="translate(1018 624)">
  <circle cx="52" cy="52" r="52" fill="#ffffff" fill-opacity="0.11" stroke="#f4d35e" stroke-opacity="0.6"/>
  <text x="52" y="65" font-family="Georgia, serif" font-size="42" font-weight="900" fill="#ffffff" text-anchor="middle">21</text>
</g>
</svg>
