<svg xmlns="http://www.w3.org/2000/svg" width="1200" height="760" viewBox="0 0 1200 760" role="img" aria-labelledby="title-31 desc-31">
<title id="title-31">Audit, routing, return, limits</title>
<desc id="desc-31">Four watch-list questions sit under a magnifying glass for the next year. Editorial illustration only; not a social media screenshot.</desc>
<defs>
  <linearGradient id="bg-31" x1="0" y1="0" x2="1" y2="1"><stop offset="0" stop-color="#181723"/><stop offset="0.58" stop-color="#3b3046"/><stop offset="1" stop-color="#050914"/></linearGradient>
  <radialGradient id="glow-31" cx="66%" cy="32%" r="58%"><stop offset="0" stop-color="#ef476f" stop-opacity="0.42"/><stop offset="1" stop-color="#ef476f" stop-opacity="0"/></radialGradient>
  <pattern id="grid-31" width="52" height="52" patternUnits="userSpaceOnUse"><path d="M52 0H0V52" fill="none" stroke="#ffffff" stroke-opacity="0.055" stroke-width="2"/></pattern>
  <filter id="soft-31" x="-20%" y="-20%" width="140%" height="140%"><feDropShadow dx="0" dy="18" stdDeviation="18" flood-color="#000000" flood-opacity="0.32"/></filter>
</defs>
<rect width="1200" height="760" fill="url(#bg-31)"/>
<rect width="1200" height="760" fill="url(#glow-31)"/>
<rect width="1200" height="760" fill="url(#grid-31)"/>
<path d="M-80 620C130 515 242 638 422 518C605 396 704 412 844 302C973 201 1082 178 1280 242" fill="none" stroke="#ffffff" stroke-opacity="0.11" stroke-width="32"/>
<g filter="url(#soft-31)">
  <circle cx="835" cy="225" r="98" fill="none" stroke="#f8e7a1" stroke-width="16"/><path d="M902 292l105 105" stroke="#f8e7a1" stroke-width="18" stroke-linecap="round"/>
  <g transform="translate(245 185)"><rect x="0" y="0" width="245" height="112" rx="24" fill="#08111f" fill-opacity="0.8" stroke="#ef476f" stroke-width="5"/><text x="122" y="68" font-family="Inter, Arial" font-size="29" font-weight="900" fill="#fff" text-anchor="middle">AUDIT</text><circle cx="212" cy="30" r="17" fill="#f8e7a1"/><text x="212" y="37" font-family="Inter, Arial" font-size="24" font-weight="900" fill="#08111f" text-anchor="middle">?</text></g>
<g transform="translate(545 185)"><rect x="0" y="0" width="245" height="112" rx="24" fill="#08111f" fill-opacity="0.8" stroke="#f8e7a1" stroke-width="5"/><text x="122" y="68" font-family="Inter, Arial" font-size="29" font-weight="900" fill="#fff" text-anchor="middle">ROUTING</text><circle cx="212" cy="30" r="17" fill="#f8e7a1"/><text x="212" y="37" font-family="Inter, Arial" font-size="24" font-weight="900" fill="#08111f" text-anchor="middle">?</text></g>
<g transform="translate(245 345)"><rect x="0" y="0" width="245" height="112" rx="24" fill="#08111f" fill-opacity="0.8" stroke="#ef476f" stroke-width="5"/><text x="122" y="68" font-family="Inter, Arial" font-size="29" font-weight="900" fill="#fff" text-anchor="middle">RETURN</text><circle cx="212" cy="30" r="17" fill="#f8e7a1"/><text x="212" y="37" font-family="Inter, Arial" font-size="24" font-weight="900" fill="#08111f" text-anchor="middle">?</text></g>
<g transform="translate(545 345)"><rect x="0" y="0" width="245" height="112" rx="24" fill="#08111f" fill-opacity="0.8" stroke="#f8e7a1" stroke-width="5"/><text x="122" y="68" font-family="Inter, Arial" font-size="29" font-weight="900" fill="#fff" text-anchor="middle">LIMITS</text><circle cx="212" cy="30" r="17" fill="#f8e7a1"/><text x="212" y="37" font-family="Inter, Arial" font-size="24" font-weight="900" fill="#08111f" text-anchor="middle">?</text></g>
  <g><rect x="728" y="432" width="136" height="34" rx="17" fill="#ffffff" fill-opacity="0.12" stroke="#f8e7a1" stroke-opacity="0.35"/><text x="742" y="455" font-family="Inter, Arial, sans-serif" font-size="15" font-weight="800" fill="#f8e7a1">next year</text></g>
</g>
<g transform="translate(72 610)">
  <rect x="0" y="0" width="760" height="92" rx="28" fill="#08111f" fill-opacity="0.74" stroke="#ef476f" stroke-opacity="0.45" filter="url(#soft-31)"/>
  <text x="28" y="35" font-family="Inter, Arial, sans-serif" font-size="18" font-weight="900" fill="#ef476f" text-anchor="start">WATCH LIST</text>
  <text x="28" y="68" font-family="Georgia, serif" font-size="30" font-weight="850" fill="#f8fbff" text-anchor="start">Audit, routing, return, limits</text>
</g>
<g transform="translate(1018 624)">
  <circle cx="52" cy="52" r="52" fill="#ffffff" fill-opacity="0.11" stroke="#f8e7a1" stroke-opacity="0.6"/>
  <text x="52" y="65" font-family="Georgia, serif" font-size="42" font-weight="900" fill="#ffffff" text-anchor="middle">31</text>
</g>
</svg>
