<svg xmlns="http://www.w3.org/2000/svg" width="1200" height="760" viewBox="0 0 1200 760" role="img" aria-labelledby="title-18 desc-18">
<title id="title-18">Appropriate levels of human control</title>
<desc id="desc-18">A human hand keeps a decision loop open between sensors, commanders, and force policy. Editorial illustration only; not a social media screenshot.</desc>
<defs>
  <linearGradient id="bg-18" x1="0" y1="0" x2="1" y2="1"><stop offset="0" stop-color="#172033"/><stop offset="0.58" stop-color="#3a2d65"/><stop offset="1" stop-color="#050914"/></linearGradient>
  <radialGradient id="glow-18" cx="66%" cy="32%" r="58%"><stop offset="0" stop-color="#f05f7d" stop-opacity="0.42"/><stop offset="1" stop-color="#f05f7d" stop-opacity="0"/></radialGradient>
  <pattern id="grid-18" width="52" height="52" patternUnits="userSpaceOnUse"><path d="M52 0H0V52" fill="none" stroke="#ffffff" stroke-opacity="0.055" stroke-width="2"/></pattern>
  <filter id="soft-18" x="-20%" y="-20%" width="140%" height="140%"><feDropShadow dx="0" dy="18" stdDeviation="18" flood-color="#000000" flood-opacity="0.32"/></filter>
</defs>
<rect width="1200" height="760" fill="url(#bg-18)"/>
<rect width="1200" height="760" fill="url(#glow-18)"/>
<rect width="1200" height="760" fill="url(#grid-18)"/>
<path d="M-80 620C130 515 242 638 422 518C605 396 704 412 844 302C973 201 1082 178 1280 242" fill="none" stroke="#ffffff" stroke-opacity="0.11" stroke-width="32"/>
<g filter="url(#soft-18)">
  <circle cx="600" cy="335" r="200" fill="#08111f" fill-opacity="0.74" stroke="#f05f7d" stroke-width="6"/>
  <path d="M600 135a200 200 0 0 1 166 310" fill="none" stroke="#ffd166" stroke-width="12" stroke-linecap="round"/><path d="M600 535a200 200 0 0 1-166-310" fill="none" stroke="#ffd166" stroke-width="12" stroke-linecap="round"/>
  <path d="M470 390c55-56 105-82 156-70 36 9 71 35 111 24 22-6 42-23 62-42v82c-58 46-111 62-168 42-50-17-85-5-140 52z" fill="#ffd166" fill-opacity="0.26" stroke="#fff" stroke-opacity="0.35" stroke-width="4"/>
  <circle cx="600" cy="335" r="62" fill="#f05f7d" fill-opacity="0.5" stroke="#fff" stroke-opacity="0.45" stroke-width="5"/>
  <text x="600" y="344" font-family="Inter, Arial" font-size="26" font-weight="900" fill="#f8fbff" text-anchor="middle">HUMAN</text><g><rect x="224" y="166" width="244" height="34" rx="17" fill="#ffffff" fill-opacity="0.12" stroke="#ffd166" stroke-opacity="0.35"/><text x="238" y="189" font-family="Inter, Arial, sans-serif" font-size="15" font-weight="800" fill="#ffd166">open decision loop</text></g>
</g>
<g transform="translate(72 610)">
  <rect x="0" y="0" width="760" height="92" rx="28" fill="#08111f" fill-opacity="0.74" stroke="#f05f7d" stroke-opacity="0.45" filter="url(#soft-18)"/>
  <text x="28" y="35" font-family="Inter, Arial, sans-serif" font-size="18" font-weight="900" fill="#f05f7d" text-anchor="start">HUMAN JUDGMENT</text>
  <text x="28" y="68" font-family="Georgia, serif" font-size="30" font-weight="850" fill="#f8fbff" text-anchor="start">Appropriate levels of human control</text>
</g>
<g transform="translate(1018 624)">
  <circle cx="52" cy="52" r="52" fill="#ffffff" fill-opacity="0.11" stroke="#ffd166" stroke-opacity="0.6"/>
  <text x="52" y="65" font-family="Georgia, serif" font-size="42" font-weight="900" fill="#ffffff" text-anchor="middle">18</text>
</g>
</svg>
