<svg xmlns="http://www.w3.org/2000/svg" width="1200" height="760" viewBox="0 0 1200 760" role="img" aria-labelledby="title-01 desc-01">
<title id="title-01">Eight companies, classified networks</title>
<desc id="desc-01">A Pentagon-like courtyard connected to eight secured AI and cloud vendor nodes. Editorial illustration only; not a social media screenshot.</desc>
<defs>
  <linearGradient id="bg-01" x1="0" y1="0" x2="1" y2="1"><stop offset="0" stop-color="#111827"/><stop offset="0.58" stop-color="#21345a"/><stop offset="1" stop-color="#050914"/></linearGradient>
  <radialGradient id="glow-01" cx="66%" cy="32%" r="58%"><stop offset="0" stop-color="#70c7ff" stop-opacity="0.42"/><stop offset="1" stop-color="#70c7ff" stop-opacity="0"/></radialGradient>
  <pattern id="grid-01" width="52" height="52" patternUnits="userSpaceOnUse"><path d="M52 0H0V52" fill="none" stroke="#ffffff" stroke-opacity="0.055" stroke-width="2"/></pattern>
  <filter id="soft-01" x="-20%" y="-20%" width="140%" height="140%"><feDropShadow dx="0" dy="18" stdDeviation="18" flood-color="#000000" flood-opacity="0.32"/></filter>
</defs>
<rect width="1200" height="760" fill="url(#bg-01)"/>
<rect width="1200" height="760" fill="url(#glow-01)"/>
<rect width="1200" height="760" fill="url(#grid-01)"/>
<path d="M-80 620C130 515 242 638 422 518C605 396 704 412 844 302C973 201 1082 178 1280 242" fill="none" stroke="#ffffff" stroke-opacity="0.11" stroke-width="32"/>
<g filter="url(#soft-01)">
  <polygon points="600,150 835,250 780,515 420,515 365,250" fill="#0b1320" fill-opacity="0.78" stroke="#70c7ff" stroke-width="6"/>
  <polygon points="600,230 725,285 697,430 503,430 475,285" fill="#70c7ff" fill-opacity="0.12" stroke="#f0c66b" stroke-opacity="0.7" stroke-width="4"/>
  <line x1="600" y1="330" x2="600.0" y2="115.0" stroke="#70c7ff" stroke-opacity="0.35" stroke-width="4"/><circle cx="600.0" cy="115.0" r="38" fill="#f8fbff" fill-opacity="0.12" stroke="#f0c66b" stroke-width="4"/><text x="600.0" y="120.0" font-family="Inter, Arial, sans-serif" font-size="13" font-weight="900" fill="#ffffff" text-anchor="middle">SpaceX</text>
<line x1="600" y1="330" x2="783.8" y2="175.0" stroke="#70c7ff" stroke-opacity="0.35" stroke-width="4"/><circle cx="783.8" cy="175.0" r="38" fill="#f8fbff" fill-opacity="0.12" stroke="#f0c66b" stroke-width="4"/><text x="783.8" y="180.0" font-family="Inter, Arial, sans-serif" font-size="13" font-weight="900" fill="#ffffff" text-anchor="middle">OpenAI</text>
<line x1="600" y1="330" x2="860.0" y2="320.0" stroke="#70c7ff" stroke-opacity="0.35" stroke-width="4"/><circle cx="860.0" cy="320.0" r="38" fill="#f8fbff" fill-opacity="0.12" stroke="#f0c66b" stroke-width="4"/><text x="860.0" y="325.0" font-family="Inter, Arial, sans-serif" font-size="13" font-weight="900" fill="#ffffff" text-anchor="middle">Google</text>
<line x1="600" y1="330" x2="783.8" y2="465.0" stroke="#70c7ff" stroke-opacity="0.35" stroke-width="4"/><circle cx="783.8" cy="465.0" r="38" fill="#f8fbff" fill-opacity="0.12" stroke="#f0c66b" stroke-width="4"/><text x="783.8" y="470.0" font-family="Inter, Arial, sans-serif" font-size="13" font-weight="900" fill="#ffffff" text-anchor="middle">NVIDIA</text>
<line x1="600" y1="330" x2="600.0" y2="525.0" stroke="#70c7ff" stroke-opacity="0.35" stroke-width="4"/><circle cx="600.0" cy="525.0" r="38" fill="#f8fbff" fill-opacity="0.12" stroke="#f0c66b" stroke-width="4"/><text x="600.0" y="530.0" font-family="Inter, Arial, sans-serif" font-size="13" font-weight="900" fill="#ffffff" text-anchor="middle">Reflection</text>
<line x1="600" y1="330" x2="416.2" y2="465.0" stroke="#70c7ff" stroke-opacity="0.35" stroke-width="4"/><circle cx="416.2" cy="465.0" r="38" fill="#f8fbff" fill-opacity="0.12" stroke="#f0c66b" stroke-width="4"/><text x="416.2" y="470.0" font-family="Inter, Arial, sans-serif" font-size="13" font-weight="900" fill="#ffffff" text-anchor="middle">Microsoft</text>
<line x1="600" y1="330" x2="340.0" y2="320.0" stroke="#70c7ff" stroke-opacity="0.35" stroke-width="4"/><circle cx="340.0" cy="320.0" r="38" fill="#f8fbff" fill-opacity="0.12" stroke="#f0c66b" stroke-width="4"/><text x="340.0" y="325.0" font-family="Inter, Arial, sans-serif" font-size="13" font-weight="900" fill="#ffffff" text-anchor="middle">AWS</text>
<line x1="600" y1="330" x2="416.2" y2="175.0" stroke="#70c7ff" stroke-opacity="0.35" stroke-width="4"/><circle cx="416.2" cy="175.0" r="38" fill="#f8fbff" fill-opacity="0.12" stroke="#f0c66b" stroke-width="4"/><text x="416.2" y="180.0" font-family="Inter, Arial, sans-serif" font-size="13" font-weight="900" fill="#ffffff" text-anchor="middle">Oracle</text>
  <text x="600" y="342" font-family="Inter, Arial, sans-serif" font-size="30" font-weight="900" fill="#f8fbff" text-anchor="middle">CLASSIFIED</text>
  <text x="600" y="380" font-family="Inter, Arial, sans-serif" font-size="30" font-weight="900" fill="#f8fbff" text-anchor="middle">NETWORKS</text>
</g>
<g transform="translate(72 610)">
  <rect x="0" y="0" width="760" height="92" rx="28" fill="#08111f" fill-opacity="0.74" stroke="#70c7ff" stroke-opacity="0.45" filter="url(#soft-01)"/>
  <text x="28" y="35" font-family="Inter, Arial, sans-serif" font-size="18" font-weight="900" fill="#70c7ff" text-anchor="start">8 VENDORS</text>
  <text x="28" y="68" font-family="Georgia, serif" font-size="30" font-weight="850" fill="#f8fbff" text-anchor="start">Eight companies, classified networks</text>
</g>
<g transform="translate(1018 624)">
  <circle cx="52" cy="52" r="52" fill="#ffffff" fill-opacity="0.11" stroke="#f0c66b" stroke-opacity="0.6"/>
  <text x="52" y="65" font-family="Georgia, serif" font-size="42" font-weight="900" fill="#ffffff" text-anchor="middle">01</text>
</g>
</svg>
