<svg xmlns="http://www.w3.org/2000/svg" width="1200" height="760" viewBox="0 0 1200 760" role="img" aria-labelledby="title-14 desc-14">
<title id="title-14">Claude barred from Pentagon work</title>
<desc id="desc-14">A barred access credential marks a supply-chain-risk designation. Editorial illustration only; not a social media screenshot.</desc>
<defs>
  <linearGradient id="bg-14" x1="0" y1="0" x2="1" y2="1"><stop offset="0" stop-color="#0f1b2d"/><stop offset="0.58" stop-color="#263e52"/><stop offset="1" stop-color="#050914"/></linearGradient>
  <radialGradient id="glow-14" cx="66%" cy="32%" r="58%"><stop offset="0" stop-color="#f97316" stop-opacity="0.42"/><stop offset="1" stop-color="#f97316" stop-opacity="0"/></radialGradient>
  <pattern id="grid-14" width="52" height="52" patternUnits="userSpaceOnUse"><path d="M52 0H0V52" fill="none" stroke="#ffffff" stroke-opacity="0.055" stroke-width="2"/></pattern>
  <filter id="soft-14" x="-20%" y="-20%" width="140%" height="140%"><feDropShadow dx="0" dy="18" stdDeviation="18" flood-color="#000000" flood-opacity="0.32"/></filter>
</defs>
<rect width="1200" height="760" fill="url(#bg-14)"/>
<rect width="1200" height="760" fill="url(#glow-14)"/>
<rect width="1200" height="760" fill="url(#grid-14)"/>
<path d="M-80 620C130 515 242 638 422 518C605 396 704 412 844 302C973 201 1082 178 1280 242" fill="none" stroke="#ffffff" stroke-opacity="0.11" stroke-width="32"/>
<g filter="url(#soft-14)">
  <rect x="330" y="155" width="540" height="375" rx="36" fill="#08111f" fill-opacity="0.82" stroke="#f97316" stroke-width="7"/>
  <circle cx="468" cy="302" r="72" fill="#fff" fill-opacity="0.12" stroke="#93e5ab" stroke-width="5"/>
  <path d="M418 252l100 100M518 252L418 352" stroke="#93e5ab" stroke-width="14" stroke-linecap="round"/>
  <text x="612" y="286" font-family="Inter, Arial" font-size="32" font-weight="900" fill="#fff">ACCESS</text>
  <text x="612" y="326" font-family="Inter, Arial" font-size="32" font-weight="900" fill="#fff">RESTRICTED</text>
  <path d="M310 528L902 155" stroke="#ef4444" stroke-width="22" stroke-linecap="round" opacity="0.88"/>
  <g><rect x="394" y="448" width="232" height="34" rx="17" fill="#ffffff" fill-opacity="0.12" stroke="#93e5ab" stroke-opacity="0.35"/><text x="408" y="471" font-family="Inter, Arial, sans-serif" font-size="15" font-weight="800" fill="#93e5ab">supply-chain-risk</text></g>
</g>
<g transform="translate(72 610)">
  <rect x="0" y="0" width="760" height="92" rx="28" fill="#08111f" fill-opacity="0.74" stroke="#f97316" stroke-opacity="0.45" filter="url(#soft-14)"/>
  <text x="28" y="35" font-family="Inter, Arial, sans-serif" font-size="18" font-weight="900" fill="#f97316" text-anchor="start">SUPPLY-CHAIN RISK</text>
  <text x="28" y="68" font-family="Georgia, serif" font-size="30" font-weight="850" fill="#f8fbff" text-anchor="start">Claude barred from Pentagon work</text>
</g>
<g transform="translate(1018 624)">
  <circle cx="52" cy="52" r="52" fill="#ffffff" fill-opacity="0.11" stroke="#93e5ab" stroke-opacity="0.6"/>
  <text x="52" y="65" font-family="Georgia, serif" font-size="42" font-weight="900" fill="#ffffff" text-anchor="middle">14</text>
</g>
</svg>
