<svg xmlns="http://www.w3.org/2000/svg" width="1200" height="760" viewBox="0 0 1200 760" role="img" aria-labelledby="title-13 desc-13">
<title id="title-13">Anthropic sues</title>
<desc id="desc-13">A courthouse, contract pages, and guardrail clauses turn procurement into litigation. Editorial illustration only; not a social media screenshot.</desc>
<defs>
  <linearGradient id="bg-13" x1="0" y1="0" x2="1" y2="1"><stop offset="0" stop-color="#141725"/><stop offset="0.58" stop-color="#2e3558"/><stop offset="1" stop-color="#050914"/></linearGradient>
  <radialGradient id="glow-13" cx="66%" cy="32%" r="58%"><stop offset="0" stop-color="#a78bfa" stop-opacity="0.42"/><stop offset="1" stop-color="#a78bfa" stop-opacity="0"/></radialGradient>
  <pattern id="grid-13" width="52" height="52" patternUnits="userSpaceOnUse"><path d="M52 0H0V52" fill="none" stroke="#ffffff" stroke-opacity="0.055" stroke-width="2"/></pattern>
  <filter id="soft-13" x="-20%" y="-20%" width="140%" height="140%"><feDropShadow dx="0" dy="18" stdDeviation="18" flood-color="#000000" flood-opacity="0.32"/></filter>
</defs>
<rect width="1200" height="760" fill="url(#bg-13)"/>
<rect width="1200" height="760" fill="url(#glow-13)"/>
<rect width="1200" height="760" fill="url(#grid-13)"/>
<path d="M-80 620C130 515 242 638 422 518C605 396 704 412 844 302C973 201 1082 178 1280 242" fill="none" stroke="#ffffff" stroke-opacity="0.11" stroke-width="32"/>
<g filter="url(#soft-13)">
  <polygon points="600,126 885,244 315,244" fill="#fff" fill-opacity="0.13" stroke="#a78bfa" stroke-width="6"/>
  <rect x="365" y="244" width="470" height="62" fill="#fff" fill-opacity="0.11"/>
  <rect x="410" y="306" width="60" height="178" fill="#08111f" stroke="#f4d35e" stroke-width="4"/>
<rect x="520" y="306" width="60" height="178" fill="#08111f" stroke="#f4d35e" stroke-width="4"/>
<rect x="630" y="306" width="60" height="178" fill="#08111f" stroke="#f4d35e" stroke-width="4"/>
<rect x="740" y="306" width="60" height="178" fill="#08111f" stroke="#f4d35e" stroke-width="4"/>
  <rect x="330" y="484" width="540" height="55" fill="#fff" fill-opacity="0.12" stroke="#a78bfa" stroke-width="4"/>
  <rect x="805" y="175" width="190" height="230" rx="20" fill="#08111f" fill-opacity="0.84" stroke="#f4d35e" stroke-width="5" transform="rotate(8 900 290)"/>
  <path d="M845 240h110M845 286h92M845 332h112" stroke="#fff" stroke-opacity="0.45" stroke-width="7"/>
  <g><rect x="250" y="150" width="256" height="34" rx="17" fill="#ffffff" fill-opacity="0.12" stroke="#f4d35e" stroke-opacity="0.35"/><text x="264" y="173" font-family="Inter, Arial, sans-serif" font-size="15" font-weight="800" fill="#f4d35e">guardrails in court</text></g>
</g>
<g transform="translate(72 610)">
  <rect x="0" y="0" width="760" height="92" rx="28" fill="#08111f" fill-opacity="0.74" stroke="#a78bfa" stroke-opacity="0.45" filter="url(#soft-13)"/>
  <text x="28" y="35" font-family="Inter, Arial, sans-serif" font-size="18" font-weight="900" fill="#a78bfa" text-anchor="start">LAWSUIT</text>
  <text x="28" y="68" font-family="Georgia, serif" font-size="30" font-weight="850" fill="#f8fbff" text-anchor="start">Anthropic sues</text>
</g>
<g transform="translate(1018 624)">
  <circle cx="52" cy="52" r="52" fill="#ffffff" fill-opacity="0.11" stroke="#f4d35e" stroke-opacity="0.6"/>
  <text x="52" y="65" font-family="Georgia, serif" font-size="42" font-weight="900" fill="#ffffff" text-anchor="middle">13</text>
</g>
</svg>
