<svg xmlns="http://www.w3.org/2000/svg" width="1200" height="760" viewBox="0 0 1200 760" role="img" aria-labelledby="title-17 desc-17">
<title id="title-17">No mass domestic surveillance</title>
<desc id="desc-17">A guardrail fence shields homes and civic data while blocking autonomous weapon use. Editorial illustration only; not a social media screenshot.</desc>
<defs>
  <linearGradient id="bg-17" x1="0" y1="0" x2="1" y2="1"><stop offset="0" stop-color="#111827"/><stop offset="0.58" stop-color="#21345a"/><stop offset="1" stop-color="#050914"/></linearGradient>
  <radialGradient id="glow-17" cx="66%" cy="32%" r="58%"><stop offset="0" stop-color="#70c7ff" stop-opacity="0.42"/><stop offset="1" stop-color="#70c7ff" stop-opacity="0"/></radialGradient>
  <pattern id="grid-17" width="52" height="52" patternUnits="userSpaceOnUse"><path d="M52 0H0V52" fill="none" stroke="#ffffff" stroke-opacity="0.055" stroke-width="2"/></pattern>
  <filter id="soft-17" x="-20%" y="-20%" width="140%" height="140%"><feDropShadow dx="0" dy="18" stdDeviation="18" flood-color="#000000" flood-opacity="0.32"/></filter>
</defs>
<rect width="1200" height="760" fill="url(#bg-17)"/>
<rect width="1200" height="760" fill="url(#glow-17)"/>
<rect width="1200" height="760" fill="url(#grid-17)"/>
<path d="M-80 620C130 515 242 638 422 518C605 396 704 412 844 302C973 201 1082 178 1280 242" fill="none" stroke="#ffffff" stroke-opacity="0.11" stroke-width="32"/>
<g filter="url(#soft-17)">
  <path d="M220 468h760" stroke="#f0c66b" stroke-width="16" stroke-linecap="round"/>
  <rect x="250" y="250" width="28" height="230" rx="14" fill="#f0c66b" fill-opacity="0.75"/>
<rect x="336" y="250" width="28" height="230" rx="14" fill="#f0c66b" fill-opacity="0.75"/>
<rect x="422" y="250" width="28" height="230" rx="14" fill="#f0c66b" fill-opacity="0.75"/>
<rect x="508" y="250" width="28" height="230" rx="14" fill="#f0c66b" fill-opacity="0.75"/>
<rect x="594" y="250" width="28" height="230" rx="14" fill="#f0c66b" fill-opacity="0.75"/>
<rect x="680" y="250" width="28" height="230" rx="14" fill="#f0c66b" fill-opacity="0.75"/>
<rect x="766" y="250" width="28" height="230" rx="14" fill="#f0c66b" fill-opacity="0.75"/>
<rect x="852" y="250" width="28" height="230" rx="14" fill="#f0c66b" fill-opacity="0.75"/>
  <path d="M345 405v-86l70-60 70 60v86z" fill="#fff" fill-opacity="0.13" stroke="#70c7ff" stroke-width="5"/>
  <path d="M635 405v-88l72-58 72 58v88z" fill="#fff" fill-opacity="0.13" stroke="#70c7ff" stroke-width="5"/>
  <circle cx="866" cy="316" r="68" fill="#ef4444" fill-opacity="0.15" stroke="#ef4444" stroke-width="7"/><path d="M820 270l92 92" stroke="#ef4444" stroke-width="10" stroke-linecap="round"/>
  <g><rect x="244" y="150" width="280" height="34" rx="17" fill="#ffffff" fill-opacity="0.12" stroke="#70c7ff" stroke-opacity="0.35"/><text x="258" y="173" font-family="Inter, Arial, sans-serif" font-size="15" font-weight="800" fill="#70c7ff">domestic surveillance</text></g>
<g><rect x="244" y="194" width="244" height="34" rx="17" fill="#ffffff" fill-opacity="0.12" stroke="#f0c66b" stroke-opacity="0.35"/><text x="258" y="217" font-family="Inter, Arial, sans-serif" font-size="15" font-weight="800" fill="#f0c66b">autonomous weapons</text></g>
<g><rect x="244" y="238" width="136" height="34" rx="17" fill="#ffffff" fill-opacity="0.12" stroke="#70c7ff" stroke-opacity="0.35"/><text x="258" y="261" font-family="Inter, Arial, sans-serif" font-size="15" font-weight="800" fill="#70c7ff">decisions</text></g>
</g>
<g transform="translate(72 610)">
  <rect x="0" y="0" width="760" height="92" rx="28" fill="#08111f" fill-opacity="0.74" stroke="#70c7ff" stroke-opacity="0.45" filter="url(#soft-17)"/>
  <text x="28" y="35" font-family="Inter, Arial, sans-serif" font-size="18" font-weight="900" fill="#70c7ff" text-anchor="start">RED LINES</text>
  <text x="28" y="68" font-family="Georgia, serif" font-size="30" font-weight="850" fill="#f8fbff" text-anchor="start">No mass domestic surveillance</text>
</g>
<g transform="translate(1018 624)">
  <circle cx="52" cy="52" r="52" fill="#ffffff" fill-opacity="0.11" stroke="#f0c66b" stroke-opacity="0.6"/>
  <text x="52" y="65" font-family="Georgia, serif" font-size="42" font-weight="900" fill="#ffffff" text-anchor="middle">17</text>
</g>
</svg>
