<svg xmlns="http://www.w3.org/2000/svg" width="1200" height="760" viewBox="0 0 1200 760" role="img" aria-labelledby="title-28 desc-28">
<title id="title-28">NVIDIA, Microsoft, AWS, Reflection</title>
<desc id="desc-28">Four infrastructure blocks feed a classified cloud after the Anthropic dispute. Editorial illustration only; not a social media screenshot.</desc>
<defs>
  <linearGradient id="bg-28" x1="0" y1="0" x2="1" y2="1"><stop offset="0" stop-color="#121726"/><stop offset="0.58" stop-color="#243f5f"/><stop offset="1" stop-color="#050914"/></linearGradient>
  <radialGradient id="glow-28" cx="66%" cy="32%" r="58%"><stop offset="0" stop-color="#f36f45" stop-opacity="0.42"/><stop offset="1" stop-color="#f36f45" stop-opacity="0"/></radialGradient>
  <pattern id="grid-28" width="52" height="52" patternUnits="userSpaceOnUse"><path d="M52 0H0V52" fill="none" stroke="#ffffff" stroke-opacity="0.055" stroke-width="2"/></pattern>
  <filter id="soft-28" x="-20%" y="-20%" width="140%" height="140%"><feDropShadow dx="0" dy="18" stdDeviation="18" flood-color="#000000" flood-opacity="0.32"/></filter>
</defs>
<rect width="1200" height="760" fill="url(#bg-28)"/>
<rect width="1200" height="760" fill="url(#glow-28)"/>
<rect width="1200" height="760" fill="url(#grid-28)"/>
<path d="M-80 620C130 515 242 638 422 518C605 396 704 412 844 302C973 201 1082 178 1280 242" fill="none" stroke="#ffffff" stroke-opacity="0.11" stroke-width="32"/>
<g filter="url(#soft-28)">
  <path d="M258 458h684c50 0 90-39 90-87s-40-86-90-86h-16c-22-74-97-126-184-118-48-52-133-68-196-28-75-39-174-13-217 57-71 9-125 62-125 126 0 75 24 136 54 136z" fill="#fff" fill-opacity="0.1" stroke="#f36f45" stroke-width="6"/>
  <g transform="translate(285 304)"><rect x="0" y="0" width="178" height="88" rx="22" fill="#08111f" fill-opacity="0.86" stroke="#f36f45" stroke-width="5"/><text x="89" y="54" font-family="Inter, Arial" font-size="20" font-weight="900" fill="#fff" text-anchor="middle">NVIDIA</text></g>
<g transform="translate(503 304)"><rect x="0" y="0" width="178" height="88" rx="22" fill="#08111f" fill-opacity="0.86" stroke="#87d8ff" stroke-width="5"/><text x="89" y="54" font-family="Inter, Arial" font-size="20" font-weight="900" fill="#fff" text-anchor="middle">MICROSOFT</text></g>
<g transform="translate(721 304)"><rect x="0" y="0" width="178" height="88" rx="22" fill="#08111f" fill-opacity="0.86" stroke="#f36f45" stroke-width="5"/><text x="89" y="54" font-family="Inter, Arial" font-size="20" font-weight="900" fill="#fff" text-anchor="middle">AWS</text></g>
<g transform="translate(939 304)"><rect x="0" y="0" width="178" height="88" rx="22" fill="#08111f" fill-opacity="0.86" stroke="#87d8ff" stroke-width="5"/><text x="89" y="54" font-family="Inter, Arial" font-size="20" font-weight="900" fill="#fff" text-anchor="middle">REFLECTION</text></g>
  <path d="M373 392v86M591 392v86M809 392v86M1027 392v86M373 478h654" stroke="#87d8ff" stroke-width="7" stroke-linecap="round"/>
  <g><rect x="310" y="168" width="232" height="34" rx="17" fill="#ffffff" fill-opacity="0.12" stroke="#87d8ff" stroke-opacity="0.35"/><text x="324" y="191" font-family="Inter, Arial, sans-serif" font-size="15" font-weight="800" fill="#87d8ff">diversified stack</text></g>
</g>
<g transform="translate(72 610)">
  <rect x="0" y="0" width="760" height="92" rx="28" fill="#08111f" fill-opacity="0.74" stroke="#f36f45" stroke-opacity="0.45" filter="url(#soft-28)"/>
  <text x="28" y="35" font-family="Inter, Arial, sans-serif" font-size="18" font-weight="900" fill="#f36f45" text-anchor="start">SECOND WAVE</text>
  <text x="28" y="68" font-family="Georgia, serif" font-size="30" font-weight="850" fill="#f8fbff" text-anchor="start">NVIDIA, Microsoft, AWS, Reflection</text>
</g>
<g transform="translate(1018 624)">
  <circle cx="52" cy="52" r="52" fill="#ffffff" fill-opacity="0.11" stroke="#87d8ff" stroke-opacity="0.6"/>
  <text x="52" y="65" font-family="Georgia, serif" font-size="42" font-weight="900" fill="#ffffff" text-anchor="middle">28</text>
</g>
</svg>
