<svg xmlns="http://www.w3.org/2000/svg" width="1200" height="760" viewBox="0 0 1200 760" role="img" aria-labelledby="title-06 desc-06">
<title id="title-06">Oracle officially added</title>
<desc id="desc-06">An eighth node slides into a secure vendor constellation. Editorial illustration only; not a social media screenshot.</desc>
<defs>
  <linearGradient id="bg-06" x1="0" y1="0" x2="1" y2="1"><stop offset="0" stop-color="#0f1b2d"/><stop offset="0.58" stop-color="#263e52"/><stop offset="1" stop-color="#050914"/></linearGradient>
  <radialGradient id="glow-06" cx="66%" cy="32%" r="58%"><stop offset="0" stop-color="#f97316" stop-opacity="0.42"/><stop offset="1" stop-color="#f97316" stop-opacity="0"/></radialGradient>
  <pattern id="grid-06" width="52" height="52" patternUnits="userSpaceOnUse"><path d="M52 0H0V52" fill="none" stroke="#ffffff" stroke-opacity="0.055" stroke-width="2"/></pattern>
  <filter id="soft-06" x="-20%" y="-20%" width="140%" height="140%"><feDropShadow dx="0" dy="18" stdDeviation="18" flood-color="#000000" flood-opacity="0.32"/></filter>
</defs>
<rect width="1200" height="760" fill="url(#bg-06)"/>
<rect width="1200" height="760" fill="url(#glow-06)"/>
<rect width="1200" height="760" fill="url(#grid-06)"/>
<path d="M-80 620C130 515 242 638 422 518C605 396 704 412 844 302C973 201 1082 178 1280 242" fill="none" stroke="#ffffff" stroke-opacity="0.11" stroke-width="32"/>
<g filter="url(#soft-06)">
  <circle cx="570" cy="342" r="220" fill="#fff" fill-opacity="0.06" stroke="#f97316" stroke-width="5"/>
  <circle cx="537.3" cy="173.9" r="34" fill="#f97316" fill-opacity="0.62"/><text x="537.3" y="180.9" font-family="Inter, Arial" font-size="19" font-weight="900" fill="#fff" text-anchor="middle">1</text>
<circle cx="700.7" cy="205.3" r="34" fill="#f97316" fill-opacity="0.62"/><text x="700.7" y="212.3" font-family="Inter, Arial" font-size="19" font-weight="900" fill="#fff" text-anchor="middle">2</text>
<circle cx="787.6" cy="316.7" r="34" fill="#f97316" fill-opacity="0.62"/><text x="787.6" y="323.7" font-family="Inter, Arial" font-size="19" font-weight="900" fill="#fff" text-anchor="middle">3</text>
<circle cx="747.0" cy="443.0" r="34" fill="#f97316" fill-opacity="0.62"/><text x="747.0" y="450.0" font-family="Inter, Arial" font-size="19" font-weight="900" fill="#fff" text-anchor="middle">4</text>
<circle cx="602.7" cy="510.1" r="34" fill="#f97316" fill-opacity="0.62"/><text x="602.7" y="517.1" font-family="Inter, Arial" font-size="19" font-weight="900" fill="#fff" text-anchor="middle">5</text>
<circle cx="439.3" cy="478.7" r="34" fill="#f97316" fill-opacity="0.62"/><text x="439.3" y="485.7" font-family="Inter, Arial" font-size="19" font-weight="900" fill="#fff" text-anchor="middle">6</text>
<circle cx="352.4" cy="367.3" r="34" fill="#f97316" fill-opacity="0.62"/><text x="352.4" y="374.3" font-family="Inter, Arial" font-size="19" font-weight="900" fill="#fff" text-anchor="middle">7</text>
  <path d="M945 220C842 232 805 292 790 350" fill="none" stroke="#93e5ab" stroke-width="10" stroke-linecap="round" stroke-dasharray="18 18"/>
  <circle cx="940" cy="220" r="48" fill="#93e5ab"/><text x="940" y="231" font-family="Inter, Arial" font-size="28" font-weight="900" fill="#08111f" text-anchor="middle">8</text>
  <text x="392" y="354" font-family="Inter, Arial" font-size="34" font-weight="900" fill="#f8fbff" text-anchor="middle">OFFICIAL</text><text x="392" y="394" font-family="Inter, Arial" font-size="34" font-weight="900" fill="#f8fbff" text-anchor="middle">UPDATE</text>
</g>
<g transform="translate(72 610)">
  <rect x="0" y="0" width="760" height="92" rx="28" fill="#08111f" fill-opacity="0.74" stroke="#f97316" stroke-opacity="0.45" filter="url(#soft-06)"/>
  <text x="28" y="35" font-family="Inter, Arial, sans-serif" font-size="18" font-weight="900" fill="#f97316" text-anchor="start">7 TO 8</text>
  <text x="28" y="68" font-family="Georgia, serif" font-size="30" font-weight="850" fill="#f8fbff" text-anchor="start">Oracle officially added</text>
</g>
<g transform="translate(1018 624)">
  <circle cx="52" cy="52" r="52" fill="#ffffff" fill-opacity="0.11" stroke="#93e5ab" stroke-opacity="0.6"/>
  <text x="52" y="65" font-family="Georgia, serif" font-size="42" font-weight="900" fill="#ffffff" text-anchor="middle">06</text>
</g>
</svg>
