<svg xmlns="http://www.w3.org/2000/svg" width="1200" height="760" viewBox="0 0 1200 760" role="img" aria-labelledby="title-02 desc-02">
<title id="title-02">AI-first War Department</title>
<desc id="desc-02">A public announcement tower projecting the first seven-company rollout. Editorial illustration only; not a social media screenshot.</desc>
<defs>
  <linearGradient id="bg-02" x1="0" y1="0" x2="1" y2="1"><stop offset="0" stop-color="#172033"/><stop offset="0.58" stop-color="#3a2d65"/><stop offset="1" stop-color="#050914"/></linearGradient>
  <radialGradient id="glow-02" cx="66%" cy="32%" r="58%"><stop offset="0" stop-color="#f05f7d" stop-opacity="0.42"/><stop offset="1" stop-color="#f05f7d" stop-opacity="0"/></radialGradient>
  <pattern id="grid-02" width="52" height="52" patternUnits="userSpaceOnUse"><path d="M52 0H0V52" fill="none" stroke="#ffffff" stroke-opacity="0.055" stroke-width="2"/></pattern>
  <filter id="soft-02" x="-20%" y="-20%" width="140%" height="140%"><feDropShadow dx="0" dy="18" stdDeviation="18" flood-color="#000000" flood-opacity="0.32"/></filter>
</defs>
<rect width="1200" height="760" fill="url(#bg-02)"/>
<rect width="1200" height="760" fill="url(#glow-02)"/>
<rect width="1200" height="760" fill="url(#grid-02)"/>
<path d="M-80 620C130 515 242 638 422 518C605 396 704 412 844 302C973 201 1082 178 1280 242" fill="none" stroke="#ffffff" stroke-opacity="0.11" stroke-width="32"/>
<g filter="url(#soft-02)">
  <path d="M260 330h138l264-118v250L398 345H260z" fill="#fff" fill-opacity="0.12" stroke="#f05f7d" stroke-width="7"/>
  <path d="M398 345l72 150H336l-42-150" fill="#ffd166" fill-opacity="0.18" stroke="#ffd166" stroke-width="5"/>
  <path d="M715 228C805 198 884 198 982 230" fill="none" stroke="#f05f7d" stroke-width="8" stroke-linecap="round" opacity="0.72"/>
<path d="M715 296C805 220 884 220 982 285" fill="none" stroke="#ffd166" stroke-width="8" stroke-linecap="round" opacity="0.58"/>
<path d="M715 364C805 242 884 242 982 340" fill="none" stroke="#f05f7d" stroke-width="8" stroke-linecap="round" opacity="0.43999999999999995"/>
  <circle cx="790" cy="420" r="23" fill="#ffd166" fill-opacity="0.82"/><text x="790" y="426" font-family="Inter, Arial, sans-serif" font-size="16" font-weight="900" fill="#07111f" text-anchor="middle">1</text>
<circle cx="832" cy="458" r="23" fill="#f05f7d" fill-opacity="0.82"/><text x="832" y="464" font-family="Inter, Arial, sans-serif" font-size="16" font-weight="900" fill="#07111f" text-anchor="middle">2</text>
<circle cx="874" cy="420" r="23" fill="#ffd166" fill-opacity="0.82"/><text x="874" y="426" font-family="Inter, Arial, sans-serif" font-size="16" font-weight="900" fill="#07111f" text-anchor="middle">3</text>
<circle cx="916" cy="458" r="23" fill="#f05f7d" fill-opacity="0.82"/><text x="916" y="464" font-family="Inter, Arial, sans-serif" font-size="16" font-weight="900" fill="#07111f" text-anchor="middle">4</text>
<circle cx="958" cy="420" r="23" fill="#ffd166" fill-opacity="0.82"/><text x="958" y="426" font-family="Inter, Arial, sans-serif" font-size="16" font-weight="900" fill="#07111f" text-anchor="middle">5</text>
<circle cx="1000" cy="458" r="23" fill="#f05f7d" fill-opacity="0.82"/><text x="1000" y="464" font-family="Inter, Arial, sans-serif" font-size="16" font-weight="900" fill="#07111f" text-anchor="middle">6</text>
<circle cx="1042" cy="420" r="23" fill="#ffd166" fill-opacity="0.82"/><text x="1042" y="426" font-family="Inter, Arial, sans-serif" font-size="16" font-weight="900" fill="#07111f" text-anchor="middle">7</text>
  <text x="250" y="174" font-family="Inter, Arial, sans-serif" font-size="24" font-weight="900" fill="#f8fbff" text-anchor="start">PUBLIC SIGNAL</text>
  <g><rect x="250" y="198" width="160" height="34" rx="17" fill="#ffffff" fill-opacity="0.12" stroke="#ffd166" stroke-opacity="0.35"/><text x="264" y="221" font-family="Inter, Arial, sans-serif" font-size="15" font-weight="800" fill="#ffd166">seven first</text></g>
</g>
<g transform="translate(72 610)">
  <rect x="0" y="0" width="760" height="92" rx="28" fill="#08111f" fill-opacity="0.74" stroke="#f05f7d" stroke-opacity="0.45" filter="url(#soft-02)"/>
  <text x="28" y="35" font-family="Inter, Arial, sans-serif" font-size="18" font-weight="900" fill="#f05f7d" text-anchor="start">FIRST PUBLIC POST</text>
  <text x="28" y="68" font-family="Georgia, serif" font-size="30" font-weight="850" fill="#f8fbff" text-anchor="start">AI-first War Department</text>
</g>
<g transform="translate(1018 624)">
  <circle cx="52" cy="52" r="52" fill="#ffffff" fill-opacity="0.11" stroke="#ffd166" stroke-opacity="0.6"/>
  <text x="52" y="65" font-family="Georgia, serif" font-size="42" font-weight="900" fill="#ffffff" text-anchor="middle">02</text>
</g>
</svg>
