<svg xmlns="http://www.w3.org/2000/svg" width="1200" height="675" viewBox="0 0 1200 675" role="img" aria-labelledby="title desc">
  <title id="title">Editorial source illustration for rail card R8</title>
  <desc id="desc">Unique local editorial illustration for Character meter: Nine people, not stacks.</desc>
  <defs>
    <linearGradient id="bg" x1="0" x2="1" y1="0" y2="1">
      <stop offset="0" stop-color="#132b2a"/>
      <stop offset="1" stop-color="#101223"/>
    </linearGradient>
    <radialGradient id="glow" cx="50%" cy="40%" r="70%">
      <stop offset="0" stop-color="#f0c75e" stop-opacity=".26"/>
      <stop offset="1" stop-color="#f0c75e" stop-opacity="0"/>
    </radialGradient>
  </defs>
  <rect width="1200" height="675" fill="url(#bg)"/>
  <rect width="1200" height="675" fill="url(#glow)"/>
  <path d="M78 120h1044M78 556h1044" stroke="#f4f0e8" stroke-opacity=".16" stroke-width="2"/>
  <g aria-hidden="true">
    <g fill="#f4f0e8">
      <circle cx="370" cy="245" r="48"/><circle cx="500" cy="215" r="48"/><circle cx="630" cy="245" r="48"/><circle cx="760" cy="215" r="48"/><circle cx="890" cy="245" r="48"/>
      <path d="M290 460c22-95 138-95 160 0Z"/><path d="M420 460c22-95 138-95 160 0Z"/><path d="M550 460c22-95 138-95 160 0Z"/><path d="M680 460c22-95 138-95 160 0Z"/><path d="M810 460c22-95 138-95 160 0Z"/>
    </g>
    <path d="M250 522h700" stroke="#e7d7a8" stroke-width="10" stroke-linecap="round"/>
    <path d="M365 522h470" stroke="#ec3557" stroke-width="10" stroke-linecap="round"/>
  </g>
  <text x="80" y="92" fill="#f7f1df" font-family="Georgia, serif" font-size="38" font-weight="700">Character meter</text>
  <text x="80" y="585" fill="#f7f1df" font-family="Arial, sans-serif" font-size="48" font-weight="900">R8</text>
</svg>
