<svg xmlns="http://www.w3.org/2000/svg" width="1200" height="675" viewBox="0 0 1200 675" role="img" aria-labelledby="title desc">
  <title id="title">Editorial source illustration for rail card R6</title>
  <desc id="desc">Unique local editorial illustration for Question for the rail: Audience response.</desc>
  <defs>
    <linearGradient id="bg" x1="0" x2="1" y1="0" y2="1">
      <stop offset="0" stop-color="#111827"/>
      <stop offset="1" stop-color="#102d2b"/>
    </linearGradient>
    <radialGradient id="glow" cx="50%" cy="40%" r="70%">
      <stop offset="0" stop-color="#5d6be8" stop-opacity=".26"/>
      <stop offset="1" stop-color="#5d6be8" stop-opacity="0"/>
    </radialGradient>
  </defs>
  <rect width="1200" height="675" fill="url(#bg)"/>
  <rect width="1200" height="675" fill="url(#glow)"/>
  <path d="M78 120h1044M78 556h1044" stroke="#f4f0e8" stroke-opacity=".16" stroke-width="2"/>
  <g aria-hidden="true">
    <path d="M310 180h355c70 0 126 50 126 112s-56 112-126 112H492l-126 100l36-100h-92c-70 0-126-50-126-112s56-112 126-112Z" fill="#f4f0e8"/>
    <path d="M720 288h102c74 0 134 48 134 108s-60 108-134 108h-34l36 88l-116-88h-76" fill="#5d6be8" opacity=".92"/>
    <text x="490" y="326" text-anchor="middle" fill="#102033" font-family="Arial, sans-serif" font-size="84" font-weight="900">?</text>
    <text x="790" y="430" text-anchor="middle" fill="#f4f0e8" font-family="Arial, sans-serif" font-size="70" font-weight="900">!</text>
  </g>
  <text x="80" y="92" fill="#f7f1df" font-family="Georgia, serif" font-size="38" font-weight="700">Question for the rail</text>
  <text x="80" y="585" fill="#f7f1df" font-family="Arial, sans-serif" font-size="48" font-weight="900">R6</text>
</svg>
