<svg xmlns="http://www.w3.org/2000/svg" width="1200" height="675" viewBox="0 0 1200 675" role="img" aria-labelledby="title desc">
  <title id="title">Editorial source illustration for rail card L6</title>
  <desc id="desc">Unique local editorial illustration for Reader hook: Incomplete information.</desc>
  <defs>
    <linearGradient id="bg" x1="0" x2="1" y1="0" y2="1">
      <stop offset="0" stop-color="#0b2534"/>
      <stop offset="1" stop-color="#151827"/>
    </linearGradient>
    <radialGradient id="glow" cx="50%" cy="40%" r="70%">
      <stop offset="0" stop-color="#e7d7a8" stop-opacity=".26"/>
      <stop offset="1" stop-color="#e7d7a8" stop-opacity="0"/>
    </radialGradient>
  </defs>
  <rect width="1200" height="675" fill="url(#bg)"/>
  <rect width="1200" height="675" fill="url(#glow)"/>
  <path d="M78 120h1044M78 556h1044" stroke="#f4f0e8" stroke-opacity=".16" stroke-width="2"/>
  <g aria-hidden="true">
    <path d="M300 245c0-72 72-130 160-130h285c88 0 160 58 160 130s-72 130-160 130H590l-142 120l38-120h-26c-88 0-160-58-160-130Z" fill="#f4f0e8"/>
    <text x="600" y="282" text-anchor="middle" fill="#102033" font-family="Georgia, serif" font-size="72" font-weight="700">?</text>
    <rect x="410" y="445" width="120" height="86" rx="10" fill="#0b5a49" transform="rotate(-7 470 488)"/>
    <rect x="548" y="445" width="120" height="86" rx="10" fill="#ec3557"/>
    <rect x="686" y="445" width="120" height="86" rx="10" fill="#5d6be8" transform="rotate(7 746 488)"/>
  </g>
  <text x="80" y="92" fill="#f7f1df" font-family="Georgia, serif" font-size="38" font-weight="700">Reader hook</text>
  <text x="80" y="585" fill="#f7f1df" font-family="Arial, sans-serif" font-size="48" font-weight="900">L6</text>
</svg>
