<svg xmlns="http://www.w3.org/2000/svg" width="1200" height="675" viewBox="0 0 1200 675" role="img" aria-labelledby="title desc">
  <title id="title">Editorial source illustration for rail card R3</title>
  <desc id="desc">Unique local editorial illustration for Recent records: Entry-count bars.</desc>
  <defs>
    <linearGradient id="bg" x1="0" x2="1" y1="0" y2="1">
      <stop offset="0" stop-color="#0b2239"/>
      <stop offset="1" stop-color="#0d1430"/>
    </linearGradient>
    <radialGradient id="glow" cx="50%" cy="40%" r="70%">
      <stop offset="0" stop-color="#f0c75e" stop-opacity=".26"/>
      <stop offset="1" stop-color="#f0c75e" stop-opacity="0"/>
    </radialGradient>
  </defs>
  <rect width="1200" height="675" fill="url(#bg)"/>
  <rect width="1200" height="675" fill="url(#glow)"/>
  <path d="M78 120h1044M78 556h1044" stroke="#f4f0e8" stroke-opacity=".16" stroke-width="2"/>
  <g aria-hidden="true">
    <rect x="250" y="470" width="700" height="18" rx="9" fill="#e7d7a8" opacity=".78"/>
    <g font-family="Arial, sans-serif" font-weight="900" text-anchor="middle">
      <rect x="300" y="220" width="130" height="250" rx="18" fill="#0b5a49"/><text x="365" y="526" fill="#f4f0e8" font-size="42">2023</text><text x="365" y="188" fill="#f0c75e" font-size="44">10,043</text>
      <rect x="535" y="175" width="130" height="295" rx="18" fill="#5d6be8"/><text x="600" y="526" fill="#f4f0e8" font-size="42">2024</text><text x="600" y="143" fill="#f0c75e" font-size="44">10,112</text>
      <rect x="770" y="255" width="130" height="215" rx="18" fill="#ec3557"/><text x="835" y="526" fill="#f4f0e8" font-size="42">2025</text><text x="835" y="223" fill="#f0c75e" font-size="44">9,735</text>
    </g>
    <path d="M508 118l52 36l-20 60l60-38l60 38l-20-60l52-36h-64l-28-58l-28 58Z" fill="#f0c75e"/>
  </g>
  <text x="80" y="92" fill="#f7f1df" font-family="Georgia, serif" font-size="38" font-weight="700">Recent records</text>
  <text x="80" y="585" fill="#f7f1df" font-family="Arial, sans-serif" font-size="48" font-weight="900">R3</text>
</svg>
