<svg xmlns="http://www.w3.org/2000/svg" width="1200" height="675" viewBox="0 0 1200 675" role="img" aria-labelledby="title desc">
  <title id="title">Editorial source illustration for rail card L11</title>
  <desc id="desc">Unique local editorial illustration for Media reality: Make room for lightning.</desc>
  <defs>
    <linearGradient id="bg" x1="0" x2="1" y1="0" y2="1">
      <stop offset="0" stop-color="#14172a"/>
      <stop offset="1" stop-color="#2d1a0f"/>
    </linearGradient>
    <radialGradient id="glow" cx="50%" cy="40%" r="70%">
      <stop offset="0" stop-color="#f0c75e" stop-opacity=".26"/>
      <stop offset="1" stop-color="#f0c75e" stop-opacity="0"/>
    </radialGradient>
  </defs>
  <rect width="1200" height="675" fill="url(#bg)"/>
  <rect width="1200" height="675" fill="url(#glow)"/>
  <path d="M78 120h1044M78 556h1044" stroke="#f4f0e8" stroke-opacity=".16" stroke-width="2"/>
  <g aria-hidden="true">
    <path d="M642 80L420 344h150l-70 250l282-338H612Z" fill="#f0c75e"/>
    <path d="M252 486c86-76 156-78 232-8s152 70 232 0s156-70 232 8" fill="none" stroke="#f4f0e8" stroke-width="16" stroke-linecap="round"/>
    <path d="M278 270c54-80 134-118 238-112M752 160c100 30 166 90 198 180" fill="none" stroke="#5d6be8" stroke-width="12" stroke-linecap="round" opacity=".9"/>
    <circle cx="322" cy="210" r="28" fill="#ec3557"/>
  </g>
  <text x="80" y="92" fill="#f7f1df" font-family="Georgia, serif" font-size="38" font-weight="700">Media reality</text>
  <text x="80" y="585" fill="#f7f1df" font-family="Arial, sans-serif" font-size="48" font-weight="900">L11</text>
</svg>
