<svg xmlns="http://www.w3.org/2000/svg" width="1200" height="675" viewBox="0 0 1200 675" role="img" aria-labelledby="title desc">
  <title id="title">Editorial source illustration for rail card L7</title>
  <desc id="desc">Unique local editorial illustration for Explainer overlay: Broadcast map.</desc>
  <defs>
    <linearGradient id="bg" x1="0" x2="1" y1="0" y2="1">
      <stop offset="0" stop-color="#0a2431"/>
      <stop offset="1" stop-color="#06111f"/>
    </linearGradient>
    <radialGradient id="glow" cx="50%" cy="40%" r="70%">
      <stop offset="0" stop-color="#0b5a49" stop-opacity=".26"/>
      <stop offset="1" stop-color="#0b5a49" stop-opacity="0"/>
    </radialGradient>
  </defs>
  <rect width="1200" height="675" fill="url(#bg)"/>
  <rect width="1200" height="675" fill="url(#glow)"/>
  <path d="M78 120h1044M78 556h1044" stroke="#f4f0e8" stroke-opacity=".16" stroke-width="2"/>
  <g aria-hidden="true">
    <rect x="245" y="150" width="710" height="390" rx="30" fill="#0b1324" stroke="#f4f0e8" stroke-width="8"/>
    <rect x="300" y="215" width="245" height="78" rx="14" fill="#0b5a49"/><rect x="655" y="215" width="245" height="78" rx="14" fill="#ec3557"/>
    <path d="M310 440c160-130 420 120 580-36" fill="none" stroke="#f0c75e" stroke-width="14" stroke-linecap="round"/>
    <circle cx="472" cy="360" r="42" fill="#5d6be8"/><circle cx="730" cy="398" r="42" fill="#f4f0e8"/>
    <path d="M245 150l710 390M955 150L245 540" stroke="#f4f0e8" stroke-width="3" opacity=".2"/>
  </g>
  <text x="80" y="92" fill="#f7f1df" font-family="Georgia, serif" font-size="38" font-weight="700">Explainer overlay</text>
  <text x="80" y="585" fill="#f7f1df" font-family="Arial, sans-serif" font-size="48" font-weight="900">L7</text>
</svg>
