<svg xmlns="http://www.w3.org/2000/svg" width="1200" height="675" viewBox="0 0 1200 675" role="img" aria-labelledby="title desc">
  <title id="title">Editorial source illustration for rail card L10</title>
  <desc id="desc">Unique local editorial illustration for Holdem basics: Two plus five.</desc>
  <defs>
    <linearGradient id="bg" x1="0" x2="1" y1="0" y2="1">
      <stop offset="0" stop-color="#112620"/>
      <stop offset="1" stop-color="#101827"/>
    </linearGradient>
    <radialGradient id="glow" cx="50%" cy="40%" r="70%">
      <stop offset="0" stop-color="#f0c75e" stop-opacity=".26"/>
      <stop offset="1" stop-color="#f0c75e" stop-opacity="0"/>
    </radialGradient>
  </defs>
  <rect width="1200" height="675" fill="url(#bg)"/>
  <rect width="1200" height="675" fill="url(#glow)"/>
  <path d="M78 120h1044M78 556h1044" stroke="#f4f0e8" stroke-opacity=".16" stroke-width="2"/>
  <g aria-hidden="true">
    <g>
      <rect x="300" y="215" width="110" height="158" rx="12" fill="#f4f0e8" transform="rotate(-9 355 294)"/>
      <rect x="430" y="215" width="110" height="158" rx="12" fill="#f4f0e8" transform="rotate(7 485 294)"/>
    </g>
    <path d="M582 295h70" stroke="#f0c75e" stroke-width="18" stroke-linecap="round"/>
    <g fill="#0b5a49" stroke="#e7d7a8" stroke-width="7">
      <rect x="680" y="205" width="88" height="130" rx="10"/><rect x="778" y="205" width="88" height="130" rx="10"/><rect x="876" y="205" width="88" height="130" rx="10"/>
      <rect x="729" y="360" width="88" height="130" rx="10"/><rect x="827" y="360" width="88" height="130" rx="10"/>
    </g>
    <text x="600" y="580" text-anchor="middle" fill="#f4f0e8" font-family="Arial, sans-serif" font-size="56" font-weight="900">2 + 5</text>
  </g>
  <text x="80" y="92" fill="#f7f1df" font-family="Georgia, serif" font-size="38" font-weight="700">Holdem basics</text>
  <text x="80" y="585" fill="#f7f1df" font-family="Arial, sans-serif" font-size="48" font-weight="900">L10</text>
</svg>
