<svg xmlns="http://www.w3.org/2000/svg" width="1200" height="675" viewBox="0 0 1200 675" role="img" aria-labelledby="title desc">
  <title id="title">Editorial source illustration for rail card R1</title>
  <desc id="desc">Unique local editorial illustration for Hole card secret: Viewer knows the hand.</desc>
  <defs>
    <linearGradient id="bg" x1="0" x2="1" y1="0" y2="1">
      <stop offset="0" stop-color="#092b2a"/>
      <stop offset="1" stop-color="#07101f"/>
    </linearGradient>
    <radialGradient id="glow" cx="50%" cy="40%" r="70%">
      <stop offset="0" stop-color="#f0c75e" stop-opacity=".26"/>
      <stop offset="1" stop-color="#f0c75e" stop-opacity="0"/>
    </radialGradient>
  </defs>
  <rect width="1200" height="675" fill="url(#bg)"/>
  <rect width="1200" height="675" fill="url(#glow)"/>
  <path d="M78 120h1044M78 556h1044" stroke="#f4f0e8" stroke-opacity=".16" stroke-width="2"/>
  <g aria-hidden="true">
    <ellipse cx="600" cy="350" rx="415" ry="170" fill="#0d6958" stroke="#e7d7a8" stroke-width="8"/>
    <rect x="420" y="232" width="122" height="174" rx="12" fill="#f4f0e8" transform="rotate(-9 481 319)"/>
    <rect x="560" y="232" width="122" height="174" rx="12" fill="#f4f0e8" transform="rotate(9 621 319)"/>
    <path d="M455 321c48-50 101-50 149 0c-48 50-101 50-149 0Z" fill="#122238" opacity=".85"/>
    <circle cx="530" cy="321" r="24" fill="#f0c75e"/>
    <path d="M753 248l82-62l10 104Z" fill="#ec3557"/><rect x="820" y="218" width="92" height="62" rx="12" fill="#102a48" stroke="#f4f0e8" stroke-width="5"/>
  </g>
  <text x="80" y="92" fill="#f7f1df" font-family="Georgia, serif" font-size="38" font-weight="700">Hole card secret</text>
  <text x="80" y="585" fill="#f7f1df" font-family="Arial, sans-serif" font-size="48" font-weight="900">R1</text>
</svg>
