<svg xmlns="http://www.w3.org/2000/svg" width="1200" height="675" viewBox="0 0 1200 675" role="img" aria-labelledby="title desc">
  <title id="title">Editorial source illustration for rail card R12</title>
  <desc id="desc">Unique local editorial illustration for Source trail: Receipts.</desc>
  <defs>
    <linearGradient id="bg" x1="0" x2="1" y1="0" y2="1">
      <stop offset="0" stop-color="#112620"/>
      <stop offset="1" stop-color="#08111d"/>
    </linearGradient>
    <radialGradient id="glow" cx="50%" cy="40%" r="70%">
      <stop offset="0" stop-color="#5d6be8" stop-opacity=".26"/>
      <stop offset="1" stop-color="#5d6be8" stop-opacity="0"/>
    </radialGradient>
  </defs>
  <rect width="1200" height="675" fill="url(#bg)"/>
  <rect width="1200" height="675" fill="url(#glow)"/>
  <path d="M78 120h1044M78 556h1044" stroke="#f4f0e8" stroke-opacity=".16" stroke-width="2"/>
  <g aria-hidden="true">
    <rect x="290" y="130" width="620" height="420" rx="24" fill="#f4f0e8"/>
    <path d="M360 230h420M360 322h330M360 414h390" stroke="#102033" stroke-width="16" stroke-linecap="round"/>
    <circle cx="815" cy="230" r="38" fill="#0b5a49"/><path d="M795 230l16 16l30-38" fill="none" stroke="#fff" stroke-width="10" stroke-linecap="round" stroke-linejoin="round"/>
    <circle cx="725" cy="322" r="38" fill="#ec3557"/><path d="M705 322l16 16l30-38" fill="none" stroke="#fff" stroke-width="10" stroke-linecap="round" stroke-linejoin="round"/>
    <circle cx="785" cy="414" r="38" fill="#5d6be8"/><path d="M765 414l16 16l30-38" fill="none" stroke="#fff" stroke-width="10" stroke-linecap="round" stroke-linejoin="round"/>
  </g>
  <text x="80" y="92" fill="#f7f1df" font-family="Georgia, serif" font-size="38" font-weight="700">Source trail</text>
  <text x="80" y="585" fill="#f7f1df" font-family="Arial, sans-serif" font-size="48" font-weight="900">R12</text>
</svg>
