<svg xmlns="http://www.w3.org/2000/svg" width="1200" height="675" viewBox="0 0 1200 675" role="img" aria-labelledby="title desc">
  <title id="title">Editorial source illustration for rail card R9</title>
  <desc id="desc">Unique local editorial illustration for Online pipeline: Liquidity network.</desc>
  <defs>
    <linearGradient id="bg" x1="0" x2="1" y1="0" y2="1">
      <stop offset="0" stop-color="#0b1f2e"/>
      <stop offset="1" stop-color="#102d2b"/>
    </linearGradient>
    <radialGradient id="glow" cx="50%" cy="40%" r="70%">
      <stop offset="0" stop-color="#0b5a49" stop-opacity=".26"/>
      <stop offset="1" stop-color="#0b5a49" stop-opacity="0"/>
    </radialGradient>
  </defs>
  <rect width="1200" height="675" fill="url(#bg)"/>
  <rect width="1200" height="675" fill="url(#glow)"/>
  <path d="M78 120h1044M78 556h1044" stroke="#f4f0e8" stroke-opacity=".16" stroke-width="2"/>
  <g aria-hidden="true">
    <path d="M330 230L600 350L870 230M330 455L600 350L870 455" stroke="#e7d7a8" stroke-width="10" stroke-linecap="round"/>
    <g font-family="Arial, sans-serif" font-size="42" font-weight="900" text-anchor="middle">
      <circle cx="330" cy="230" r="72" fill="#5d6be8"/><text x="330" y="244" fill="#fff">PA</text>
      <circle cx="870" cy="230" r="72" fill="#ec3557"/><text x="870" y="244" fill="#fff">MI</text>
      <circle cx="330" cy="455" r="72" fill="#0b5a49"/><text x="330" y="469" fill="#fff">NJ</text>
      <circle cx="870" cy="455" r="72" fill="#f0c75e"/><text x="870" y="469" fill="#102033">NV</text>
      <circle cx="600" cy="350" r="92" fill="#f4f0e8"/><text x="600" y="365" fill="#102033">POOL</text>
    </g>
  </g>
  <text x="80" y="92" fill="#f7f1df" font-family="Georgia, serif" font-size="38" font-weight="700">Online pipeline</text>
  <text x="80" y="585" fill="#f7f1df" font-family="Arial, sans-serif" font-size="48" font-weight="900">R9</text>
</svg>
