<svg xmlns="http://www.w3.org/2000/svg" width="240" height="160" viewBox="0 0 240 160" role="img" aria-labelledby="title desc">
<title id="title">Reuters logo</title>
<desc id="desc">Reuters source mark used as a rail-card identifier.</desc>
<rect width="240" height="160" rx="34" fill="#ffffff"/>
<g transform="translate(44 38)" fill="#FF8000"><circle cx="60.0" cy="32.0" r="5.2"/><circle cx="57.9" cy="42.7" r="5.2"/><circle cx="51.8" cy="51.8" r="5.2"/><circle cx="42.7" cy="57.9" r="5.2"/><circle cx="32.0" cy="60.0" r="5.2"/><circle cx="21.3" cy="57.9" r="5.2"/><circle cx="12.2" cy="51.8" r="5.2"/><circle cx="6.1" cy="42.7" r="5.2"/><circle cx="4.0" cy="32.0" r="5.2"/><circle cx="6.1" cy="21.3" r="5.2"/><circle cx="12.2" cy="12.2" r="5.2"/><circle cx="21.3" cy="6.1" r="5.2"/><circle cx="32.0" cy="4.0" r="5.2"/><circle cx="42.7" cy="6.1" r="5.2"/><circle cx="51.8" cy="12.2" r="5.2"/><circle cx="57.9" cy="21.3" r="5.2"/><circle cx="45.7" cy="34.8" r="4.6"/><circle cx="39.7" cy="43.7" r="4.6"/><circle cx="29.2" cy="45.7" r="4.6"/><circle cx="20.3" cy="39.7" r="4.6"/><circle cx="18.3" cy="29.2" r="4.6"/><circle cx="24.3" cy="20.3" r="4.6"/><circle cx="34.8" cy="18.3" r="4.6"/><circle cx="43.7" cy="24.3" r="4.6"/></g><text x="142" y="92" font-family="Arial, sans-serif" font-size="34" font-weight="800" fill="#111827" text-anchor="middle">Reuters</text>
</svg>
